<svg xmlns="http://www.w3.org/2000/svg" xmlns:xlink="http://www.w3.org/1999/xlink" version="1.1" x="0px" y="0px" viewBox="0 0 100 125" enable-background="new 0 0 100 100" xml:space="preserve"><g display="none"><rect x="5" y="5.206" display="inline" fill="none" stroke="#000000" stroke-miterlimit="10" width="90" height="90"></rect></g><g><path d="M49.399,11.154c1.019-1.566,1.928-3.426,3.147-4.842c0.263-0.306,0.58-0.934,1.072-0.994   c0.207-0.025,2.713,1.669,2.839,1.866c0.864,1.352-0.399,1.688-1.369,2.647c-1.038,1.025-1.829,2.265-2.566,3.514   c-1.134,1.921-4.651,6.779-3.637,9.058c2.572-1.399,4.327-5.088,6.455-7.144c2.381-2.301,5.137-4.353,8.049-5.937   c7.601-4.136,12.621,1.727,18.453,5.789c0.867,0.604,7.511,3.764,3.782,4.511c-1.139,0.228-3.234-1.102-4.48-1.247   c-1.676-0.195-3.404-0.216-5.07,0.063c-1.774,0.297-3.076,1.16-4.706,1.782c-1.571,0.6-3.383,0.976-5.004,1.527   c-3.571,1.215-7.146,1.481-10.877,1.733c0.263,2.492,1.015,1.458,2.903,0.966c1.176-0.307,0.597-0.359,1.937-0.251   c0.932,0.075,1.911,0.376,2.857,0.477c3.452,0.367,6.748,1.129,9.851,2.77c6.143,3.248,9.025,9.828,9.303,16.426   c0.319,7.572,0.244,16.038-2.431,23.205c-2.532,6.786-5.823,13.951-11.08,19.051c-2.497,2.423-4.318,4.907-7.498,6.43   c-3.452,1.653-7.371,1.657-11.125,1.908c-3.483,0.232-6.769,0.319-10.139-0.753c-3.512-1.117-5.755-2.986-8.622-5.147   c-5.996-4.519-10.03-10.485-13.016-17.352c-1.404-3.229-2.828-6.543-3.457-10.021c-0.323-1.784-0.504-3.593-0.807-5.38   c-0.293-1.733-0.939-3.218-0.96-4.992c-0.05-4.208-0.159-8.651,1.144-12.698c1.441-4.473,3.431-7.081,7.059-9.981   c6.433-5.14,15.614-9.063,23.882-6.519C46,19.402,47.318,14.352,49.399,11.154z M74.227,13.799   c1.022,0.274,3.882,1.738,4.905,1.461c-1.104-0.933-5.652-4.793-6.576-4.722c-0.723,0.055-2.018,1.75-2.521,2.506   c1.734-0.166,3.628-0.693,5.354-0.348C75.44,13.52,74.3,13.069,74.227,13.799z M63.744,12.682c-0.678,1.098-1.646,2.052-2.36,3.139   c1.567-0.684,2.107-1.507,3.487-2.462c0.833-0.576,2.477-3.083,3.475-2.613c-0.308,0.602-2.013,2.527-1.678,3.17   c1.754-0.953,2.893-2.684,4.525-3.801c-1.689-0.761-3.213-0.419-4.882,0.141c-1.146,0.385-2.173,0.299-3.268,0.749   c-1.484,0.609-3.08,2.429-4.344,3.433c-1.341,1.064-2.616,2.08-3.466,3.604c2.041-0.41,3.407-1.027,4.783-2.552   c0.76-0.842,3.922-3.532,2.965-4.521C63.502,11.155,64.561,11.359,63.744,12.682z M34.171,24.168   c-3.778,1.562-7.082,4.134-10.43,6.429c-2.65,1.816-6.023,4.993-6.898,8.205c-1.048,3.845-0.909,8.17-0.72,12.1   c0.392,8.148,1.367,16.467,6.319,23.284c0.468,0.645,1.21,1.274,1.529,2.01c0.253,0.583-0.031,1.134,0.234,1.789   c0.487,1.205,1.957,2.575,2.801,3.614c2.577,3.175,6.107,7.03,9.781,8.919c6.281,3.228,15.773,3.322,21.253-1.222   c2.849-2.362,5.826-4.32,8.471-6.957c2.958-2.949,5.473-5.968,7.591-9.584c4.509-7.697,6.706-16.152,6.555-25.051   c-0.128-7.512-1.622-15.331-9.135-18.9c-3.51-1.667-7.7-2.955-11.703-2.33c-4.629,0.722-8.271,4.027-13.092,4.032   c-2.151,0.002-4.24-0.537-6.188-1.426c-1.463-0.668-4.292-2.276-1.341-2.507c1.646-0.129,2.538,1.337,4.167,1.281   c2.543-0.087,1.905-2.155,1.905-4.095C44.011,23.016,37.1,22.957,34.171,24.168z M59.043,18.753   c-1.769,0.674-3.386,1.392-4.549,2.937c0.555,0.248,1.542-0.443,2.262-0.523c1.534-0.171,3.186,0.202,4.752,0.077   c2.606-0.207,5.992-0.752,7.971-2.567c-2.995-1.18-6.228-2.853-8.944-0.53c1.95,0.44,3.933,0.386,5.616,1.644   C63.647,19.757,59.175,19.111,59.043,18.753z M77.078,16.035c-1.093-0.538-7.347-2.764-7.941-1.172   c1.046,0.502,1.728,0.827,2.48,1.686c-1.78-0.163-5.048-2.363-6.399-0.475c1.944,0.767,3.888,1.534,5.832,2.301   C71.994,18.006,75.628,17.201,77.078,16.035z M52.963,25.958c-2.305-0.705-3.622-1.492-4.774,0.906   C49.957,26.528,51.371,26.26,52.963,25.958z M53.343,23.313c-1.045-0.312-1.634-0.59-2.414-0.131   C51.688,23.62,52.262,23.819,53.343,23.313z"></path><path d="M70.854,40.455c-0.537,1.243-1.243,2.971-2.65,3.454c-1.597,0.547-2.114-0.871-3.175-0.928   c-1.29-0.068-1.562,1.212-2.822,0.009c-1.022-0.975-0.595-2.776,0.256-3.831c0.37-0.459,1.022-0.53,1.402-0.992   c0.388-0.473,0.439-1.121,0.729-1.649c1.696-3.088,4.615-2.61,6.147,0.186C71.05,36.678,71.395,39.204,70.854,40.455z    M65.606,38.425c-0.375,1.286,0.203,3.106,1.64,3.478c1.457,0.378,2.51-1.282,2.784-2.511c0.373-1.675-0.419-2.52-1.386-3.77   C68.028,35.971,66.036,36.952,65.606,38.425z"></path></g></svg>