<svg xmlns="http://www.w3.org/2000/svg" viewBox="0 0 100 125" x="0px" y="0px"><g><path d="M25.83208,79.3447A24.57365,24.57365,0,0,1,14.27843,77.152c-1.88847-.84764-3.42764-2.48229-5.10513-3.78655a13.51,13.51,0,0,0-2.13386-1.74989A2.63185,2.63185,0,0,1,5.6294,70c-1.59831-4.05251-.67605-11.52757,3.89115-14.95461,3.07269-2.30566,6.14283-4.63017,9.04938-7.13727a95.96063,95.96063,0,0,0,7.13093-6.93074c1.78653-1.89783,3.28427-4.06452,5.02094-6.01315a20.061,20.061,0,0,1,4.89429-4.15607,7.89706,7.89706,0,0,0,3.0972-2.48469,2.52689,2.52689,0,0,1,.91995-0.78171,54.995,54.995,0,0,1,13.43489-5.3129c1.96847-.50113,3.974-0.85577,5.95761-1.299a16.574,16.574,0,0,1,6.73135.02784,48.14511,48.14511,0,0,0,5.55093.46568A23.56206,23.56206,0,0,1,84.389,26.10875c2.03277,1.55119,4.1243,3.03939,6.0347,4.73061a11.66447,11.66447,0,0,1,2.04761,2.9886A12.4272,12.4272,0,0,1,94.597,40.19861c-0.01128,1.42817.65549,2.78135,0.46795,4.286a65.14747,65.14747,0,0,1-2.13552,9.86777c-1.23973,4.338-4.72963,6.60766-7.726,9.382-0.63607.589-1.2199,1.23448-1.85576,1.82369A41.967,41.967,0,0,1,73.806,72.579a20.20632,20.20632,0,0,1-7.84557,2.21044c-3.07.17882-6.12693,0.57882-9.19035,0.874-0.984.09484-1.97462,0.13-2.95532,0.24911-4.266.51832-8.53718,1.00307-12.79159,1.60536-3.79366.537-7.56075,1.26193-11.35448,1.79876A27.63066,27.63066,0,0,1,25.83208,79.3447Zm47.588-12.32894a8.01765,8.01765,0,0,1,1.29532-.811,8.49688,8.49688,0,0,0,3.53342-2.64755,2.3687,2.3687,0,0,0,.18472-0.15863,21.92747,21.92747,0,0,1,1.89582-1.49c2.66008-1.67027,5.34659-3.29851,8.02648-4.93718,0.36887-.22555.7554-0.42228,1.35972-0.75785C88.623,58.00383,88.623,58.00383,88.83946,58.671c1.9854-2.3367,2.39443-3.49246,2.36237-6.85339a19.0025,19.0025,0,0,1-5.931,5.99327c-3.154,2.06925-6.48376,3.86993-9.72407,5.80924a16.16739,16.16739,0,0,0-1.49564,1.14353q0.03784,0.1277.06713,0.2577-0.705,1.17968-1.41008,2.35936-1.43784.87041-2.87566,1.74086a5.149,5.149,0,0,0,3.69991-1.4522A1.28877,1.28877,0,0,0,73.42007,67.01575ZM83.52635,46.74829c0.35477-.74592.70953-1.49184,1.07182-2.25354-2.33024-.45713-3.4211.35866-4.08787,3.20675,0.68307-.13909,1.26881-0.21379,1.82437-0.38594a8.49054,8.49054,0,0,0,1.21023-.58587,1.96269,1.96269,0,0,0,.67161.67674,2.13109,2.13109,0,0,0,2.09067-.54722,16.24837,16.24837,0,0,0,2.32516-2.74876c0.62769-1.01393,1.88872-1.6308,2.8557-2.44082,1.51514-1.2692,1.51022-1.76143-.14709-3.244a2.625,2.625,0,0,0-.9226,1.04151c0.10031,0.78684-.53752.60807-0.82,0.87616-0.34527.3277-.64484,0.70363-0.99306,1.09089l1.1107,0.64591c-2.64183.307-2.8434,0.45824-2.59446,1.64607-0.64014.50429-1.22947,0.944-1.79059,1.41723C84.71584,45.66223,84.12685,46.212,83.52635,46.74829Zm-8.75772,7.3219,0.0281,0.02412c0.09727-.42493.19458-0.84987,0.34946-1.52626-3.11794.95308-4.17646,3.97926-6.62057,5.36955,0.424-.58891.84794-1.17782,1.26-1.75027-0.22794-.14687-0.40684-0.26211-0.77444-0.4989a5.9168,5.9168,0,0,0,3.588-2.719,16.33351,16.33351,0,0,1,2.11265-2.20766L74.91452,50.91c-0.11177.39671-.2235,0.79342-0.435,1.54443A12.32834,12.32834,0,0,0,76.28338,51.68a12.36744,12.36744,0,0,0,1.43634-1.3436l-0.59464,1.5145c1.73406,0.12917,3.66259-1.57351,4.20994-3.67837H77.812l-0.12893-.3578c2.20864,0.22508,2.20723-1.76639,3.20534-2.79272l-0.9069-.70932A2.26382,2.26382,0,0,0,82.27571,42.572c-0.24475-.26348-0.48526-0.52229-0.81506-0.87732,0.90917-.4012,2.15186-0.28242,1.88316-1.62559-0.749-.70842-1.70516.6781-2.48884-0.45709,1.36194-.42716,2.8941.22876,3.9702-1.19967a1.76411,1.76411,0,0,1-.1429,1.80034,23.19882,23.19882,0,0,0-1.80543,3.21286c2.28389,0.34831,4.04148.14405,3.56643-1.59638,0.599-.38692,1.56461-0.68439,1.63243-1.12117a2.48315,2.48315,0,0,1,1.38682-1.70922,3.16067,3.16067,0,0,0,.5335-0.77619c-0.69525-.24419-1.26279-0.44349-2.14165-0.75216,1.5393-.46577,2.87037.56514,4.0797-0.49151a11.55866,11.55866,0,0,0-2.74063-5.056c-0.03088,1.55,1.30181,2.77527,1.05963,4.26771-1.67814-.44747-3.27384-0.873-4.67738-1.24726,0.96369-.04609,2.14711-0.10275,3.44936-0.165a13.136,13.136,0,0,0-4.84367-6.87811c-0.6477-.53123-1.23939-0.82442-1.76164-0.37786a29.18345,29.18345,0,0,0-3.6696-2.28727,50.25543,50.25543,0,0,0-5.12028-1.70944c-1.6553-.51866-3.29718-1.23982-5.08311-0.49181a0.8782,0.8782,0,0,1-.51216-0.01193,20.69386,20.69386,0,0,0-8.46077-.07025A72.64988,72.64988,0,0,0,44.705,27.2309a22.23235,22.23235,0,0,0-5.79692,3.17669c-1.68665,1.33158-3.39612,2.6387-5.02107,4.04267a41.01917,41.01917,0,0,0-4.26951,4.04622,97.51549,97.51549,0,0,1-9.4832,9.74129,5.35377,5.35377,0,0,0-.40881.52952,20.56128,20.56128,0,0,1-2.97906,3.27734,47.53035,47.53035,0,0,0-7.00526,6.24648,12.08326,12.08326,0,0,0-3.08857,8.81912,1.51061,1.51061,0,0,0,.27849.92991c1.226,0.111,1.0294,1.24029,1.46973,1.90617A3.85761,3.85761,0,0,0,9.509,71.23613a13.24957,13.24957,0,0,0,7.66327,1.963c1.85174-.15183,3.69317-0.46833,5.52771-0.77893,1.43069-.24218,2.85309-0.55068,4.26237-0.8978,2.03106-.50027,4.02322-1.19471,6.07562-1.56278,2.32494-.41689,4.63483-1.288,7.06808-0.65108a0.745,0.745,0,0,0,.51195-0.03348c1.61007-.94556,3.20427-0.29272,4.74481.12721a19.04569,19.04569,0,0,0,11.168.16347A2.69025,2.69025,0,0,0,58.574,68.09027c3.34836-.14042,10.61309-2.75206,12.33044-4.50087l-2.85121.1299a6.74812,6.74812,0,0,1,2.10264-.60973,14.63512,14.63512,0,0,0,3.046-.66566,28.28491,28.28491,0,0,0,9.55-6.57777c2.43119-2.59146,5.0123-5.04249,7.43687-7.63985a16.11718,16.11718,0,0,0,2.27527-3.28192,3.03827,3.03827,0,0,0,.09621-3.068c-0.80642.76614-2.00174,1.0321-1.73681,2.37809a5.69092,5.69092,0,0,0-3.616,3.1586c0.4641,0.13584.91025,0.26647,1.35634,0.39705-2.73341-.19408-3.82768,1.73509-5.17479,3.52218,0.44661,0.22713.68837,0.35011,1.18577,0.60311-2.02247-.01146-2.99813,1.131-3.91312,2.46763a19.20574,19.20574,0,0,1-2.09888,2.28385,0.68951,0.68951,0,0,1-.32385-0.05234l0.24446-1.16247H75.68049a1.24511,1.24511,0,0,1,1.68323-.72608,2.76289,2.76289,0,0,0,3.37445-1.45036,7.9996,7.9996,0,0,1,2.00344-2.35787,16.89091,16.89091,0,0,0,2.08584-2.585c-2.06312-.24539-2.195-0.33091-2.68061.41762-0.7224,1.11351-2.387,1.73945-1.91416,3.58892-0.96-.04549-1.79593.70633-2.85532,0.17693a2.28774,2.28774,0,0,0-1.38238.56745A11.74272,11.74272,0,0,0,74.76863,54.07019ZM15.50829,75.98705a19.0994,19.0994,0,0,0,9.45759,1.18543c3.83654-.61461,7.75572-0.69418,11.62634-1.12074,2.59317-.28575,5.178-0.7,7.74059-1.19163,1.82283-.34976,3.58717-0.9976,5.4056-1.37917,2.044-.429,4.11352-0.75246,6.18423-1.03a2.3972,2.3972,0,0,1,2.50364.85213c-2.78837.06067-5.30927,0.04071-7.63926,1.14481,4.2451,0.66515,8.384-.5553,12.50968-0.52272,0.36379-.6595.65254-1.183,0.94868-1.71974l-0.98156-.23c1.60562-.726,2.89581-1.3093,4.51725-2.04244-0.6486-.1591-0.88518-0.21717-1.27766-0.31346,1.61327-1.05049,3.78848-1.06353,4.83251-3.326-0.72817.2551-1.14716,0.39282-1.55965,0.54773-4.23466,1.59053-8.31462,3.64558-12.86192,4.29764a42.2749,42.2749,0,0,1-10.0808.3203c-2.94028-.28148-5.81907-1.22776-8.82622-0.82554-1.15011.15384-2.31571,0.19254-3.46582,0.34643-1.317.17625-2.63759,0.36366-3.93368,0.65-2.71772.6005-5.42347,1.25637-8.12687,1.91929-0.611.14983-1.55948,0.27233-1.71854,0.66455-0.483,1.19112-1.44254,1.17556-2.3851,1.33111C17.42258,75.70263,16.46475,75.84052,15.50829,75.98705ZM82.2377,63.80139c-2.60578,1.32311-5.56778,1.67929-7.47814,3.9708,0.30358,0.17783.52718,0.30884,0.953,0.55834-2.5298.81442-4.836,1.56222-7.14586,2.29869a12.21859,12.21859,0,0,0-4.409,2.90248,3.79168,3.79168,0,0,0,.80056.07987,34.7901,34.7901,0,0,0,11.2927-4.50442,85.33227,85.33227,0,0,0,7.44765-5.47568,11.08133,11.08133,0,0,0,3.45063-4.85239c-2.75372,1.78529-5.2674,3.415-7.92423,5.13742C80.335,64.16428,81.08506,63.0553,82.2377,63.80139Zm3.20572-7.51679c2.61472-1.4472,5.24021-4.777,5.39747-6.72717C88.71341,51.39835,85.637,55.15288,85.44342,56.2846ZM27.77857,77.70491a5.71534,5.71534,0,0,0,4.56993-.33753Q30.0636,77.53612,27.77857,77.70491Zm21.632-3.208q-2.00366.47026-4.00718,0.94051C46.81373,75.42589,48.29843,75.70335,49.41057,74.49688Zm-33.87676.345,0.135-.30444H13.89964l-0.00761.12066Q14.713,74.75,15.53382,74.84186Z"></path><path d="M78.24882,63.55716q-2.06561.7313-4.13093,1.4634c-0.01916-.08586-0.04156-0.1718-0.06687-0.25591a27.59714,27.59714,0,0,1,2.5492-1.14178,8.64614,8.64614,0,0,1,1.83356-.22564A2.17936,2.17936,0,0,1,78.24882,63.55716Z"></path><path d="M75.519,36.22829q-0.58737.13366-1.17457,0.26745c-1.29947.2982-1.6391,1.05942-.78915,2.04552a0.58334,0.58334,0,0,1,.13683.745c-0.49852,2.18816-.86988,4.40509-1.30332,6.60852a1.38145,1.38145,0,0,1-.33125.59742,22.362,22.362,0,0,1-8.46718,5.9771,14.64459,14.64459,0,0,1-3.25472.49087,40.30808,40.30808,0,0,1-13.00405-.1934c-2.0949-.35306-4.16749-0.929-6.30121-1.08734a4.408,4.408,0,0,1-1.18885-.258c-1.22413-.45307-1.3781-0.93611-0.776-2.12146,0.47312-.93158.95642-1.86243,1.35488-2.8268a26.12383,26.12383,0,0,1,9.13314-11.889c5.124-3.56177,10.67313-4.676,16.7393-2.5797,1.45977,0.50446,2.7811,1.39414,4.41476,1.51617a2.70552,2.70552,0,0,1,1.39768,1.40273c0.80865,1.37776.75879,1.39482,2.432,1.05284a5.12744,5.12744,0,0,1,1.00713-.00945ZM57.99932,47.4441l0.01586,0.02061c0.97844-.34344,1.95333-0.69756,2.93626-1.02748A4.36467,4.36467,0,0,0,63.62118,44.003c-1.56376.33967-2.89324,0.62842-4.22269,0.91721l-0.06294-.29089c0.94068-.35849,1.88141-0.717,2.92087-1.113a1.84255,1.84255,0,0,0-2.72884-.19558c0.07286-.75015.12456-1.28228,0.17822-1.83523,1.51146-.12605,2.88679-0.24077,4.2616-0.35536-0.58458.31282-1.16918,0.62564-1.9662,1.05211a10.45187,10.45187,0,0,1,1.12647.44422,1.96307,1.96307,0,0,0,2.784-.45183,1.37372,1.37372,0,0,1,1.03031-.52208c1.02269,0.22594.74776-.44392,0.88022-0.913l-3.8819.4095c1.157-.45409,2.31412-0.90814,3.53718-1.38815-0.92751-1.95252-2.2148.08368-3.31022-.55975,0.68157-.38957,1.24226-0.71,1.83408-1.04835-0.97938-1.11437-.99529-1.15563-1.93118-0.79385-1.06729.41253-2.10226,0.90836-3.15108,1.36788-0.274-1.61892,1.75908-1.41864,2.20146-2.80469l-2.32828.33326a1.65061,1.65061,0,0,0,.11374-1.86268c0.59832-.30645,1.20036-0.61478,1.86281-0.95407a2.169,2.169,0,0,0-2.47079-.26258c-1.29617.58677-2.61352,1.12681-3.92188,1.68669l-0.176-.33783q1.495-.90286,2.99-1.80573a20.82226,20.82226,0,0,0-3.23116.74348A17.8587,17.8587,0,0,0,45.2799,41.34693c-0.84,1.26026-1.68562,2.51671-2.52227,3.77911a11.7813,11.7813,0,0,0-2.15814,5.04767A8.566,8.566,0,0,0,41.92,50.5372c3.52974,0.38359,7.07518.648,10.59026,1.134a22.69214,22.69214,0,0,0,10.13078-1.132,3.835,3.835,0,0,0,2.68813-2.0465,21.79146,21.79146,0,0,0,6.00169-6.4929c0.6368-1.12155.71873-2.99488-.12349-3.87369-0.933-.97352-1.92879-0.25475-2.87251.1317a0.74065,0.74065,0,0,0-.21114.24864c0.22264,1.62995,1.52344.97378,2.64135,1.038-1.97556,1.1334-1.97556,1.1334-2.19132,2.46506,0.30012,0.1624.60024,0.32484,1.04138,0.5636-2.42615.69812-3.27756,1.78016-2.64371,2.91625-0.70859.44682-1.41354,0.89134-2.05137,1.29353l0.43,1.72671c-1.23667.27263-2.46195,0.63911-3.71323,0.79141-1.24452.15145-2.39437,0.90558-3.87929,0.73211,1.00268-.93393,1.83844-1.71234,2.77964-2.589H57.99932Zm8.20815-10.80734c0.49689,0.95552,1.023,1.242,1.83027.97036a9.14562,9.14562,0,0,1,1.35776-.30611c0.5458-.09454,1.1265-0.22375.97668-0.92615a0.95641,0.95641,0,0,0-1.38828-.63984C68.09892,35.99461,67.22819,36.30243,66.20747,36.63676Zm1.14738,11.53347a7.50382,7.50382,0,0,0,3.60355-3.91808C69.645,45.68019,68.4232,47.00861,67.35484,48.17022Zm-6.53655.4647c1.86272-.18531,1.86272-0.18531,2.42034-1.247C62.06928,46.79383,61.65691,47.00626,60.81829,48.63492Zm2.88255-3.17575c1.79029-.1036,2.15814-0.43306,2.58145-2.35872C65.33537,43.96567,64.59462,44.64253,63.70084,45.45917ZM62.987,34.48811c1.94059,0.089,2.75309-.07534,3.048-0.53033A4.20345,4.20345,0,0,0,62.987,34.48811Zm4.50083,0.82716q0.603-.25065,1.20608-0.50126C68.03979,34.33041,67.62161,34.47028,67.48782,35.31527Z"></path><path d="M62.42634,60.17335q-4.177,4.2275-8.354,8.455l-0.27172-.26805a51.58728,51.58728,0,0,1,8.25783-8.55684Z"></path><path d="M67.67912,56.82635a34.70346,34.70346,0,0,1-2.82,3.961,12.13124,12.13124,0,0,1-3.24579,2.13095c1.6834-2.35436,4.0018-4.10472,5.76344-6.37463Z"></path><path d="M84.22951,33.13416c-1.0457-1.47807-2.09366-2.95456-3.12739-4.441a0.654,0.654,0,0,1,.11459-0.30371C82.54637,28.79534,84.22181,31.2023,84.22951,33.13416Z"></path><path d="M72.32978,59.62352c-2.02.32236-4.04011,0.64475-6.17665,0.98575-0.18733-.68114.67758-0.79471,1.03376-1.35523C68.84306,60.21517,70.54474,59.34537,72.32978,59.62352Z"></path><path d="M77.50414,30.38762c-1.19753-.91105-2.51641-1.31572-3.247-2.78545C76.82637,28.40966,76.88346,28.45747,77.50414,30.38762Z"></path><path d="M74.76863,54.07019v1.27963c-0.74511.11861-1.46191,1.06374-2.21847-.03788q1.12343-.6086,2.24665-1.21754Z"></path><path d="M77.34247,45.2819q-1.55232.31844-3.10473,0.63693C75.08829,44.92833,76.1944,45.02543,77.34247,45.2819Z"></path><path d="M54.81643,63.08216q0.80461-.7447,1.60921-1.48949L56.662,61.84952q-0.811.73784-1.62187,1.47576Z"></path><path d="M85.86493,37.249H84.02577V37.074h1.83916V37.249Z"></path><path d="M80.49474,33.09359q0.38034,0.67864.76064,1.35736l-0.3239.201q-0.4015-.64651-0.803-1.293Z"></path><path d="M59.15033,59.73512q-0.57435.49379-1.14875,0.98755L57.7027,60.385l1.1357-.9828Z"></path><path d="M75.49223,48.82879a1.15489,1.15489,0,0,1-.49433.15431,2.01838,2.01838,0,0,1-.38273-0.44866,1.0257,1.0257,0,0,1,.48518-0.25262A1.48723,1.48723,0,0,1,75.49223,48.82879Z"></path><path d="M76.54469,59.15583q-0.39093.18773-.782,0.37542l-0.15141-.425q0.40734-.12526.81455-0.25061Z"></path><path d="M64.733,62.266q0.3169-.27579.63394-0.55158l0.19173,0.19143q-0.26661.31613-.53315,0.63235Z"></path><path d="M57.99932,47.4441c-0.73711.26827-1.47422,0.53653-2.533,0.92187,0.96792-.991.96792-0.991,2.54853-0.90152Z"></path></g></svg>