<svg xmlns="http://www.w3.org/2000/svg" xmlns:xlink="http://www.w3.org/1999/xlink" version="1.1" x="0px" y="0px" viewBox="0 0 100 125" enable-background="new 0 0 100 100" xml:space="preserve"><path d="M59.775,13.954c0.084,0.146,0.137,0.296,0.094,0.425c0.228,0.108,0.357,0.032,0.409-0.187  C60.218,13.988,59.991,13.612,59.775,13.954z"></path><path d="M59.532,14.323c-0.343,0.375,0.388,0.515,0.203,0.061C59.668,14.364,59.6,14.343,59.532,14.323z"></path><path d="M68.514,23.592c0.114-0.199-0.041-0.482-0.313-0.58c-0.06,0.078-0.146,0.107-0.166,0.261  C68.194,23.367,68.328,23.622,68.514,23.592z"></path><path d="M66.445,23.416c0.136,0.074,0.249,0.16,0.211,0.328c0.503,0.22,0.585-0.327,0.637-0.649  c-0.055-0.016-0.108-0.032-0.163-0.049c0.109-0.479-0.376-0.311-0.567-0.169C66.572,23.035,66.61,23.185,66.445,23.416z"></path><path d="M67.488,23.772c0.053-0.154,0.296,0.045,0.315-0.17c-0.004-0.066-0.029-0.121-0.033-0.187  c-0.118-0.03-0.259-0.102-0.336-0.057C67.343,23.555,67.382,23.682,67.488,23.772z"></path><path d="M69.062,24.861c0.191-0.244-0.21-1.191-0.516-0.641C68.723,24.432,68.747,24.725,69.062,24.861z"></path><path d="M66.296,23.769c-0.054-0.039-0.085-0.091-0.139-0.13c-0.178,0.209-0.413,0.242-0.612,0.126  c-0.083,0.034-0.082,0.226-0.165,0.26c0.153,0.197,0.437,0.122,0.624,0.275C66.09,24.103,66.22,23.986,66.296,23.769z"></path><path d="M66.596,24.389c0.09,0.204,0.247,0.166,0.475,0.186C67.271,24.229,66.652,23.943,66.596,24.389z"></path><path d="M69.443,25.505c0.417-0.252-0.235-0.968-0.442-0.441C69.141,25.216,69.289,25.362,69.443,25.505z"></path><path d="M67.605,25c0.061,0.139,0.076,0.299,0.241,0.381c0.026-0.054,0.102-0.02,0.146-0.044C68.179,24.994,67.794,24.67,67.605,25z  "></path><path d="M67.119,24.854c-0.099,0.027-0.226,0.003-0.263,0.142c0.072,0.2,0.145,0.379,0.414,0.389  C67.25,25.193,67.313,24.955,67.119,24.854z"></path><path d="M68.705,25.903c0.094-0.33-0.234-0.851-0.494-0.413C68.32,25.655,68.398,25.95,68.705,25.903z"></path><path d="M68.941,25.708c0.021,0.222,0.095,0.535,0.431,0.482c0.01-0.209-0.092-0.359-0.099-0.56  C69.11,25.561,69.009,25.605,68.941,25.708z"></path><path d="M70.072,26.356c0.164-0.351-0.227-0.766-0.396-0.296C69.791,26.157,69.83,26.436,70.072,26.356z"></path><path d="M67.883,26.144c0.055,0.084,0.313,0.161,0.405,0.122c0.083-0.258-0.133-0.402-0.345-0.325  C67.923,26.008,67.902,26.076,67.883,26.144z"></path><path d="M67.404,26.265c0.021-0.157,0.044-0.342-0.017-0.535C66.858,25.474,66.953,26.267,67.404,26.265z"></path><path d="M70.406,27.163c0.185-0.066,0.117-0.311,0.092-0.458c-0.225-0.102-0.377-0.07-0.408,0.187  C70.278,26.937,70.202,27.125,70.406,27.163z"></path><path d="M68.982,27.047c0.059-0.058,0.159-0.042,0.21-0.114c-0.104-0.184-0.079-0.323-0.122-0.479  C68.477,26.232,68.785,26.911,68.982,27.047z"></path><path d="M69.777,27.196c0.212-0.336-0.269-0.638-0.368-0.243C69.488,27.095,69.562,27.208,69.777,27.196z"></path><path d="M70.775,27.848c0.119-0.083,0.151-0.189,0.097-0.324c-0.178-0.058-0.318-0.043-0.385,0.105  C70.479,27.758,70.608,27.813,70.775,27.848z"></path><path d="M68.631,28.223c0.396-0.588-0.123-0.976-0.245-1.398c-0.839,0.001-0.672,1.312,0.047,1.472  c-0.111,0.064-0.113,0.261-0.058,0.337c0.145,0.054,0.219-0.017,0.35,0.016C68.783,28.458,68.739,28.323,68.631,28.223z"></path><path d="M67.125,26.756c-0.009,0.133,0.005,0.086-0.061,0.203c0.175,0.053,0.09,0.247,0.264,0.299  c0.036-0.079,0.132-0.048,0.199-0.073C67.602,26.874,67.432,26.597,67.125,26.756z"></path><path d="M65.585,26.737c-0.136,0.216,0.04,0.592,0.349,0.458C66.082,26.803,65.811,26.689,65.585,26.737z"></path><path d="M70.938,28.78c0.09-0.097,0.178-0.201,0.149-0.353c-0.207-0.118-0.392-0.184-0.438,0.134  C70.793,28.609,70.753,28.756,70.938,28.78z"></path><path d="M69.714,28.149c-0.149,0.284,0.149,0.327,0.202,0.503C70.247,28.559,70.053,27.983,69.714,28.149z"></path><path d="M69.353,28.616c0.227-0.127,0.067-0.322,0.118-0.54C68.993,27.784,69.005,28.479,69.353,28.616z"></path><path d="M67.357,28.637c0.307-0.071,0.256-0.507,0.179-0.742C66.996,27.725,67.251,28.333,67.357,28.637z"></path><path d="M71.081,29.486c0.091-0.097,0.177-0.202,0.149-0.353C70.909,28.8,70.689,29.419,71.081,29.486z"></path><path d="M70.273,29.377c-0.398-0.042-0.3,0.39-0.077,0.551c0.081,0.023,0.086-0.095,0.188-0.032  C70.411,29.688,70.402,29.501,70.273,29.377z"></path><path d="M69.552,29.868c0.13-0.141,0.044-0.33,0.118-0.54c-0.138-0.078-0.236-0.142-0.391-0.028  C69.249,29.628,69.243,29.769,69.552,29.868z"></path><path d="M71.475,30.089c-0.134-0.156-0.224-0.154-0.417-0.081c-0.013,0.222,0.069,0.393,0.138,0.572  C71.449,30.486,71.385,30.278,71.475,30.089z"></path><path d="M67.232,28.909c-0.134,0.232-0.005,0.402,0.033,0.629c0.122,0.057,0.14-0.078,0.238-0.062  c0.058-0.201,0.02-0.35,0.024-0.523C67.397,28.878,67.354,28.968,67.232,28.909z"></path><path d="M70.173,30.451c-0.197-0.072-0.297,0.037-0.341,0.252c0.082,0.136,0.183,0.209,0.382,0.202  C70.337,30.769,70.272,30.568,70.173,30.451z"></path><path d="M66.366,29.887C66.981,29.152,65.479,29.34,66.366,29.887L66.366,29.887z"></path><path d="M68.763,31.178c0.414-0.633-0.247-1.006-0.584-0.705C67.828,30.787,68.36,31.419,68.763,31.178z"></path><path d="M71.297,31.715c0.123-0.046,0.191-0.191,0.243-0.369c-0.091-0.12-0.227-0.116-0.3-0.178  c-0.024,0.122-0.129,0.097-0.154,0.219C71.164,31.492,71.157,31.644,71.297,31.715z"></path><path d="M69.631,31.084c0.058-0.142,0.12-0.177,0.097-0.325c-0.178-0.077-0.31-0.069-0.401,0.013  C69.285,30.986,69.416,31.095,69.631,31.084z"></path><path d="M72.219,31.593c-0.136,0.194-0.05,0.342-0.119,0.539C72.931,32.735,73.109,31.548,72.219,31.593z"></path><path d="M70.445,31.461c0.15-0.305-0.341-0.408-0.405-0.122c0.055,0.084,0.081,0.184,0.248,0.207  C70.34,31.516,70.393,31.488,70.445,31.461z"></path><path d="M66.945,30.458c0.011,0.195,0.244,0.276,0.423,0.214c0.054-0.143-0.017-0.218,0.016-0.349  C67.196,30.292,67.005,30.253,66.945,30.458z"></path><path d="M64.951,30.48c0.069,0.288,0.467,0.294,0.688,0.206c0.086-0.156,0.179-0.438,0.061-0.645  C65.258,29.829,65.121,30.187,64.951,30.48z"></path><path d="M61.536,29.636c0.106-0.076,0.298-0.299,0.175-0.434c-0.196,0.037-0.434-0.004-0.487,0.296  C61.313,29.615,61.369,29.621,61.536,29.636z"></path><path d="M71.063,32.794C71.752,33.372,71.522,31.992,71.063,32.794L71.063,32.794z"></path><path d="M68.635,32.201c-0.102,0.353,0.579,0.695,0.754,0.137C69.276,32.072,68.738,31.832,68.635,32.201z"></path><path d="M70.054,33.067c0.249-0.16,0.266-0.4,0.275-0.625C69.824,32.167,69.868,32.935,70.054,33.067z"></path><path d="M72.167,33.831c0.262,0.078,0.312,0.03,0.486,0.146c0.168-0.146,0.247-0.622,0.004-0.75  c-0.243,0.011-0.387,0.208-0.552,0.366C72.104,33.684,72.152,33.749,72.167,33.831z"></path><path d="M65.73,31.862c0.05-0.226,0.093-0.316,0.093-0.458c-0.05-0.018-0.041-0.069-0.11-0.077  c-0.049,0.076-0.107,0.135-0.238,0.062C65.242,31.595,65.432,31.947,65.73,31.862z"></path><path d="M60.661,29.904c-0.295-0.063-0.605-0.156-0.677,0.195c0.042,0.034,0.078,0.071,0.096,0.117  C60.361,30.273,60.526,30.118,60.661,29.904z"></path><path d="M61.232,30.208c-0.02,0.067-0.04,0.135-0.061,0.203c0.087,0.234,0.474,0.218,0.426-0.094  C61.551,30.236,61.316,30.166,61.232,30.208z"></path><path d="M70.383,33.298c0.036,0.127,0.125,0.227,0.264,0.3c0.197-0.066,0.19-0.302,0.146-0.487  C70.604,33.079,70.419,33.05,70.383,33.298z"></path><path d="M71.084,33.463c-0.146,0.171-0.125,0.543,0.021,0.669C71.444,33.946,71.565,33.405,71.084,33.463z"></path><path d="M67.11,32.716c-0.19,0.386,0.249,0.618,0.426,0.348C67.554,32.764,67.341,32.558,67.11,32.716z"></path><path d="M59.721,30.683c-0.045-0.021-0.025-0.078-0.005-0.134c-0.112-0.106-0.296-0.133-0.416-0.08  c-0.068,0.138-0.012,0.21-0.005,0.308C59.454,30.81,59.584,30.821,59.721,30.683z"></path><path d="M60.066,31.008c0.156,0.125,0.33,0.217,0.441,0C60.518,30.745,60.098,30.679,60.066,31.008z"></path><path d="M68.003,33.425c-0.313-0.053-0.37,0.441-0.065,0.511c0.133-0.007,0.196-0.141,0.288-0.224  C67.995,33.777,68.193,33.477,68.003,33.425z"></path><path d="M69.662,34.231c-0.07,0.273,0.163,0.495,0.385,0.336C70.172,34.216,69.912,34.051,69.662,34.231z"></path><path d="M60.8,31.802c0.135,0.018,0.122,0.116,0.271,0.125c0.075-0.052,0.149-0.104,0.166-0.259  C61.096,31.449,60.75,31.489,60.8,31.802z"></path><path d="M59.449,31.441c0.079,0.014,0.076,0.073,0.15,0.09c0.095-0.036,0.207-0.038,0.234-0.195c-0.039-0.103-0.175-0.155-0.34-0.19  C59.463,31.254,59.409,31.373,59.449,31.441z"></path><path d="M70.882,34.729c0.017,0.218,0.031,0.437,0.232,0.556c0.005-0.118,0.107-0.054,0.157-0.086  c0.039-0.134-0.008-0.222,0.069-0.376C71.263,34.681,70.991,34.596,70.882,34.729z"></path><path d="M64.702,33.233c0.078-0.178-0.032-0.254-0.012-0.401c-0.234-0.119-0.333,0.015-0.382,0.239  C64.351,33.205,64.558,33.345,64.702,33.233z"></path><path d="M73.681,36.007c0.235-0.44-0.391-0.779-0.56-0.344C73.181,35.907,73.397,36.047,73.681,36.007z"></path><path d="M68.713,34.743c0.279-0.47-0.404-0.667-0.502-0.239c0.044,0.021,0.024,0.078,0.004,0.134  C68.33,34.73,68.602,34.836,68.713,34.743z"></path><path d="M69.541,35.079c0.139-0.138,0.187-0.306,0.093-0.458C69.022,34.354,69.074,35.231,69.541,35.079z"></path><path d="M60.456,32.361c0.024-0.164,0.132-0.176,0.149-0.353c-0.241-0.232-0.557,0.059-0.596,0.22  C60.116,32.359,60.287,32.415,60.456,32.361z"></path><path d="M74.537,36.396C74.678,37.341,75.325,36.023,74.537,36.396L74.537,36.396z"></path><path d="M62.079,33.289c0.253-0.241,0.187-0.536-0.114-0.653c-0.062,0.075-0.16,0.083-0.194,0.207  C61.816,33.022,61.944,33.157,62.079,33.289z"></path><path d="M63.085,33.324c-0.024-0.249-0.397-0.415-0.5-0.105c0.098,0.118,0.132,0.27,0.346,0.324  C62.949,33.41,63.082,33.489,63.085,33.324z"></path><path d="M64.954,34.016c-0.138,0.488,0.355,0.829,0.629,0.41c-0.092-0.121,0.036-0.36-0.029-0.496  C65.259,33.781,65.133,33.948,64.954,34.016z"></path><path d="M59.904,32.727c0.1,0.083,0.236,0.125,0.365,0.109c0.014-0.08,0.072-0.076,0.09-0.15  C60.293,32.402,59.868,32.391,59.904,32.727z"></path><path d="M71.714,39.765c0.02,0.137,0.041,0.29,0.102,0.434c0.032,0.076,0.078,0.15,0.142,0.213c0.063,0.063,0.146,0.113,0.244,0.143  c0.035,0.01,0.071,0.018,0.11,0.023l-0.001,0.012c-0.092,0.104-0.146,0.276-0.068,0.377c0.341,0.066,0.656-0.422,0.858-0.804  c0.491-0.924,0.619-2.133,0.577-2.964c-0.149-0.009-0.138-0.107-0.271-0.125c-0.431,0.452-0.258,1.194-0.412,1.821  c-0.127,0.513-0.405,0.934-0.6,1.411l-0.04-0.012l-0.002,0.013c-0.001,0-0.002-0.001-0.003-0.001  c-0.027-0.003-0.051-0.008-0.071-0.015c-0.058-0.017-0.097-0.042-0.129-0.074c-0.049-0.048-0.084-0.119-0.111-0.209  c-0.02-0.067-0.031-0.143-0.044-0.221l0.022,0.009c0.539-1.107,0.774-2.03,0.772-3.171c-0.135-0.183-0.291-0.329-0.487-0.146  c-0.014,1.095-0.541,2.131-0.634,3.301L71.714,39.765z"></path><path d="M67.862,35.372c-0.132,0.375-0.067,0.577-0.157,0.969c-0.118,0.514-0.718,1.614-0.145,1.812  c0.287,0.1,0.684-0.493,0.782-0.694c0.378-0.774-0.306-1.258,0.168-1.894C68.519,35.27,68.025,35.151,67.862,35.372z"></path><path d="M60.403,33.273c0.093,0.167,0.215,0.11,0.475,0.187C61.071,33.112,60.449,32.835,60.403,33.273z"></path><path d="M62.537,33.823c-0.161,0.059-0.113,0.219-0.161,0.394c0.218,0.135,0.301,0.041,0.437-0.134  C62.695,34.01,62.776,33.83,62.537,33.823z"></path><path d="M71.03,36.452c-0.108-0.125-0.248-0.166-0.406-0.121c-0.094,0.299-0.025,0.513,0.05,0.722  C70.761,36.792,71.007,36.83,71.03,36.452z"></path><path d="M74.645,38.106c0.197-0.16,0.276-0.389-0.111-0.519C74.271,37.756,74.422,38.09,74.645,38.106z"></path><path d="M69.412,36.542c0.089,0.212,0.291,0.191,0.486,0.146C70.096,36.233,69.488,36.04,69.412,36.542z"></path><path d="M58.685,33.555c0.029,0.107,0.271,0.211,0.394,0.162c0.021-0.068,0.041-0.135,0.061-0.203  c-0.058-0.082-0.269-0.083-0.3-0.179c0.014-0.103,0.101-0.065,0.101-0.19c-0.348-0.099-0.552,0.068-0.656,0.422  C58.453,33.694,58.549,33.634,58.685,33.555z"></path><path d="M61.508,34.311c0.155-0.173-0.309-0.338-0.588-0.397C60.464,34.326,61.325,34.515,61.508,34.311z"></path><path d="M69.352,37.187c0.043-0.132,0.162-0.121,0.179-0.3c-0.161-0.385-0.813-0.223-0.557,0.231  C69.133,37.2,69.202,37.119,69.352,37.187z"></path><path d="M62.271,35.158c0.124-0.001,0.184-0.123,0.247-0.235C62.321,34.449,61.788,34.965,62.271,35.158z"></path><path d="M59.31,34.272c0.161,0.208,0.497,0.167,0.544-0.191C59.553,33.951,59.283,33.974,59.31,34.272z"></path><path d="M60.304,34.348c-0.104,0.128-0.109,0.079-0.179,0.3c0.122,0.238,0.52,0.2,0.532-0.151  C60.523,34.456,60.476,34.369,60.304,34.348z"></path><path d="M57.891,34.29c0.096,0.074,0.234,0.123,0.394,0.162c0.14-0.255-0.195-0.402-0.373-0.376  C57.844,34.179,57.938,34.196,57.891,34.29z"></path><path d="M63.188,36.227c0.069-0.102,0.195-0.102,0.248-0.235C63.355,35.374,62.62,35.994,63.188,36.227z"></path><path d="M58.868,34.714c0.052-0.187-0.157-0.232-0.305-0.312c-0.04,0.092-0.108,0.133-0.125,0.271  c0.107,0.092,0.308,0.153,0.417,0.081C58.833,34.748,58.82,34.708,58.868,34.714z"></path><path d="M60.418,35.443c0.176,0.16,0.51,0.237,0.629-0.033C60.97,35.206,60.415,34.974,60.418,35.443z"></path><path d="M65.26,36.538c-0.044,0.127-0.145,0.151-0.178,0.3c0.143,0.048,0.103,0.194,0.288,0.219  c0.089-0.044,0.185-0.079,0.206-0.248C65.5,36.703,65.501,36.555,65.26,36.538z"></path><path d="M66.258,37.189c0.166,0.07,0.171,0.226,0.41,0.255c0.131-0.104,0.096-0.354,0.053-0.471  C66.411,36.832,66.31,37.006,66.258,37.189z"></path><path d="M61.919,36.333c0.098-0.05,0.193-0.104,0.219-0.288C61.911,35.56,61.381,36.094,61.919,36.333z"></path><path d="M73.888,39.604c-0.145,0.315,0.127,0.407,0.22,0.596c0.059-0.054,0.135-0.062,0.174,0.008  C74.408,39.949,74.298,39.55,73.888,39.604z"></path><path d="M69.045,38.509c-0.452-0.716-0.876,0.573-0.692,0.986c0.196,0.09,0.32,0.047,0.441,0  C68.933,39.062,68.927,38.917,69.045,38.509z"></path><path d="M70.03,38.759c-0.028,0.176-0.028,0.415,0.139,0.572c0.171-0.018,0.216-0.273,0.279-0.491  C70.354,38.697,70.146,38.749,70.03,38.759z"></path><path d="M59.016,35.554c-0.034,0.042-0.07,0.079-0.118,0.097c-0.097,0.154,0.039,0.184-0.003,0.308  c0.183,0.087,0.292,0.038,0.458,0.093c-0.035,0.099-0.064,0.193-0.032,0.256c0.148,0.079,0.197,0.104,0.336,0.056  c0.11-0.271-0.09-0.285,0.013-0.482C59.48,35.699,59.344,35.594,59.016,35.554z"></path><path d="M57.458,35.441c0.173-0.202-0.022-0.299-0.187-0.409c-0.058,0.061-0.145,0.069-0.154,0.219  C57.208,35.375,57.278,35.437,57.458,35.441z"></path><path d="M60.772,37.36c-0.163,0.046-0.002,0.203-0.045,0.296c0.188,0.117,0.239-0.019,0.39,0.028  c-0.932,2.756-2.074,5.437-2.867,8.112c0.071,0.097,0.196,0.166,0.381,0.202c0.283-0.227,0.313-0.657,0.425-0.978  c0.673-1.927,1.476-3.953,2.172-5.934c0.282-0.8,0.635-1.623,0.574-2.215c-0.447-0.432-0.478,0.474-0.624,0.609  C61.114,37.4,60.834,37.137,60.772,37.36z"></path><path d="M60.69,36.895c0.129,0.291,0.448,0.142,0.467-0.082C61,36.628,60.761,36.599,60.69,36.895z"></path><path d="M57.626,36.065c0.151,0.333,0.584,0.207,0.582-0.179C57.911,35.756,57.747,35.871,57.626,36.065z"></path><path d="M56.648,36.083c-0.006,0.169-0.071,0.161-0.046,0.295c0.253,0.176,0.462-0.057,0.608-0.26  C57.053,35.896,56.836,36.026,56.648,36.083z"></path><path d="M70.097,40.017c-0.068,0.043-0.174,0.015-0.239,0.061c-0.109,0.24,0.016,0.354,0.069,0.507  C70.051,40.466,70.278,40.171,70.097,40.017z"></path><path d="M59.454,37.187c0.058,0.111,0.255,0.291,0.395,0.163c0-0.056,0.032-0.217-0.038-0.321  C59.603,36.915,59.531,37.056,59.454,37.187z"></path><path d="M63.51,38.4c-0.128-0.216-0.62-0.352-0.692,0.102C62.979,38.819,63.354,38.634,63.51,38.4z"></path><path d="M68.981,40.345c0.057,0.258,0.219,0.264,0.491,0.28C69.841,40.212,69.129,39.894,68.981,40.345z"></path><path d="M67.862,40.099c0.013-0.281-0.46-0.681-0.693-0.34c0.023,0.1,0.064,0.192,0.09,0.292  C67.543,40.082,67.701,40.264,67.862,40.099z"></path><path d="M73.256,42.154c0.13-0.013,0.193-0.149,0.261-0.276c-0.102-0.082-0.104-0.215-0.329-0.23  C72.965,41.769,73.039,42.071,73.256,42.154z"></path><path d="M68.191,41.214c0.163-0.354,0.379-1.052-0.179-1.025C67.632,40.377,67.457,41.376,68.191,41.214z"></path><path d="M60.81,38.123c-0.244-0.347-0.627-0.035-0.864-0.214c-0.058,0.145-0.21,0.116-0.231,0.329  c0.134,0.229,0.309,0.129,0.504,0.239C60.35,38.248,60.851,38.472,60.81,38.123z"></path><path d="M58.113,37.979c0.288,0.072,0.527,0.053,0.608-0.261c-0.081-0.07-0.09-0.179-0.248-0.206  c-0.052,0.176-0.241,0.098-0.357,0.158C58.05,37.81,58.105,37.881,58.113,37.979z"></path><path d="M58.977,37.751c-0.099,0.167,0.059,0.194,0.037,0.32c0.204,0.123,0.447-0.009,0.368-0.199  C59.333,37.924,59.129,37.65,58.977,37.751z"></path><path d="M71.724,41.961c0.06-0.134,0.053-0.232,0.058-0.337c-0.239-0.168-0.425-0.093-0.411,0.187  C71.468,41.902,71.572,41.989,71.724,41.961z"></path><path d="M57.087,37.274c-0.193-0.097-0.373-0.201-0.426,0.094c0.061,0.08,0.131,0.156,0.247,0.207  C56.98,37.5,57.062,37.44,57.087,37.274z"></path><path d="M72.84,42.516c-0.025-0.133,0.075-0.207,0.072-0.243C72.844,41.641,71.941,42.495,72.84,42.516z"></path><path d="M69.481,41.335c-0.097,0.233-0.067,0.399,0.069,0.507c0.11-0.11,0.245-0.178,0.323-0.345  C69.835,41.369,69.62,41.316,69.481,41.335z"></path><path d="M68.747,41.424c0.08,0.201,0.089,0.258,0.346,0.324C69.493,41.484,68.945,40.927,68.747,41.424z"></path><path d="M72.978,43.087c0.339-0.375-0.148-0.754-0.316-0.271C72.698,42.943,72.749,43.064,72.978,43.087z"></path><path d="M59.189,38.963c0.083-0.114,0.031-0.09,0.072-0.243c-0.127-0.034-0.18-0.108-0.26-0.166c-0.089,0.044-0.152,0.139-0.178,0.3  C58.871,38.935,59.104,39.004,59.189,38.963z"></path><path d="M60.336,39.262c-0.046-0.021-0.024-0.077-0.004-0.134c-0.174-0.166-0.441-0.265-0.479,0.123  C59.988,39.436,60.199,39.391,60.336,39.262z"></path><path d="M57.519,38.641c0.02-0.068,0.04-0.135,0.061-0.203c-0.078-0.072-0.185-0.128-0.248-0.207  c-0.174,0.049-0.12,0.148-0.219,0.288C57.239,38.634,57.358,38.685,57.519,38.641z"></path><path d="M58.297,38.697c-0.16-0.134-0.39-0.273-0.426,0.094C58.009,38.936,58.252,39.029,58.297,38.697z"></path><path d="M61.94,43.498c-0.025,0.294-0.141,0.619-0.186,0.917c-0.034,0.235-0.172,0.642,0.119,0.786  c0.358-0.33,0.528-0.952,0.611-1.451c0.082-0.501-0.13-0.99-0.022-1.554c0.13-0.681,0.539-1.157,0.716-1.95  c-0.021-0.101-0.376-0.293-0.417-0.081c-0.31,0.684-0.786,1.397-0.883,2.21C61.838,42.723,61.975,43.125,61.94,43.498z"></path><path d="M64.349,40.771c-0.183,0.298-0.049,0.482,0.295,0.486c0.155-0.227,0.058-0.324-0.028-0.495  C64.492,40.705,64.486,40.86,64.349,40.771z"></path><path d="M72.743,43.724c0.196-0.497-0.574-0.488-0.39-0.028C72.506,43.791,72.627,43.833,72.743,43.724z"></path><path d="M59.039,39.758c0.113,0.111,0.186,0.033,0.365,0.109C59.668,39.404,58.943,39.381,59.039,39.758z"></path><path d="M58.127,39.706c0.027-0.117,0.16-0.038,0.153-0.219c-0.102-0.134-0.171-0.074-0.247-0.207  c-0.062,0.074-0.159,0.083-0.194,0.207C57.916,39.57,57.924,39.69,58.127,39.706z"></path><path d="M56.484,39.436c0.062-0.16,0.191-0.32,0.105-0.499c-0.247-0.059-0.431,0.196-0.43,0.401  C56.278,39.468,56.329,39.457,56.484,39.436z"></path><path d="M71.583,43.466c-0.586,0.018-0.698,0.92-0.206,1.131C72.169,44.936,72.498,43.438,71.583,43.466z"></path><path d="M69.275,42.908c-0.146-0.128-0.213-0.148-0.404-0.121c-0.048,0.207,0.032,0.345,0.068,0.507  C69.222,43.341,69.201,43.195,69.275,42.908z"></path><path d="M72.694,44.329c0.214-0.003,0.175,0.05,0.406,0.121c0.02-0.07,0.062-0.095,0.117-0.097c0.024-0.138-0.064-0.215-0.077-0.333  C72.808,43.882,72.673,44.128,72.694,44.329z"></path><path d="M66.169,42.951c0.167-0.04,0.291-0.054,0.328-0.211C66.625,42.219,65.582,42.466,66.169,42.951z"></path><path d="M57.275,39.893c-0.217-0.076-0.248-0.097-0.394-0.162c-0.128,0.04-0.18,0.254-0.162,0.394  C57.015,40.251,57.172,40.121,57.275,39.893z"></path><path d="M58.257,40.452c0.021,0.405,0.526,0.292,0.629-0.032C58.688,40.303,58.396,40.285,58.257,40.452z"></path><path d="M69.321,43.496c-0.159-0.061-0.299-0.091-0.39-0.027c-0.069,0.224-0.059,0.415,0.296,0.486  C69.382,43.811,69.295,43.666,69.321,43.496z"></path><path d="M72.46,44.965c0.135,0.036,0.363,0.045,0.45-0.174C72.817,44.424,72.166,44.637,72.46,44.965z"></path><path d="M62.782,45.119c0.124,0.105,0.188,0.032,0.312,0.138c0.479-0.932,0.764-2.425,0.512-3.337  c-0.054,0.088-0.248-0.081-0.308-0.003C63.048,42.98,62.948,44.13,62.782,45.119z"></path><path d="M59.011,41.031c0.1,0.304,0.479,0.14,0.438-0.134C59.296,40.707,59.065,40.835,59.011,41.031z"></path><path d="M56.943,40.854c0.08,0.014,0.076,0.073,0.151,0.089c0.501,0.026,0.598-0.842-0.034-0.629  C57.008,40.503,56.925,40.706,56.943,40.854z"></path><path d="M55.982,40.523c0.065,0.055,0.128,0.112,0.22,0.154c0.164-0.052,0.303-0.153,0.405-0.32  C56.455,40.103,56.02,40.171,55.982,40.523z"></path><path d="M68.449,44.34c0.123,0.025,0.098,0.129,0.219,0.154c0.112-0.108,0.159-0.145,0.208-0.248  C68.761,44.041,68.399,44.056,68.449,44.34z"></path><path d="M58.943,41.85C58.031,41.369,58.579,42.79,58.943,41.85L58.943,41.85z"></path><path d="M68.236,45.646c0.482-0.128,0.092-0.715-0.184-0.275C68.066,45.488,68.136,45.575,68.236,45.646z"></path><path d="M56.261,42.55c0.27,0.102,0.375-0.103,0.599-0.086c0.078-0.179,0.004-0.274,0.094-0.458  c-0.183-0.239-0.361-0.196-0.593-0.089C56.412,42.194,56.045,42.329,56.261,42.55z"></path><path d="M57.83,42.18c-0.032,0.107-0.086,0.227-0.046,0.295c0.101,0.125,0.372,0.13,0.472,0.053  C58.34,42.286,58.058,42.149,57.83,42.18z"></path><path d="M55.826,41.934C55.365,41.291,55.351,42.562,55.826,41.934L55.826,41.934z"></path><path d="M58.696,42.969c-0.227-0.085-0.421-0.107-0.449,0.175c0.097,0.097,0.233,0.191,0.394,0.162  C58.7,43.172,58.692,43.074,58.696,42.969z"></path><path d="M69.555,46.703c-0.073,0.054-0.187,0.033-0.251,0.102c-0.139,0.308,0.206,0.514,0.47,0.494  c0.136-0.029-0.027-0.214,0.114-0.231c0.034,0.151,0.173,0.247,0.396,0.295c0.226-0.154,0.163-0.625-0.26-0.608  c-0.101,0.044-0.166,0.153-0.246,0.236C69.781,46.853,69.672,46.776,69.555,46.703z"></path><path d="M66.391,45.757c-0.156-0.146-0.362-0.058-0.522-0.024C65.636,46.351,66.438,46.186,66.391,45.757z"></path><path d="M67.859,46.903c0.122-0.067,0.231-0.159,0.284-0.357c-0.091-0.16-0.283-0.156-0.418-0.081  C67.729,46.634,67.644,46.851,67.859,46.903z"></path><path d="M70.391,47.748c0.123,0.084,0.143,0.029,0.271,0.125c0.078-0.276,0.426-0.051,0.641-0.073  c0.305-0.597-0.563-0.343-0.88-0.308C70.356,47.608,70.457,47.633,70.391,47.748z"></path><path d="M56.477,43.454c0.198,0.379,0.566,0.054,0.444-0.309C56.746,43.199,56.514,43.145,56.477,43.454z"></path><path d="M67.356,47.106c0.032-0.047,0.077-0.068,0.147-0.045c0.142-0.254-0.02-0.913-0.407-0.563  C67.092,46.75,67.159,46.963,67.356,47.106z"></path><path d="M71.511,48.437c0.132,0.056,0.123-0.149,0.251-0.102c-0.009-0.176-0.036-0.343-0.176-0.45  c-0.074,0.051-0.145,0.109-0.25,0.102C71.3,48.188,71.337,48.349,71.511,48.437z"></path><path d="M55.353,43.516c0.078,0.048,0.086,0.135,0.219,0.154C55.949,43.45,55.438,42.867,55.353,43.516z"></path><path d="M56.711,44.143c0.328,0.246,0.34-0.27,0.52-0.11C57.271,43.737,56.61,43.788,56.711,44.143z"></path><path d="M70.473,48.214c0.064,0.124,0.035,0.149,0.113,0.211C71.122,48.851,71.067,47.56,70.473,48.214z"></path><path d="M64.231,46.922c0.14-0.177-0.016-0.399-0.203-0.503c-0.172,0.053-0.209,0.109-0.231,0.329  C63.883,46.833,64.079,46.979,64.231,46.922z"></path><path d="M55.479,44.569c0.081-0.102,0.222-0.094,0.231-0.328c-0.119-0.24-0.341-0.186-0.454,0.041  C55.288,44.401,55.358,44.5,55.479,44.569z"></path><path d="M71.182,49.09c-0.066,0.116,0.088,0.111,0.021,0.227c0.206,0.026,0.444,0.11,0.49-0.162  c-0.028-0.019-0.037-0.048-0.017-0.093C71.525,48.923,71.266,48.915,71.182,49.09z"></path><path d="M69.832,48.73c0.003-0.17-0.283-0.1-0.378-0.069c-0.1,0.225-0.039,0.361,0.029,0.495c0.048-0.025,0.122,0.029,0.256,0.032  c0.097-0.474,0.519,0.007,0.741-0.264C70.439,48.643,70.027,48.515,69.832,48.73z"></path><path d="M57.669,45.225c-0.021,0.194,0.186,0.263,0.333,0.365c0.149-0.117,0.184-0.312,0.093-0.458  C57.898,45.062,57.752,45.083,57.669,45.225z"></path><path d="M55.771,44.922c-0.073,0.13-0.005,0.185,0.009,0.268c0.098,0.015,0.153,0.053,0.191,0.102  c0.083-0.088,0.278-0.195,0.202-0.381c-0.108-0.032-0.228-0.085-0.296-0.045c-0.001-0.129,0-0.135,0.072-0.243  c-0.098-0.233-0.304,0-0.454,0.041C55.456,44.815,55.605,44.987,55.771,44.922z"></path><path d="M70.696,49.386c0.035,0.299,0.453,0.546,0.556,0.21C71.323,49.362,70.929,49.025,70.696,49.386z"></path><path d="M67.135,48.144c-0.375-0.017-0.258,0.464-0.047,0.605C67.164,48.534,67.415,48.32,67.135,48.144z"></path><path d="M68.807,49.351c0.35-0.172-0.099-0.698-0.305-0.312C68.506,49.196,68.652,49.276,68.807,49.351z"></path><path d="M56.579,45.916c-0.013,0.04-0.024,0.081-0.036,0.122c0.041,0.034,0.079,0.07,0.098,0.117  c0.193,0.064,0.246-0.132,0.482,0.012C57.612,45.721,56.776,45.625,56.579,45.916z"></path><path d="M61.224,47.083C60.206,47.212,61.71,48.079,61.224,47.083L61.224,47.083z"></path><path d="M58.052,46.753c0.115,0.067,0.111-0.088,0.227-0.021c0.067-0.161,0.04-0.271,0.028-0.389  C57.997,46.192,57.941,46.612,58.052,46.753z"></path><path d="M55.513,46.082c0.197-0.033,0.284-0.262,0.175-0.434c-0.114,0.083-0.292,0.047-0.341,0.251  C55.396,45.964,55.392,46.057,55.513,46.082z"></path><path d="M69.938,49.999c-0.055,0.129-0.24,0.018-0.275,0.183C69.767,50.692,70.387,50.22,69.938,49.999z"></path><path d="M70.912,50.29c-0.305-0.174-0.519,0.087-0.405,0.321c0.13-0.001,0.136,0.001,0.242,0.073  c0.048-0.104,0.145-0.112,0.195-0.207C70.945,50.408,70.827,50.404,70.912,50.29z"></path><path d="M57.585,46.393c-0.152,0.012-0.329-0.023-0.426,0.094c0.061,0.029,0.002,0.097-0.036,0.122  c0.068,0.187,0.335,0.163,0.431,0.04C57.465,46.616,57.587,46.471,57.585,46.393z"></path><path d="M68.961,50.016c0.043,0.265,0.395,0.4,0.482,0.012C69.324,49.885,69.042,49.888,68.961,50.016z"></path><path d="M66.337,49.629c-0.079,0.236,0.056,0.355,0.216,0.462C66.856,49.837,66.725,49.46,66.337,49.629z"></path><path d="M55.64,46.694c0.005,0.1,0.11,0.144,0.153,0.223c0.198-0.085,0.218-0.165,0.296-0.397c-0.186-0.114-0.21,0.073-0.36,0.024  c0.039-0.089,0.035-0.155-0.033-0.186c-0.138,0.06-0.36-0.037-0.409,0.187C55.386,46.643,55.479,46.813,55.64,46.694z"></path><path d="M68.099,50.686c0.216,0.142,0.268,0.059,0.498,0.105c0.049-0.208-0.102-0.309-0.122-0.479  C68.126,50.109,68.036,50.461,68.099,50.686z"></path><path d="M70.042,51.134c0.142,0.072,0.256,0.178,0.392,0.162c0.097-0.106,0.074-0.208,0.058-0.336  c-0.14-0.016-0.181-0.084-0.272-0.125C70.137,50.995,70.023,50.912,70.042,51.134z"></path><path d="M54.894,47.709c0.168-0.37,0.15-0.83,0.271-1.2c-0.14-0.101-0.195-0.168-0.394-0.162  C54.49,46.701,54.189,47.882,54.894,47.709z"></path><path d="M69.883,51.219c0.014-0.182,0.04-0.173,0.016-0.349c-0.235-0.158-0.416-0.021-0.421,0.228  C69.608,51.199,69.719,51.3,69.883,51.219z"></path><path d="M57.313,47.151c-0.136-0.044-0.237-0.019-0.319,0.037c-0.059,0.121,0.01,0.175,0.008,0.267  c0.067,0.02,0.135,0.041,0.202,0.061C57.31,47.456,57.316,47.256,57.313,47.151z"></path><path d="M57.529,47.613c-0.04,0.135,0.09,0.177,0.037,0.32c0.146,0.042,0.227-0.042,0.36-0.024  C58.028,47.567,57.725,47.394,57.529,47.613z"></path><path d="M56.564,47.59c0.101-0.126,0.128-0.203,0.178-0.301C56.464,46.952,56.067,47.531,56.564,47.59z"></path><path d="M53.892,46.923c0.104-0.111,0.085-0.213,0.109-0.365C53.572,46.054,53.144,47.013,53.892,46.923z"></path><path d="M70.211,51.451c0.005-0.026,0.009-0.05-0.028-0.053c-0.024,0.121-0.118,0.117-0.182,0.166  c0.06,0.058,0.031,0.165,0.061,0.239c0.255,0.091,0.428-0.002,0.421-0.228C70.422,51.499,70.245,51.52,70.211,51.451z"></path><path d="M55.502,47.891c0.127,0.065,0.103,0.16,0.272,0.125c0.036-0.122,0.072-0.243,0.109-0.365  C55.671,47.572,55.548,47.661,55.502,47.891z"></path><path d="M68.639,51.687c0.033-0.179-0.424-0.499-0.608-0.182C67.958,51.842,68.604,51.866,68.639,51.687z"></path><path d="M56.521,48.328c0.069,0.114,0.286,0.218,0.404,0.121c0.029-0.117-0.022-0.191,0.005-0.308  C56.76,48.032,56.57,48.053,56.521,48.328z"></path><path d="M66.128,51.511c0.051-0.182,0.185-0.205,0.215-0.422C66.05,50.701,65.771,51.35,66.128,51.511z"></path><path d="M57.198,49.016c0.267,0.17,0.502-0.284,0.227-0.462C57.229,48.546,57.108,48.843,57.198,49.016z"></path><path d="M55.386,48.43c0.153,0.353,0.731,0.016,0.555-0.232c-0.153,0.033-0.356-0.032-0.494,0.029  C55.426,48.295,55.405,48.362,55.386,48.43z"></path><path d="M69.637,52.781c0.024,0.054,0.146,0.057,0.085,0.158c0.1,0.016,0.171-0.019,0.296,0.044  c0.084-0.149,0.125-0.238,0.069-0.377C69.845,52.494,69.702,52.567,69.637,52.781z"></path><path d="M56.285,48.522c-0.088,0.048-0.235-0.016-0.32,0.037c-0.131,0.252,0.028,0.349,0.279,0.393  C56.266,48.806,56.421,48.585,56.285,48.522z"></path><path d="M58.517,49.632c0.029,0.209,0.336,0.537,0.515,0.198c-0.057-0.06-0.051-0.154-0.061-0.239  C58.772,49.519,58.627,49.543,58.517,49.632z"></path><path d="M56.437,49.054c-0.099,0.166,0.008,0.222-0.017,0.349C56.956,49.631,56.9,48.836,56.437,49.054z"></path><path d="M69.426,52.895c-0.142-0.073-0.195,0.017-0.336-0.056c-0.226,0.271,0.022,0.482,0.13,0.745  c0.095-0.034,0.204-0.041,0.32-0.036c0.051-0.172,0.154-0.238,0.068-0.377C69.518,53.228,69.42,53.002,69.426,52.895z"></path><path d="M53.277,48.241c-0.217,0.459,0.345,0.332,0.341,0.632c0.158,0.062,0.297,0.088,0.359-0.025  c-0.056-0.125-0.092-0.297-0.274-0.259C53.857,48.394,53.527,48.052,53.277,48.241z"></path><path d="M60.747,50.741c0.021-0.279-0.193-0.589-0.494-0.413c-0.03,0.095,0.033,0.14-0.033,0.255  C60.299,50.726,60.603,50.816,60.747,50.741z"></path><path d="M68.08,52.669c-0.059,0.144-0.023,0.238-0.017,0.348c0.124,0.117,0.321,0.126,0.458,0.093  C68.737,52.761,68.318,52.569,68.08,52.669z"></path><path d="M65.654,52.208c-0.03,0.22-0.174,0.502-0.008,0.616C65.971,52.783,66.145,52.024,65.654,52.208z"></path><path d="M55.544,49.229c-0.236-0.057-0.418,0.021-0.394,0.279c0.197,0.036,0.126,0.142,0.171,0.316  c0.446,0.466,0.616-0.305,0.19-0.341C55.546,49.385,55.577,49.29,55.544,49.229z"></path><path d="M56.939,50.176c0.296-0.003,0.436-0.487-0.017-0.535C56.758,49.795,56.746,50.049,56.939,50.176z"></path><path d="M55.999,50.072c-0.092,0.22-0.048,0.366,0.186,0.409c0.023-0.042,0.064-0.049,0.106-0.056  C56.414,50.129,56.248,49.995,55.999,50.072z"></path><path d="M53.334,49.672c-0.019,0.159,0.2,0.209,0.341,0.19c0.115-0.209-0.077-0.253-0.158-0.356  C53.514,49.67,53.346,49.525,53.334,49.672z"></path><path d="M60.043,52.209c0.145,0.015,0.278,0.012,0.373-0.065c-0.054-0.152,0.041-0.386-0.069-0.507  C60.164,51.754,59.855,51.934,60.043,52.209z"></path><path d="M68.288,54.189c-0.21-0.18-0.523-0.057-0.625,0.167c-0.014,0.086,0.087,0.113,0.073,0.199  c0.267,0.051,0.43-0.086,0.567-0.272C68.274,54.264,68.267,54.234,68.288,54.189z"></path><path d="M65.002,53.648c0.077,0.163,0.047,0.383,0.31,0.445c0.102-0.183,0.08-0.221,0.161-0.394  C65.36,53.555,65.125,53.501,65.002,53.648z"></path><path d="M55.928,51.199c0.018-0.048,0.039-0.092,0.104-0.057c0.02-0.134,0.023-0.262-0.078-0.332  c-0.084,0.075-0.273-0.046-0.304,0.13C55.677,51.062,55.724,51.172,55.928,51.199z"></path><path d="M52.162,49.896c-0.076,0.188-0.066,0.331,0.001,0.442C52.699,50.663,52.811,49.594,52.162,49.896z"></path><path d="M55.452,51.013c-0.151-0.071-0.245-0.036-0.35-0.016c0.049-0.128-0.02-0.193,0.058-0.337  c-0.246-0.028-0.438,0.138-0.43,0.402c0.142-0.01,0.171,0.079,0.336,0.057c-0.067,0.104,0.026,0.122-0.02,0.215  C55.333,51.468,55.461,51.252,55.452,51.013z"></path><path d="M60.38,53.15c0.079-0.043,0.124-0.15,0.223-0.155c0.084-0.457-0.668-0.465-0.493,0.029  C60.259,53.033,60.246,53.131,60.38,53.15z"></path><path d="M66.532,54.592c-0.329-0.286-0.675-0.164-0.515,0.244c0.243,0.072,0.46,0.097,0.531-0.15  C66.521,54.667,66.511,54.637,66.532,54.592z"></path><path d="M52.894,50.998c0.233,0.103,0.364-0.126,0.354-0.291c-0.035-0.062-0.131-0.089-0.232-0.114  C52.889,50.671,52.926,50.868,52.894,50.998z"></path><path d="M62.229,53.614c0.001,0.324,0.375,0.418,0.475,0.186C62.813,53.544,62.437,53.264,62.229,53.614z"></path><path d="M56.382,52.042c0.229-0.542-0.604-0.447-0.361,0.025C56.177,52.125,56.216,51.965,56.382,52.042z"></path><path d="M55.311,52.075c0.438-0.179-0.007-0.754-0.223-0.288C55.082,51.927,55.262,51.966,55.311,52.075z"></path><path d="M57.169,52.365c-0.09,0.173,0.034,0.231,0.024,0.361c0.236,0.124,0.342,0.002,0.467-0.082  c0.013-0.167-0.118-0.255-0.2-0.369C57.354,52.29,57.248,52.304,57.169,52.365z"></path><path d="M53.053,51.355c-0.142,0.303-0.047,0.479,0.283,0.526c0.08-0.083,0.16-0.167,0.22-0.288  C53.462,51.419,53.295,51.288,53.053,51.355z"></path><path d="M52.518,51.814c0.176,0.123,0.336,0.045,0.409-0.188C52.783,51.372,52.446,51.488,52.518,51.814z"></path><path d="M65.54,55.842c0.297,0.116,0.516-0.205,0.349-0.426c-0.119,0.058-0.139-0.061-0.297-0.044  C65.419,55.494,65.419,55.704,65.54,55.842z"></path><path d="M51.358,52.439c0.431,0.17,0.635-0.361,0.79-0.868C51.722,50.67,50.861,52.243,51.358,52.439z"></path><path d="M55.948,52.751c-0.156-0.383-0.629,0.078-0.299,0.264C55.784,52.994,55.903,52.942,55.948,52.751z"></path><path d="M54.492,60.579c0.644-0.384,1.013-1.078,1.474-1.68c0.229-0.301,0.483-0.579,0.708-0.893c0.237-0.33,0.42-0.723,0.665-1.039  c0.527-0.684,1.348-1.087,1.818-1.755c0.009-0.01,0.02-0.018,0.026-0.03l0,0c0.092-0.159,0.212-0.312,0.338-0.476  c0.123-0.164,0.252-0.339,0.351-0.546c0.048-0.102,0.005-0.223-0.098-0.271c-0.101-0.048-0.222-0.004-0.27,0.097  c-0.077,0.163-0.187,0.315-0.309,0.474c-0.108,0.143-0.223,0.294-0.328,0.462c-0.284,0.291-0.646,0.536-0.992,0.836  c-0.303,0.264-0.715,0.584-0.976,0.901c-0.238,0.29-0.409,0.677-0.652,0.998c-0.475,0.626-0.935,1.198-1.39,1.838  C54.653,59.787,54.306,60.213,54.492,60.579z"></path><path d="M61.789,55.382c0.198,0.095,0.328,0.062,0.442,0C62.377,54.887,61.601,54.88,61.789,55.382z"></path><path d="M51.761,52.869c-0.392,0.468-1.175,1.072-0.813,1.833c0.415-0.112,0.701-0.464,0.991-0.808  c0.127,0.102,0.101,0.183,0.302,0.178c0.082-0.108,0.312-0.4,0.104-0.499c-0.133-0.057-0.117,0.161-0.28,0.049  c0.167-0.209,0.214-0.571,0.085-0.726c0.13,0.03,0.177-0.093,0.207-0.248c-0.143-0.326-0.571-0.026-0.328,0.211  C51.89,52.771,51.882,52.926,51.761,52.869z"></path><path d="M55.409,53.96c0.145-0.749-0.585-0.265-0.462,0.215C55.163,54.238,55.289,53.868,55.409,53.96z"></path><path d="M52.393,52.97c0.034,0.117,0.091,0.222,0.171,0.316c0.106-0.076,0.211-0.155,0.242-0.369  C52.633,52.801,52.529,52.794,52.393,52.97z"></path><path d="M65.554,57.568c0.373,0.018,0.635-0.168,0.871-0.402c-0.045-0.021-0.024-0.077-0.005-0.134  c-0.188-0.084-0.2-0.087-0.404-0.122c-0.024,0.082-0.049,0.163-0.073,0.244C65.658,57.111,65.293,57.291,65.554,57.568z"></path><path d="M54.892,54.513c-0.256-0.232-0.527,0.238-0.389,0.414c0.121,0.057,0.176-0.01,0.268-0.009  C54.803,54.714,54.909,54.647,54.892,54.513z"></path><path d="M65.66,58.838c0.058,0.251,0.435,0.344,0.495-0.029C66.069,58.607,65.699,58.579,65.66,58.838z"></path><path d="M52,54.575C51.208,54.136,51.876,55.343,52,54.575L52,54.575z"></path><path d="M52.9,55.109c-0.062,0.125-0.028,0.198-0.044,0.296c0.211,0.131,0.273,0.104,0.455-0.041  C53.303,55.164,53.118,55.028,52.9,55.109z"></path><path d="M65.353,59.718c0.217,0.038,0.446-0.073,0.405-0.321c-0.152-0.042-0.129,0.011-0.243-0.073  c0.092-0.174,0.001-0.25,0.028-0.389C64.728,58.635,65.282,59.44,65.353,59.718z"></path><path d="M54.265,55.872c0.12-0.519-0.813-0.313-0.515,0.243C53.967,56.099,54.219,56.065,54.265,55.872z"></path><path d="M50.672,55.327c0.084-0.032,0.184-0.037,0.222-0.155C50.839,54.708,50.192,55.122,50.672,55.327z"></path><path d="M51.604,55.606c0.12-0.171,0.007-0.145,0.056-0.337c-0.094-0.028-0.189-0.056-0.283-0.084  C51.186,55.367,51.347,55.666,51.604,55.606z"></path><path d="M50.866,56.004c0.022,0.135,0.073,0.256,0.265,0.299C51.442,56.121,51.098,55.747,50.866,56.004z"></path><path d="M65.394,60.614c0.233,0.154,0.392,0.083,0.491-0.163C65.723,60.157,65.232,60.3,65.394,60.614z"></path><path d="M50.258,56.264c0.024-0.081,0.049-0.162,0.073-0.243c-0.197-0.186-0.424-0.063-0.368,0.199  C50.077,56.328,50.108,56.235,50.258,56.264z"></path><path d="M51.994,56.96c0.008,0.177,0.32,0.189,0.438,0.308c0.195-0.143,0.388-0.338,0.211-0.556  C52.461,56.948,52.121,56.571,51.994,56.96z"></path><path d="M59.262,58.957c-0.08-0.059-0.137-0.13-0.102-0.251c-0.348-0.145-0.604,0.167-0.441,0.443  C58.968,59.213,59.128,59.219,59.262,58.957z"></path><path d="M50.811,56.782c0.032-0.108,0.155-0.05,0.182-0.167C50.968,56.091,50.328,56.566,50.811,56.782z"></path><path d="M50.442,57.423c0.042-0.083,0.259-0.393,0.093-0.458c-0.145,0.069-0.349,0.027-0.422,0.227  C50.225,57.288,50.246,57.468,50.442,57.423z"></path><path d="M49.83,57.107c0.005-0.24-0.233-0.183-0.329-0.231c-0.031,0.108-0.085,0.227-0.045,0.296  C49.629,57.239,49.759,57.229,49.83,57.107z"></path><path d="M64.113,62.086c0.212,0.076,0.359,0.036,0.438-0.134C64.513,61.618,63.883,61.748,64.113,62.086z"></path><path d="M49.818,58.032c0.241-0.037,0.292-0.239,0.318-0.479C49.797,57.443,49.427,57.82,49.818,58.032z"></path><path d="M49.226,57.943c0.033-0.131-0.038-0.206-0.194-0.235c-0.016,0.098-0.054,0.154-0.102,0.19  C49.055,57.962,49.127,57.928,49.226,57.943z"></path><path d="M49.121,58.442c0.098,0.085,0.17,0.16,0.312,0.137c0.041-0.19,0.178-0.32,0.187-0.475  C49.39,58.099,49.188,58.147,49.121,58.442z"></path><path d="M50.787,58.631c-0.069,0.086-0.039,0.082-0.113,0.231c0.157,0.263,0.423,0.231,0.466-0.082  C50.998,58.689,50.981,58.629,50.787,58.631z"></path><path d="M63.486,62.562c-0.213,0.27,0.146,0.473,0.385,0.335c0.085-0.148,0.088-0.217,0.017-0.348  C63.74,62.538,63.675,62.544,63.486,62.562z"></path><path d="M51.311,59.539c0.167,0.077,0.206-0.082,0.362-0.024c0.188-0.33-0.118-0.448-0.305-0.312  C51.343,59.394,51.294,59.401,51.311,59.539z"></path><path d="M48.716,58.762c-0.107,0.229-0.019,0.351,0.187,0.41c0.099-0.071,0.166-0.198,0.202-0.381  C48.931,58.698,48.879,58.833,48.716,58.762z"></path><path d="M46.787,59.6c0.35-0.106,0.582-0.433,0.777-0.828C47.283,58.073,46.272,59.201,46.787,59.6z"></path><path d="M57.635,62.181c0.086-0.072,0.175-0.137,0.219-0.288C57.609,61.236,56.935,62.16,57.635,62.181z"></path><path d="M50.591,60.03c-0.074-0.028,0.015-0.145-0.034-0.187c-0.166-0.098-0.222,0.008-0.348-0.016  c-0.104,0.181,0.04,0.227,0.024,0.361C50.386,60.196,50.506,60.147,50.591,60.03z"></path><path d="M48.165,59.57c0.059-0.093,0.086,0.108,0.19,0.102c0.079-0.124,0.252-0.322,0.081-0.418  C48.26,59.212,48.014,59.377,48.165,59.57z"></path><path d="M50.538,60.5c0.237,0.083,0.392,0.012,0.434-0.267C50.734,60.014,50.53,60.233,50.538,60.5z"></path><path d="M62.831,64.751c0.051-0.221,0.312-0.05,0.353-0.292C62.898,63.981,62.202,64.696,62.831,64.751z"></path><path d="M49.553,60.692c0.042,0.034,0.079,0.07,0.098,0.117c0.18-0.003,0.327-0.066,0.393-0.28  C49.917,60.429,49.599,60.443,49.553,60.692z"></path><path d="M47.772,60.292c0.089-0.065,0.19-0.355,0.028-0.39C47.422,59.898,47.417,60.383,47.772,60.292z"></path><path d="M48.985,60.964c0.075,0.073,0.135,0.154,0.301,0.178c0.064-0.143,0.183-0.189,0.149-0.353  C49.239,60.639,49.026,60.66,48.985,60.964z"></path><path d="M50.314,61.097c-0.164-0.313-0.507,0.024-0.393,0.28C50.14,61.444,50.265,61.339,50.314,61.097z"></path><path d="M47.907,60.73c-0.061,0.204,0.254,0.367,0.408,0.255C48.476,60.635,48.074,60.483,47.907,60.73z"></path><path d="M51.63,62.02c-0.013,0.223-0.014,0.438,0.086,0.601C52.564,62.689,52.346,61.492,51.63,62.02z"></path><path d="M47.253,60.844c0.086-0.097,0.161-0.17,0.139-0.312c-0.152-0.071-0.246-0.036-0.349-0.016  C46.98,60.697,47.094,60.783,47.253,60.844z"></path><path d="M61.107,65.341c0.26,0.123,0.375-0.02,0.491-0.162C61.505,64.914,60.953,65.001,61.107,65.341z"></path><path d="M46.448,61.177c-0.085,0.467,0.575,0.318,0.331-0.078C46.664,61.118,46.528,61.098,46.448,61.177z"></path><path d="M49.136,62.379c0.093-0.103,0.203-0.172,0.301-0.264c-0.018-0.167-0.215-0.221-0.353-0.15  C49.032,62.141,49.03,62.29,49.136,62.379z"></path><path d="M48.499,62.144c0.073,0.041,0.077,0.119,0.18,0.142c0.066-0.024,0.111-0.086,0.197-0.073  C49.036,61.807,48.581,61.731,48.499,62.144z"></path><path d="M48.212,61.926c-0.195,0.101-0.388,0.205-0.467,0.523c0.062,0.058,0.09,0.133,0.168,0.183  C48.166,62.562,48.27,62.094,48.212,61.926z"></path><path d="M46.058,61.591c-0.013,0.079-0.072,0.076-0.088,0.15c0.01,0.13,0.129,0.203,0.274,0.259  c0.072-0.036,0.095-0.164,0.127-0.271C46.33,61.648,46.174,61.631,46.058,61.591z"></path><path d="M47.021,62.807c0.214,0.135,0.458,0.032,0.526-0.284c-0.206-0.11-0.295,0.001-0.471-0.052  C46.977,62.629,47.031,62.636,47.021,62.807z"></path><path d="M48.195,63.158c0.155,0.097,0.185-0.038,0.31,0.004c0.132-0.3-0.056-0.422-0.293-0.352  C48.155,62.954,48.189,63.048,48.195,63.158z"></path><path d="M58.441,66.576c0.156-0.066,0.305-0.149,0.348-0.425C58.426,65.808,58.08,66.391,58.441,66.576z"></path><path d="M59.953,66.542c-0.023,0.081-0.048,0.163-0.072,0.243c0.11,0.144,0.299,0.185,0.434,0.174  c0.06-0.134,0.053-0.232,0.058-0.336C60.147,66.567,60.11,66.568,59.953,66.542z"></path><path d="M46.731,62.587c-0.128,0.06-0.417,0.078-0.323,0.345C46.641,63.083,46.886,62.751,46.731,62.587z"></path><path d="M45.775,62.832c0.144-0.082,0.145-0.277,0.134-0.446c-0.12,0.032-0.317-0.084-0.431-0.04  C45.399,62.604,45.528,62.75,45.775,62.832z"></path><path d="M55.123,65.407c-0.403,0.743-1.075,1.324-1.425,1.96c0.057,0.222,0.3,0.024,0.393,0.162  c0.577-0.466,1.121-0.991,1.482-1.854C55.527,65.5,55.358,65.39,55.123,65.407z"></path><path d="M43.87,63.587c0.332-0.241,0.849-0.886,1.009-1.156c-0.146-0.065-0.212-0.177-0.502-0.238  c-0.381,0.408-0.726,0.884-1.127,1.253C43.305,63.821,43.632,63.761,43.87,63.587z"></path><path d="M47.07,63.528c0.032,0.06,0.129,0.088,0.23,0.113c0.075-0.117,0.175-0.141,0.139-0.312  c-0.142-0.072-0.183,0.041-0.309-0.004C47.11,63.393,47.09,63.46,47.07,63.528z"></path><path d="M49.624,64.292c0.048,0.225,0.031,0.483,0.365,0.551C50.511,64.512,50.011,63.787,49.624,64.292z"></path><path d="M52.83,65.693c0.242-0.011,0.411-0.162,0.521-0.418C53.034,64.688,52.429,65.283,52.83,65.693z"></path><path d="M59.76,67.191c-0.138-0.189-0.304-0.115-0.47-0.052c0.043-0.219-0.369-0.37-0.431-0.041c0.076,0.095,0.207,0.16,0.329,0.231  c0.028-0.074,0.066-0.128,0.129-0.139c0.056,0.107,0.167,0.183,0.329,0.232C59.708,67.389,59.735,67.293,59.76,67.191z"></path><path d="M45.684,63.291c0.157,0.148,0.391,0.11,0.465-0.082c-0.028-0.019-0.037-0.048-0.016-0.093  C45.904,63.029,45.713,63.009,45.684,63.291z"></path><path d="M60.252,68.796c0.337,0.657,0.971-0.049,1.301-0.362c-0.053-0.22,0.01-0.504-0.049-0.722  C60.851,67.637,60.66,68.418,60.252,68.796z"></path><path d="M46.316,63.833c0.449-0.346-0.068-0.734-0.219-0.154C46.175,63.728,46.183,63.814,46.316,63.833z"></path><path d="M47.585,63.727c-0.155-0.037-0.297-0.045-0.345,0.118c-0.007,0.139,0.086,0.226,0.275,0.259  C47.622,63.992,47.607,63.857,47.585,63.727z"></path><path d="M56.131,66.326c-0.048-0.088-0.229-0.103-0.354-0.149c-0.162,0.1-0.268,0.302-0.345,0.56  c-0.401,0.563-1.073,0.945-1.316,1.594C54.995,68.377,55.973,67.216,56.131,66.326z"></path><path d="M45.423,63.124c-0.199-0.096-0.286,0.015-0.442,0c-0.02,0.068-0.04,0.136-0.061,0.203c0.081,0.058,0.134,0.133,0.261,0.167  C45.292,63.4,45.447,63.292,45.423,63.124z"></path><path d="M46.068,63.626c-0.128-0.104-0.347-0.074-0.426,0.094c0.049,0.098,0.064,0.215,0.236,0.247  c0.003-0.141,0.149-0.015,0.17-0.125C45.959,63.822,46.073,63.692,46.068,63.626z"></path><path d="M57.438,67.424c0.098,0.266,0.572,0.152,0.449-0.174C57.678,67.199,57.47,67.15,57.438,67.424z"></path><path d="M44.981,63.566c-0.102,0.214-0.009,0.323,0.146,0.397c0.025-0.207,0.235-0.07,0.231-0.329  C45.27,63.488,45.108,63.591,44.981,63.566z"></path><path d="M58.958,68.1c0.062-0.158,0.091-0.299,0.028-0.389C58.518,67.465,58.514,68.097,58.958,68.1z"></path><path d="M46.349,64.461c0.066,0.056,0.127,0.112,0.219,0.154c0.094-0.142,0.349,0.015,0.467-0.082  c0.099-0.466-0.312-0.236-0.625-0.275C46.389,64.326,46.368,64.394,46.349,64.461z"></path><path d="M44.196,64.127c0.018-0.029,0.048-0.037,0.092-0.016c0.032-0.108,0.086-0.228,0.044-0.297  c-0.197-0.116-0.257,0.027-0.343,0.119C44.081,63.984,44.028,64.115,44.196,64.127z"></path><path d="M45.862,64.758c0.631,0.043,0.125-0.767-0.098-0.117C45.808,64.675,45.844,64.711,45.862,64.758z"></path><path d="M44.994,64.41c-0.104,0.227,0.065,0.305,0.24,0.381c0.192-0.15,0.278-0.376,0.063-0.512  C45.222,64.37,45.122,64.416,44.994,64.41z"></path><path d="M49.756,65.922c-0.147,0.181-0.413,0.108-0.459,0.349C49.175,66.936,50.533,66.44,49.756,65.922z"></path><path d="M58.436,68.96c0.094,0.074,0.234,0.123,0.394,0.162c0.104-0.162,0.065-0.177,0.056-0.336  C58.644,68.673,58.485,68.718,58.436,68.96z"></path><path d="M43.904,64.658c0.127,0.033,0.179,0.107,0.259,0.167c0.142-0.095,0.162-0.129,0.191-0.341  C44.125,64.395,43.983,64.469,43.904,64.658z"></path><path d="M45.595,65.208c0.113,0.234,0.469,0.157,0.491-0.162C45.906,64.844,45.666,65.004,45.595,65.208z"></path><path d="M48.28,66.276c-0.182-0.245-0.39-0.298-0.661-0.154C47.301,66.825,48.174,66.806,48.28,66.276z"></path><path d="M43.235,65.122c0.051,0.147,0.454,0.278,0.512,0.064c-0.017-0.19-0.259-0.262-0.346-0.325  C43.342,64.939,43.255,64.969,43.235,65.122z"></path><path d="M44.59,65.614c0.027-0.117-0.023-0.191,0.004-0.308c-0.231-0.114-0.381-0.075-0.409,0.187  C44.306,65.6,44.445,65.686,44.59,65.614z"></path><path d="M59.855,70.269c0.097,0.072,0.189,0.147,0.341,0.19c0.027-0.117,0.15-0.058,0.183-0.166  C60.368,70.042,59.938,69.977,59.855,70.269z"></path><path d="M44.897,66.06C45.467,65.627,44.272,65.628,44.897,66.06L44.897,66.06z"></path><path d="M57.901,69.861c0.07,0.098,0.196,0.166,0.382,0.202c0.105-0.16,0.09-0.22,0.067-0.377  C58.203,69.683,57.96,69.554,57.901,69.861z"></path><path d="M43.881,66.065c0.235,0.257,0.511,0.033,0.381-0.24C44.003,65.713,43.877,65.854,43.881,66.065z"></path><path d="M43.273,65.883c0.062,0.107,0.331,0.249,0.445,0.133C43.813,65.795,43.314,65.442,43.273,65.883z"></path><path d="M42.381,66.058c0.082,0.139,0.244,0.143,0.406,0.122c0.02-0.159-0.026-0.281-0.107-0.386  c0.156,0.01,0.035-0.098,0.114-0.231c-0.154-0.094-0.364-0.2-0.413,0.053C42.497,65.773,42.497,65.821,42.381,66.058z"></path><path d="M49.454,68.262c0.166,0.053,0.369-0.054,0.445-0.309C49.772,67.192,48.839,68.068,49.454,68.262z"></path><path d="M44.168,66.284c0.067,0.088,0.108,0.191,0.183,0.276c0.056-0.025,0.059-0.146,0.158-0.086  c0.016-0.099-0.018-0.171,0.045-0.295C44.436,66.08,44.254,66.141,44.168,66.284z"></path><path d="M59.329,70.995c0.177,0.111,0.194,0.159,0.405,0.121C59.925,70.701,59.404,70.633,59.329,70.995z"></path><path d="M57.609,70.392c0.017,0.177,0.284,0.186,0.369,0.244c0.091-0.104,0.126-0.236,0.057-0.337  C57.857,70.263,57.664,70.197,57.609,70.392z"></path><path d="M51.263,69.157c0.201-0.125,0.318-0.03,0.531-0.15c0.211-0.64-0.621-0.683-0.754-0.138  C51.069,68.989,51.146,69.083,51.263,69.157z"></path><path d="M43.646,66.702c0.005,0.134,0.062,0.239,0.171,0.315c0.04-0.052,0.093-0.08,0.158-0.085  C44.163,66.601,43.778,66.438,43.646,66.702z"></path><path d="M41.622,66.671c-0.07,0.033-0.058,0.111-0.019,0.215c0.2,0.079,0.334,0.032,0.481,0.011c0.027-0.241-0.16-0.215-0.305-0.312  c-0.005-0.144-0.036-0.274-0.053-0.413c-0.197-0.072-0.339-0.041-0.368,0.199C41.422,66.485,41.565,66.555,41.622,66.671z"></path><path d="M42.539,66.857c0.112,0.094,0.29,0.068,0.431,0.04c0.021-0.125-0.004-0.226-0.037-0.32  C42.604,66.448,42.535,66.611,42.539,66.857z"></path><path d="M52.788,70.408c1.036-0.139,0.181-1.282-0.279-0.394C52.552,70.173,52.646,70.303,52.788,70.408z"></path><path d="M55.067,70.913c0.028,0.018,0.079,0.025,0.069,0.065c0.142-0.052,0.281-0.11,0.381-0.24  C55.525,70.372,55.07,70.551,55.067,70.913z"></path><path d="M42.024,67.101c0.134,0.019,0.056,0.152,0.219,0.153c0.066-0.024,0.113-0.085,0.199-0.073  C42.516,66.944,42.053,66.735,42.024,67.101z"></path><path d="M42.879,70.007c0.13,0.032,0.104,0.148,0.259,0.166c0.577-0.884,1.335-1.436,2.01-2.138  c-0.024-0.219-0.276-0.365-0.45-0.268C44.118,68.09,42.991,69.251,42.879,70.007z"></path><path d="M57.798,72.127c0.211,0.124,0.368,0.141,0.522,0.024C58.416,71.871,57.812,71.732,57.798,72.127z"></path><path d="M49.021,69.414c-0.148-0.298-0.472-0.112-0.726-0.084c-0.024,0.29-0.076,0.385-0.008,0.616  C48.888,70.091,48.875,69.838,49.021,69.414z"></path><path d="M42.382,67.826C43.273,68.269,42.504,66.811,42.382,67.826L42.382,67.826z"></path><path d="M41.057,67.385c0.108,0.12,0.34,0.322,0.486,0.146c-0.083-0.169-0.058-0.427-0.374-0.376  C41.161,67.287,41.063,67.252,41.057,67.385z"></path><path d="M40.967,67.535c0.063-0.124,0.028-0.197,0.045-0.296c-0.188-0.157-0.522-0.213-0.561,0.098  C40.497,67.482,40.812,67.547,40.967,67.535z"></path><path d="M41.458,67.815c0.111,0.094,0.341,0.163,0.486,0.146C42.135,67.639,41.475,67.359,41.458,67.815z"></path><path d="M55.467,72.977c0.121,0.058,0.129-0.097,0.268-0.008c0.069-0.248,0.604-0.395,0.563-0.848  C56.041,71.73,55.032,72.753,55.467,72.977z"></path><path d="M43.896,70.444c0.127,0.033,0.078,0.162,0.261,0.166c0.409-0.428,0.949-0.914,1.129-1.562  c-0.073-0.085-0.165-0.16-0.34-0.19C44.497,69.257,44.036,69.819,43.896,70.444z"></path><path d="M54.156,71.745c-0.107-0.032-0.227-0.084-0.296-0.044c-0.033,0.165,0.047,0.269,0.158,0.356  C54.132,72.011,54.176,71.881,54.156,71.745z"></path><path d="M56.975,72.809c0.091,0.063,0.126,0.159,0.248,0.207c0.06-0.077,0.146-0.107,0.165-0.26  C57.264,72.586,57.067,72.722,56.975,72.809z"></path><path d="M41.962,68.496c0.088-0.268-0.119-0.442-0.334-0.365C41.449,68.413,41.764,68.621,41.962,68.496z"></path><path d="M40.541,68.071c0.048,0.081,0.281,0.151,0.365,0.109C41.012,67.854,40.501,67.666,40.541,68.071z"></path><path d="M39.9,68.144c0.095-0.188,0.388-0.181,0.349-0.426c-0.36-0.164-0.553-0.017-0.661,0.289  C39.747,68.023,39.741,68.128,39.9,68.144z"></path><path d="M49.366,71.064c0.058-0.144,0.073-0.266,0.069-0.377c-0.189-0.147-0.553-0.223-0.6,0.085  C48.92,70.94,49.13,71.07,49.366,71.064z"></path><path d="M57.06,73.409c-0.003,0.115,0.167,0.137,0.195,0.234c0.099-0.07,0.231-0.078,0.26-0.275  C57.363,73.22,57.157,73.274,57.06,73.409z"></path><path d="M39.975,68.785c0.326,0.261,0.396-0.067,0.767,0.097C40.92,68.325,39.922,68.348,39.975,68.785z"></path><path d="M57.035,73.49c-0.054-0.084-0.312-0.161-0.404-0.122c-0.021,0.068-0.041,0.135-0.061,0.203  c0.092,0.053,0.198,0.098,0.154,0.223c-0.129-0.068-0.168,0.024-0.212,0.114c0.002,0.113,0.136,0.153,0.195,0.235  c0.18-0.1,0.149-0.309,0.093-0.458C56.919,73.693,56.993,73.621,57.035,73.49z"></path><path d="M40.794,68.853c-0.007,0.228,0.238,0.344,0.422,0.215c0.062-0.123-0.039-0.149,0.061-0.203  C41.188,68.711,40.851,68.605,40.794,68.853z"></path><path d="M53.135,72.942c0.278,0.128,0.529-0.325,0.215-0.422C53.23,72.605,53.027,72.8,53.135,72.942z"></path><path d="M39.284,68.579c-0.08-0.221-0.414-0.196-0.62-0.141c-0.02,0.067-0.04,0.135-0.061,0.202  C38.764,68.956,39.154,68.845,39.284,68.579z"></path><path d="M50.402,72.478c0.073,0.097,0.127,0.204,0.275,0.259c0.236-0.064,0.357-0.458,0.248-0.677  c-0.384-0.326-0.948,0.012-0.831,0.414C50.229,72.451,50.287,72.594,50.402,72.478z"></path><path d="M54.47,73.65c0.115-0.019,0.2-0.091,0.275-0.183C54.611,72.762,53.879,73.452,54.47,73.65z"></path><path d="M39.638,69.17c0.124-0.265-0.121-0.334-0.239-0.381c-0.067,0.063-0.109,0.176-0.165,0.26  C39.341,69.174,39.479,69.215,39.638,69.17z"></path><path d="M55.312,73.637c-0.316,0.161-0.872,0.536-0.388,0.856c0.241-0.077,0.502-0.167,0.652-0.556  C55.488,73.837,55.497,73.686,55.312,73.637z"></path><path d="M40.385,69.482c-0.147-0.114-0.195-0.126-0.341-0.19C39.658,69.538,40.383,69.968,40.385,69.482z"></path><path d="M55.856,74.331c0.115,0.271,0.587,0.252,0.682-0.062C56.265,74.215,56.006,74.045,55.856,74.331z"></path><path d="M52.621,73.628c0.102-0.042,0.202-0.087,0.246-0.236c-0.045-0.077-0.131-0.132-0.207-0.194  C52.521,73.239,52.401,73.586,52.621,73.628z"></path><path d="M38.84,69.329c-0.07,0.14-0.037,0.225-0.005,0.308c0.145,0.077,0.21,0.009,0.337,0.057  C39.236,69.44,39.094,69.229,38.84,69.329z"></path><path d="M38.154,69.257c0.014-0.053-0.036-0.072-0.005-0.134c-0.229-0.136-0.442-0.232-0.519,0.11  C37.777,69.386,38.024,69.433,38.154,69.257z"></path><path d="M46.838,72.428c0.143,0.012,0.227-0.083,0.316-0.17c-0.01,0.096,0.195,0.076,0.272,0.125  c0.127-0.176,0.216-0.182,0.201-0.381c-0.35-0.183-0.573,0.067-0.981-0.117C46.52,72.169,46.574,72.354,46.838,72.428z"></path><path d="M38.616,69.926c-0.062-0.277-0.464-0.396-0.441,0C38.293,70.023,38.569,70.137,38.616,69.926z"></path><path d="M39.128,70.432c0.161,0.005,0.23-0.163,0.398-0.146c0.106-0.423-0.531-0.527-0.564-0.036  C39.07,70.282,39.012,70.404,39.128,70.432z"></path><path d="M44.725,71.664c-0.14,0.315,0.1,0.403,0.362,0.418C45.281,71.836,45.005,71.491,44.725,71.664z"></path><path d="M35.773,69.384c0.403,0.208,0.455-0.579-0.064-0.373C35.676,69.166,35.671,69.304,35.773,69.384z"></path><path d="M52.09,74.22c0.152-0.271-0.273-0.5-0.341-0.19C51.756,74.175,51.943,74.242,52.09,74.22z"></path><path d="M40.564,70.95c-0.231,0.244,0.005,0.453,0.126,0.612c0.186-0.085,0.286,0.059,0.511,0.064  c0.127-0.125,0.076-0.329,0.108-0.365c0.068,0.021,0.136,0.041,0.204,0.061c0.402-0.519-0.541-0.766-0.423-0.215  C40.913,70.953,40.712,71.067,40.564,70.95z"></path><path d="M38.306,70.672c-0.032,0.142,0.067,0.212,0.183,0.275c0.093-0.017,0.193-0.018,0.251-0.102  c-0.058-0.093-0.062-0.215-0.13-0.304c-0.115-0.066-0.141,0.035-0.255-0.032c0.062-0.103-0.056-0.106-0.033-0.187  c-0.284-0.148-0.518-0.011-0.475,0.256C38,70.61,38.195,70.721,38.306,70.672z"></path><path d="M52.436,74.986c-0.156-0.018-0.129-0.134-0.26-0.166c-0.121,0.17-0.26,0.138-0.256,0.41  C52.188,75.426,52.332,75.253,52.436,74.986z"></path><path d="M50.765,74.663c0.081,0.036-0.042,0.182,0.02,0.228C51.319,75.05,51.116,74.31,50.765,74.663z"></path><path d="M54.131,75.669c-0.011-0.129-0.129-0.202-0.276-0.259c-0.1,0.144-0.103,0.104-0.166,0.26  C53.779,75.852,54.056,75.957,54.131,75.669z"></path><path d="M53.198,75.391c-0.238,0.233,0.062,0.606,0.349,0.458C53.705,75.533,53.466,75.38,53.198,75.391z"></path><path d="M54.11,75.885c0.073,0.085,0.165,0.16,0.342,0.19C54.768,75.761,54.229,75.583,54.11,75.885z"></path><path d="M34.854,70.391c0.03-0.134,0.123-0.15,0.139-0.312c-0.154-0.178-0.413-0.188-0.536,0.017  C34.527,70.275,34.596,70.386,34.854,70.391z"></path><path d="M36.473,70.742c0.02-0.278-0.352-0.553-0.486-0.146C36.044,70.765,36.335,70.785,36.473,70.742z"></path><path d="M47.748,74.557c0.175,0.044,0.384-0.183,0.453-0.483C47.796,73.574,47.245,74.426,47.748,74.557z"></path><path d="M54.111,76.327c-0.157-0.159-0.376-0.128-0.425,0.094c0.137,0.141,0.35,0.221,0.44,0  C54.098,76.402,54.09,76.372,54.111,76.327z"></path><path d="M33.914,70.728c0.137-0.174,0.025-0.147,0.017-0.348C33.417,70.087,33.473,70.885,33.914,70.728z"></path><path d="M35.942,71.334c0.17-0.375-0.339-0.548-0.406-0.121C35.711,71.332,35.777,71.416,35.942,71.334z"></path><path d="M50.148,75.54c0.101-0.195-0.331-0.35-0.393-0.162C49.707,75.601,50.05,75.752,50.148,75.54z"></path><path d="M52.363,76.113c-0.182,0.007-0.102-0.126-0.219-0.154c-0.094,0.06-0.214,0.067-0.276,0.183  c-0.035,0.178,0.128,0.249,0.305,0.312C52.275,76.413,52.328,76.279,52.363,76.113z"></path><path d="M45.424,74.347c0.042-0.147-0.042-0.226-0.024-0.36c-0.163-0.072-0.281-0.06-0.389-0.028  c-0.028,0.094-0.057,0.189-0.085,0.284C45.06,74.377,45.274,74.476,45.424,74.347z"></path><path d="M34.296,70.931c-0.209,0.481,0.471,0.505,0.503,0.239C34.817,71.006,34.518,70.831,34.296,70.931z"></path><path d="M51.236,76.041c-0.042-0.102-0.126-0.181-0.288-0.219c-0.042,0.092-0.109,0.133-0.125,0.272  c0.09,0.042,0.133,0.11,0.271,0.125C51.102,76.086,51.229,76.175,51.236,76.041z"></path><path d="M44.342,74.421c0.091-0.208,0.048-0.342-0.041-0.454c-0.07,0.06-0.221-0.031-0.308-0.004  C43.778,74.226,44.09,74.502,44.342,74.421z"></path><path d="M52.578,76.576c-0.041,0.091-0.109,0.133-0.124,0.271c0.205,0.192,0.522,0.101,0.583-0.179  C52.791,76.612,52.866,76.593,52.578,76.576z"></path><path d="M53.05,77.07c0.091,0.042,0.152,0.099,0.219,0.154c0.131-0.037,0.32-0.21,0.255-0.41  C53.283,76.746,53.105,76.795,53.05,77.07z"></path><path d="M33.566,71.154c0.163,0.081,0.107,0.281,0.397,0.295c0.027-0.095,0.056-0.189,0.084-0.284  C33.941,70.976,33.687,70.848,33.566,71.154z"></path><path d="M35.816,72.048c0.199,0.033,0.399,0.127,0.462-0.215C36.065,71.616,35.729,71.732,35.816,72.048z"></path><path d="M46.63,79.921c0.068-0.147,0.282-0.023,0.413-0.053c0.062-0.521,0.302-0.797,0.583-1.063  c0.005-0.128-0.195-0.144-0.13-0.304c0.506-1.1,1.529-1.242,2.029-2.353c-0.048-0.02-0.093-0.041-0.057-0.105  c-1.048-0.317-1.624,0.769-2.444,1.08c-0.2,0.259-0.645,0.613-1.078,0.65c-0.031,0.074,0.019,0.103-0.009,0.174  c-0.595,0.263-1.076,0.736-1.641,1.055c-0.054-0.099-0.08,0.003-0.202-0.06c-0.024,0.36-0.301,0.296-0.425,0.536  c-0.097,0.183-0.052,0.384,0.214,0.462c0.329,0.096,0.432-0.327,0.824-0.24c0.04,0.069-0.033,0.199,0.008,0.268  c0.154,0.07,0.115,0.059,0.283,0.085c0.09-0.086,0.124-0.275,0.231-0.329c0.287,0.03,0.557,0.025,0.859,0.081  c0.002,0.101-0.025,0.218-0.004,0.308c0.099,0.036,0.193,0.065,0.256,0.032c0.003,0.18,0.059,0.331,0.332,0.365  c0.117-0.121,0.245-0.219,0.337-0.385C46.887,79.954,46.74,79.961,46.63,79.921z"></path><path d="M36.709,72.315c-0.136-0.144-0.388-0.25-0.481-0.012c0.051,0.085,0.027,0.211,0.142,0.263  C36.564,72.575,36.721,72.535,36.709,72.315z"></path><path d="M41.203,74.278c0.068,0.11,0.115,0.233,0.265,0.3c0.201-0.087,0.501,0.003,0.721-0.049  C42.451,73.827,41.324,73.388,41.203,74.278z"></path><path d="M35.106,72.057c0.017,0.151,0.2,0.21,0.306,0.312c0.04-0.052,0.092-0.08,0.158-0.085  C35.645,71.97,35.282,71.724,35.106,72.057z"></path><path d="M34.154,71.551c-0.098,0.009-0.2-0.055-0.32,0.037c-0.021,0.182,0.11,0.281,0.239,0.381  C34.217,71.925,34.287,71.636,34.154,71.551z"></path><path d="M50.516,76.533c-0.203-0.127-0.453-0.067-0.516,0.244C50.17,77.055,50.595,76.874,50.516,76.533z"></path><path d="M50.997,76.986c0.044,0.057,0.05,0.133,0.073,0.198c0.266,0.133,0.34-0.086,0.436-0.268  C51.385,76.624,51.134,76.802,50.997,76.986z"></path><path d="M33.063,71.799c0.202-0.265-0.06-0.502-0.36-0.417C32.526,71.668,32.825,71.847,33.063,71.799z"></path><path d="M52.214,77.35c-0.061-0.058-0.089-0.133-0.166-0.182c-0.118,0.154-0.415,0.248-0.227,0.462  c0.046-0.028,0.108,0.003,0.256,0.032C52.093,77.503,52.198,77.509,52.214,77.35z"></path><path d="M34.361,72.629c0.231,0.166,0.507,0.122,0.612-0.126C34.879,72.118,34.332,72.104,34.361,72.629z"></path><path d="M39.812,73.906c-0.526-0.272-0.797,0.148-0.547,0.499C39.531,74.502,39.989,74.285,39.812,73.906z"></path><path d="M35.677,73.111c0.154,0.056,0.267,0.033,0.333-0.078C36.037,72.621,35.374,72.752,35.677,73.111z"></path><path d="M33.324,72.408c0.125-0.335-0.497-0.471-0.674-0.113C32.742,72.603,33.24,72.633,33.324,72.408z"></path><path d="M35.032,73.051c0.091,0.123,0.353,0.142,0.457,0.093c0.014-0.121-0.046-0.202-0.037-0.32  C35.22,72.727,35.079,72.803,35.032,73.051z"></path><path d="M49.611,77.19c-0.236-0.147-0.488,0.005-0.58,0.312c0.041,0.081,0.196,0.098,0.312,0.138  C49.451,77.508,49.628,77.365,49.611,77.19z"></path><path d="M50.225,77.506c-0.097,0.097-0.221,0.139-0.272,0.317c0.087,0.126,0.146,0.193,0.341,0.19  c0.057-0.125,0.144-0.197,0.19-0.34C50.283,77.677,50.395,77.516,50.225,77.506z"></path><path d="M32.383,72.303c-0.192-0.054-0.387-0.239-0.718-0.259c-0.023,0.081-0.048,0.162-0.072,0.243  C31.748,72.594,32.234,72.777,32.383,72.303z"></path><path d="M34.35,73.111c-0.079-0.036-0.048-0.132-0.072-0.198c-0.217-0.087-0.359-0.035-0.41,0.187  C33.987,73.28,34.218,73.305,34.35,73.111z"></path><path d="M33.216,73.214c0.22,0.085,0.268,0.133,0.4-0.012C33.689,72.813,33.041,72.788,33.216,73.214z"></path><path d="M32.255,72.883c0.007,0.161,0.261,0.333,0.421,0.214C32.864,72.684,32.39,72.535,32.255,72.883z"></path><path d="M35.255,73.78c0.079-0.224-0.063-0.329-0.28-0.393c-0.071,0.036-0.093,0.164-0.125,0.272c0.088,0.065,0.147,0.147,0.3,0.178  C35.169,73.789,35.191,73.745,35.255,73.78z"></path><path d="M50.391,78.572c0.092,0.041,0.133,0.11,0.272,0.125c0.125-0.045,0.315-0.218,0.255-0.41  C50.672,78.252,50.433,78.228,50.391,78.572z"></path><path d="M44.664,76.594c-0.253-0.237-0.723-0.124-0.836,0.281C44.143,77.266,44.671,77.118,44.664,76.594z"></path><path d="M48.615,77.864c-0.181-0.114-0.46-0.004-0.528,0.284c0.043,0.021,0.051,0.063,0.057,0.105  C48.436,78.4,48.643,78.105,48.615,77.864z"></path><path d="M31.837,73.244c0.171-0.309-0.194-0.489-0.414-0.388C31.328,73.152,31.567,73.318,31.837,73.244z"></path><path d="M34.213,73.866c-0.028,0.234,0.093,0.217-0.052,0.471c0.118,0.153,0.27,0.248,0.446,0.133  c0.041-0.159-0.059-0.241-0.119-0.345c0.104,0.004,0.069-0.251,0.167-0.259C34.579,73.668,34.301,73.723,34.213,73.866z"></path><path d="M35.486,74.335c0.021,0.176,0.282,0.308,0.49,0.28C36.269,74.281,35.631,73.877,35.486,74.335z"></path><path d="M49.09,78.492c0.072,0.085,0.165,0.161,0.34,0.19c0.045-0.127,0.146-0.151,0.179-0.3  C49.376,78.133,49.14,78.277,49.09,78.492z"></path><path d="M33.808,74.187c0.09-0.084,0.198-0.138,0.26-0.276c-0.056-0.219-0.516-0.251-0.56,0.098  C33.627,74.058,33.614,74.177,33.808,74.187z"></path><path d="M43.181,77.123c0.167-0.212-0.002-0.551-0.284-0.526C42.658,76.832,42.883,77.165,43.181,77.123z"></path><path d="M31.029,73.577c0.05-0.077,0.126-0.105,0.183-0.167c0.008-0.228-0.349-0.403-0.457-0.092  C30.801,73.428,30.849,73.539,31.029,73.577z"></path><path d="M31.281,73.476c0.05,0.151,0.155,0.348,0.397,0.295c0.016-0.098,0.054-0.154,0.103-0.19  C31.716,73.381,31.406,73.206,31.281,73.476z"></path><path d="M39.791,76.197c0.02-0.067,0.04-0.135,0.061-0.203c-0.065-0.246-0.526-0.427-0.548,0.057  c0.107,0.141,0.209,0.154,0.329,0.231c-0.095,0.111-0.05,0.132-0.085,0.283c0.138,0.138,0.295,0.192,0.457,0.093  C40.08,76.468,40.01,76.311,39.791,76.197z"></path><path d="M38.037,75.849c0.068-0.043,0.174-0.015,0.24-0.06c0.243-0.34-0.419-0.649-0.435-0.175  C37.924,75.685,38.005,75.754,38.037,75.849z"></path><path d="M49.584,78.905c-0.089,0.044-0.184,0.079-0.206,0.248c0.042,0.022,0.05,0.064,0.058,0.105  c0.13,0.075,0.173-0.014,0.295,0.044C49.886,79.103,49.7,78.959,49.584,78.905z"></path><path d="M48.769,78.971c-0.146-0.197-0.478-0.232-0.547,0.058c0.075,0.062,0.083,0.159,0.207,0.194  C48.566,79.185,48.684,79.106,48.769,78.971z"></path><path d="M33.808,75.07c0.171-0.085,0.25-0.173,0.203-0.381c-0.189-0.086-0.385-0.17-0.466,0.081  C33.647,74.863,33.619,75.026,33.808,75.07z"></path><path d="M41.429,77.659c-0.088-0.202-0.241-0.271-0.475-0.186c-0.023,0.081-0.048,0.162-0.072,0.244  c0.153,0.106,0.264,0.193,0.447,0.134C41.329,77.726,41.417,77.762,41.429,77.659z"></path><path d="M47.262,79.58c0.024,0.124,0.096,0.22,0.275,0.26c0.128-0.015,0.174-0.183,0.26-0.276  C47.619,79.341,47.418,79.346,47.262,79.58z"></path><path d="M48.146,80.022c0.181,0.062,0.188,0.11,0.337,0.056c0.024-0.081,0.049-0.162,0.073-0.244  C48.475,79.653,48.077,79.64,48.146,80.022z"></path><path d="M30.374,74.883c0.114-0.329-0.408-0.537-0.486-0.146C29.971,74.896,30.206,74.99,30.374,74.883z"></path><path d="M32.508,75.875c0.028,0.019,0.036,0.048,0.017,0.093c0.155,0.131,0.225,0.026,0.353,0.15  c0.058-0.219,0.235-0.249,0.134-0.446C32.751,75.568,32.579,75.629,32.508,75.875z"></path><path d="M31.681,75.98c0.04,0.081,0.197,0.098,0.312,0.138c0.112-0.109,0.207-0.248,0.296-0.397  C32.06,75.409,31.731,75.743,31.681,75.98z"></path><path d="M30.233,75.504c0.07-0.605-0.743-0.256-1.039-0.223c0.011,0.13,0.067,0.236,0.171,0.316  c0.307-0.076,0.428-0.137,0.803-0.025C30.187,75.544,30.193,75.493,30.233,75.504z"></path><path d="M46.812,80.639c-0.046,0.093,0.048,0.11-0.02,0.215c0.216,0.302,0.437,0.007,0.584-0.179  C47.334,80.318,46.98,80.522,46.812,80.639z"></path><path d="M44.644,80.653c0.407,0.547,0.892-0.18,1.191-0.439c-0.078-0.048-0.086-0.135-0.22-0.154  C45.358,80.382,44.934,80.394,44.644,80.653z"></path><path d="M43.394,79.661c-0.087-0.142-0.244-0.034-0.405-0.121c-0.009,0.133,0.005,0.086-0.061,0.203  C43.08,79.883,43.317,80.035,43.394,79.661z"></path><path d="M34.495,77.353c0.062,0.125,0.14,0.242,0.357,0.283c0.122-0.069,0.205-0.208,0.284-0.357  c-0.15-0.161-0.352-0.173-0.54-0.117C34.597,77.287,34.508,77.25,34.495,77.353z"></path><path d="M29.905,75.714c-0.021,0.068-0.041,0.135-0.061,0.203c0.126,0.131,0.155,0.183,0.381,0.203  c0.021-0.046,0.027-0.117,0.076-0.109C30.368,75.815,30.094,75.665,29.905,75.714z"></path><path d="M31.919,76.362c-0.153,0.332,0.307,0.558,0.451,0.268C32.284,76.413,32.133,76.281,31.919,76.362z"></path><path d="M31.178,76.184c-0.018,0.029-0.024,0.08-0.064,0.069c-0.091,0.36,0.324,0.479,0.502,0.239  C31.682,76.269,31.383,76.159,31.178,76.184z"></path><path d="M30.643,76.201c-0.877-0.168-0.246,0.984,0.085,0.158C30.677,76.318,30.648,76.266,30.643,76.201z"></path><path d="M46.006,80.972c-0.102,0.196-0.158,0.195-0.122,0.406c0.148,0.084,0.238,0.125,0.377,0.069  C46.401,81.167,46.171,81.088,46.006,80.972z"></path><path d="M39.107,79.219c-0.058-0.026-0.008-0.11,0.008-0.175c-0.029-0.115-0.307-0.218-0.434-0.173  c-0.028,0.094-0.057,0.189-0.085,0.284C38.689,79.319,39.003,79.379,39.107,79.219z"></path><path d="M43.561,80.285c-0.063,0.124-0.029,0.197-0.045,0.296c0.146,0.066,0.173,0.114,0.296,0.044  C43.915,80.411,43.778,80.326,43.561,80.285z"></path><path d="M29.447,76.506c0.121,0.144,0.312,0.355,0.515,0.198C30.013,76.44,29.579,76.108,29.447,76.506z"></path><path d="M31.827,77.262c-0.058-0.237-0.254-0.268-0.462-0.227c0.057-0.121-0.076-0.14-0.061-0.239  c-0.307-0.175-0.412,0.165-0.272,0.317c0.129,0.006,0.266,0.028,0.362-0.025c-0.083,0.146,0.055,0.174,0.049,0.28  c0.101,0.024,0.196,0.052,0.23,0.113C31.691,77.347,31.825,77.426,31.827,77.262z"></path><path d="M42.348,80.497c0.024-0.082,0.049-0.163,0.072-0.244c-0.04-0.078-0.246-0.139-0.323-0.097  c-0.1,0.156,0.013,0.198-0.005,0.308C42.208,80.531,42.233,80.43,42.348,80.497z"></path><path d="M32.83,78.489c0.261-0.217,0.736-0.276,0.782-0.693c-0.368-0.533-1.031-0.166-1.277,0.28  C32.442,78.245,32.562,78.407,32.83,78.489z"></path><path d="M43.102,81.076c0.067-0.115,0.004-0.16,0.034-0.255c-0.09-0.054-0.168-0.114-0.313-0.138  c-0.014,0.08-0.072,0.076-0.088,0.151C42.814,80.975,42.908,81.179,43.102,81.076z"></path><path d="M43.836,80.986c-0.012,0.103-0.1,0.066-0.101,0.191c0.092,0.166,0.37,0.209,0.414-0.053  C44.06,81.07,43.981,81.01,43.836,80.986z"></path><path d="M29.593,76.903c-0.07,0.141-0.037,0.225-0.003,0.308c-0.107,0.033-0.223,0.051-0.247,0.235  c0.119,0.111,0.105,0.141,0.328,0.23c0.153-0.079,0.128-0.314,0.15-0.353c0.22,0.136,0.251-0.08,0.441,0  c0.098-0.178,0.003-0.251-0.024-0.361C29.998,76.991,29.785,76.741,29.593,76.903z"></path><path d="M39.218,80.179c0.128,0.026,0.208-0.034,0.32-0.037c0.047-0.15,0.008-0.254-0.024-0.361  C39.141,79.609,38.97,80.018,39.218,80.179z"></path><path d="M41.452,80.538c0.037,0.208,0.198,0.246,0.369,0.243C41.978,80.404,41.637,80.403,41.452,80.538z"></path><path d="M28.94,77.017c0.114-0.243-0.15-0.463-0.454-0.401c-0.071,0.141,0.041,0.182-0.004,0.308  C28.597,77.024,28.761,76.972,28.94,77.017z"></path><path d="M35.113,78.687c-0.333-0.037-0.688,0.398-0.291,0.531C35.113,79.316,35.335,78.873,35.113,78.687z"></path><path d="M38.492,80.095c0.111-0.196,0-0.272-0.012-0.401C38.05,79.468,37.966,80.275,38.492,80.095z"></path><path d="M30.352,78.058c0.117-0.016,0.252,0.003,0.334-0.078c0.111,0.054,0.084,0.182,0.247,0.207  c0.066-0.024,0.112-0.086,0.198-0.074c0.011-0.129,0.007-0.252-0.13-0.303c-0.163-0.105-0.225,0.144-0.309-0.004  C30.655,76.998,29.791,77.729,30.352,78.058z"></path><path d="M43.237,81.514c-0.223,0.019-0.308-0.1-0.454,0.041c0.044,0.124,0.056,0.264,0.21,0.328c0.091-0.084,0.198-0.138,0.26-0.276  C43.224,81.588,43.217,81.559,43.237,81.514z"></path><path d="M42.248,81.572c0.11-0.642-0.75-0.169-0.106,0.056C42.165,81.585,42.205,81.578,42.248,81.572z"></path><path d="M40.397,81.106c0.159,0.144,0.531,0.202,0.589-0.045C40.927,80.809,40.539,80.858,40.397,81.106z"></path><path d="M28.062,78.036c0.085-0.094,0.166-0.195,0.202-0.381c0.161,0.067,0.237-0.023,0.332-0.078  c0.078,0.061,0.107,0.146,0.261,0.166c0.098-0.07,0.229-0.079,0.259-0.276c-0.404-0.166-0.642-0.219-1.034-0.088  c-0.074,0.12,0.117,0.095,0.073,0.198c-0.17,0-0.336,0.008-0.409,0.187C27.858,77.85,27.822,78.018,28.062,78.036z"></path><path d="M29.493,78.419c0.107-0.051,0.11-0.196,0.153-0.219c0.093,0.052,0.039,0.183,0.207,0.194  c0.02-0.048,0.041-0.092,0.105-0.057c0.147-0.381-0.286-0.804-0.438-0.308c-0.138-0.067-0.209-0.011-0.307-0.004  c-0.021,0.067-0.041,0.135-0.061,0.203C29.226,78.314,29.317,78.389,29.493,78.419z"></path><path d="M34.915,80.085c0.297,0.222,0.787,0.086,0.819-0.374c-0.317-0.146-0.411,0.121-0.71,0.008  C34.988,79.842,34.952,79.963,34.915,80.085z"></path><path d="M38.006,80.833c0.059,0.168,0.257,0.128,0.435,0.173c0.18-0.337-0.068-0.561-0.35-0.458  C38.052,80.721,37.99,80.691,38.006,80.833z"></path><path d="M41.478,81.783c-0.174-0.162-0.404-0.248-0.438,0.134C41.148,82.108,41.465,82.125,41.478,81.783z"></path><path d="M30.612,78.666c-0.047-0.224-0.415-0.365-0.511-0.064c0.022,0.136,0.116,0.232,0.316,0.271  C30.479,78.797,30.577,78.79,30.612,78.666z"></path><path d="M42.045,81.952c-0.056,0.155-0.033,0.268,0.078,0.333c0.041,0.013,0.08,0.024,0.121,0.037  c0.109-0.094,0.104-0.107,0.126-0.271C42.328,81.972,42.122,81.911,42.045,81.952z"></path><path d="M33.536,79.673c-0.056,0.114,0.064,0.248,0.054,0.414C34.555,80.337,33.876,78.999,33.536,79.673z"></path><path d="M39.645,81.411c0.133,0.064,0.136,0.199,0.328,0.23c0.032-0.107,0.085-0.227,0.045-0.296  C39.853,81.292,39.696,81.256,39.645,81.411z"></path><path d="M28.706,78.095c-0.246,0.005-0.108,0.273-0.028,0.39C29.093,78.602,29.149,78.038,28.706,78.095z"></path><path d="M31.307,79.448c0.096,0.171,0.383,0.183,0.567,0.17C32.114,79.312,31.393,78.96,31.307,79.448z"></path><path d="M28.025,79.041c0.087-0.252-0.041-0.278,0.105-0.499c-0.145-0.16-0.495-0.29-0.604-0.048  c0.065,0.101,0.156,0.188,0.065,0.374C27.682,79.019,27.849,79.105,28.025,79.041z"></path><path d="M30.175,79.242c-0.012-0.073-0.11-0.1-0.072-0.199c-0.261-0.084-0.532-0.186-0.601,0.085  C29.552,79.367,30.04,79.512,30.175,79.242z"></path><path d="M39.199,82.162c0.182,0.072,0.22,0.221,0.45,0.267c0.131-0.103,0.045-0.279,0.149-0.353  C39.636,81.885,39.322,81.927,39.199,82.162z"></path><path d="M41.324,82.444c-0.063,0.114-0.075-0.065-0.162-0.048c-0.056,0.065-0.112,0.128-0.154,0.219  c0.054,0.172,0.259,0.23,0.405,0.122C41.347,82.659,41.438,82.496,41.324,82.444z"></path><path d="M38.874,82.064c0.02-0.067,0.04-0.135,0.061-0.203c-0.083-0.057-0.195-0.098-0.259-0.166  c-0.033,0.127-0.162,0.078-0.167,0.259C38.589,82.082,38.717,82.085,38.874,82.064z"></path><path d="M39.937,82.206c-0.164,0.174-0.074,0.398,0.122,0.478c0.152,0.003,0.31-0.231,0.256-0.409  C40.18,82.236,40.092,82.282,39.937,82.206z"></path><path d="M28.561,79.024c0.068,0.267,0.242,0.273,0.504,0.239C29.271,78.873,28.668,78.807,28.561,79.024z"></path><path d="M36.696,81.369c-0.247-0.143-0.32,0.036-0.408,0.187c0.089,0.132,0.276,0.256,0.433,0.174  C36.8,81.563,36.719,81.481,36.696,81.369z"></path><path d="M39.191,82.336c-0.035-0.2-0.141-0.191-0.369-0.243c-0.067,0.138-0.012,0.21-0.004,0.308  C38.989,82.466,39.145,82.502,39.191,82.336z"></path><path d="M37.549,82.507c0.15,0.089,0.231,0.113,0.406,0.122c0.107-0.161,0.07-0.201,0.162-0.393  C37.925,81.863,37.652,82.19,37.549,82.507z"></path><path d="M40.251,83.228c0.128,0.007,0.265,0.028,0.359-0.025C40.696,82.733,39.994,82.756,40.251,83.228z"></path><path d="M29.256,80.249c0.146-0.045,0.246-0.173,0.295-0.398C29.182,79.455,28.719,80.125,29.256,80.249z"></path><path d="M34.759,81.938c0.059-0.165,0.221-0.136,0.3-0.264c-0.025-0.3-0.569-0.272-0.669,0.021  C34.416,81.83,34.561,81.898,34.759,81.938z"></path><path d="M28.01,79.832c0.022,0.216,0.428,0.375,0.483,0.012C28.405,79.673,28.078,79.608,28.01,79.832z"></path><path d="M30.537,80.985c0.235,0.057,0.365-0.081,0.446-0.309c-0.427-0.325-0.696,0.122-0.94,0.337  C30.073,81.279,30.493,81.349,30.537,80.985z"></path><path d="M39.662,83.272c-0.131,0.186-0.12,0.404,0.175,0.45c0.108-0.095,0.104-0.107,0.126-0.271  C39.829,83.408,39.842,83.289,39.662,83.272z"></path><path d="M37.006,82.699c-0.072-0.028,0.017-0.145-0.032-0.186c-0.145-0.059-0.239-0.022-0.35-0.016  C36.49,82.749,36.91,82.849,37.006,82.699z"></path><path d="M38.271,83.342c0.093-0.059,0.231-0.032,0.248-0.235c-0.048-0.088-0.229-0.103-0.354-0.149  C38.077,83.152,38.202,83.233,38.271,83.342z"></path><path d="M39.001,83.561c0.016-0.098,0.002-0.182-0.008-0.267c-0.182-0.031-0.231-0.057-0.337-0.057  c-0.02,0.067-0.04,0.135-0.061,0.203C38.743,83.591,38.811,83.546,39.001,83.561z"></path><path d="M28.712,80.439c-0.027,0.174,0.084,0.273,0.305,0.312c0.05-0.077,0.125-0.105,0.183-0.167  C29.102,80.403,28.892,80.254,28.712,80.439z"></path><path d="M27.297,80.148c0.088,0.34,0.402,0.289,0.734,0.353C28.138,80.075,27.533,79.843,27.297,80.148z"></path><path d="M28.416,80.836c0.136-0.173,0.167-0.496-0.044-0.587c-0.12,0.094-0.222,0.221-0.297,0.397  C28.148,80.732,28.241,80.807,28.416,80.836z"></path><path d="M32.769,82.094c0.184-0.374-0.434-0.614-0.487-0.146C32.398,82.141,32.583,82.164,32.769,82.094z"></path><path d="M37.607,83.498c0.134-0.264-0.121-0.408-0.306-0.312C37.207,83.427,37.434,83.587,37.607,83.498z"></path><path d="M38.977,83.642c-0.198,0.068-0.189,0.417-0.012,0.482C39.39,84.281,39.241,83.551,38.977,83.642z"></path><path d="M36.341,82.854c-0.171-0.065-0.326-0.101-0.373,0.065c0.089,0.066,0.148,0.147,0.301,0.179  C36.353,82.982,36.299,83.006,36.341,82.854z"></path><path d="M36.82,83.615c0.067-0.138,0.012-0.21,0.004-0.308c-0.204-0.086-0.366-0.09-0.397,0.146  C36.565,83.553,36.622,83.622,36.82,83.615z"></path><path d="M27.769,81.085c0.014-0.08,0.072-0.076,0.088-0.151c0.014-0.086-0.085-0.112-0.073-0.199  c-0.292-0.005-0.509-0.425-0.736-0.044C27.166,80.881,27.479,81.093,27.769,81.085z"></path><path d="M35.664,83.049c-0.149-0.066-0.258-0.059-0.32,0.037C35.385,83.22,35.66,83.322,35.664,83.049z"></path><path d="M28.307,81.202c0.114,0.042,0.148,0.125,0.261,0.167c0.098-0.083,0.213-0.134,0.178-0.3  C28.609,80.911,28.31,80.908,28.307,81.202z"></path><path d="M35.633,83.304c-0.076,0.2-0.019,0.327,0.146,0.397c0.086,0.013,0.112-0.086,0.198-0.073  C36.024,83.385,35.883,83.313,35.633,83.304z"></path><path d="M38.146,84.056c-0.083,0.241,0.147,0.424,0.345,0.324c0.032-0.074-0.019-0.103,0.008-0.174  C38.452,84.118,38.271,84.103,38.146,84.056z"></path><path d="M35.478,83.523c-0.145-0.095-0.238-0.143-0.183-0.275c-0.164-0.054-0.32-0.089-0.372,0.065  c-0.032,0.176,0.32,0.144,0.146,0.397C35.299,83.754,35.472,83.817,35.478,83.523z"></path><path d="M29.703,81.708c-0.248-0.114-0.459,0-0.421,0.228c0.104,0.085,0.233,0.159,0.352,0.149  C29.738,81.974,29.748,81.826,29.703,81.708z"></path><path d="M31.33,82.327c-0.192-0.414-0.739,0.271-0.191,0.341C31.267,82.581,31.333,82.521,31.33,82.327z"></path><path d="M37.426,84.105c-0.101,0.164-0.04,0.133-0.046,0.296c0.152,0.071,0.246,0.035,0.35,0.017  C37.818,84.162,37.547,84.075,37.426,84.105z"></path><path d="M36.492,83.826c-0.109-0.032-0.217-0.064-0.324-0.097c-0.115,0.211,0.071,0.278-0.081,0.418  C36.329,84.234,36.524,84.059,36.492,83.826z"></path><path d="M31.659,83c0.121,0.024,0.096,0.129,0.219,0.154C32.431,83.057,31.79,82.314,31.659,83z"></path><path d="M36.562,84.333c0.102,0.122,0.352,0.257,0.401-0.013C36.958,84.129,36.562,84.004,36.562,84.333z"></path><path d="M28.013,81.6c-0.128,0.106-0.187,0.285-0.187,0.474c0.124,0.001,0.087,0.088,0.189,0.101  c0.133-0.05,0.217-0.188,0.313-0.304C28.227,81.778,28.252,81.617,28.013,81.6z"></path><path d="M30.966,83.102c0.066-0.161,0.039-0.271,0.026-0.39C30.487,82.554,30.49,83.259,30.966,83.102z"></path><path d="M37.636,84.875c-0.027,0.259,0.092,0.257,0.24,0.381c0.02-0.048,0.04-0.093,0.104-0.057  C38.083,84.946,37.849,84.871,37.636,84.875z"></path><path d="M27.164,81.92c-0.194,0.44,0.526,0.461,0.486,0.146C27.521,81.893,27.374,81.836,27.164,81.92z"></path><path d="M34.4,84.173c-0.111,0.27,0.189,0.463,0.372,0.377C34.912,84.295,34.62,84.125,34.4,84.173z"></path><path d="M34.777,84.684c0.029,0.019,0.037,0.048,0.017,0.093c0.09,0.054,0.168,0.114,0.312,0.138  c0.192-0.15,0.223-0.256,0.198-0.515C35.056,84.358,34.931,84.547,34.777,84.684z"></path><path d="M35.589,84.484c-0.025,0.183-0.129,0.409-0.025,0.522c0.178-0.03,0.333-0.098,0.378-0.373  C35.85,84.569,35.739,84.516,35.589,84.484z"></path><path d="M36.952,85.245c0.165,0.077,0.193-0.103,0.274-0.183C37.034,84.727,36.586,85.039,36.952,85.245z"></path><path d="M33.836,84.137c-0.016,0.055-0.032,0.108-0.048,0.162c0.091,0.125,0.161,0.186,0.34,0.19  C34.289,84.243,34.037,84.08,33.836,84.137z"></path><path d="M31.039,83.3c-0.287-0.09-0.438,0.072-0.54,0.325c0.061,0.058,0.089,0.133,0.166,0.182  C30.857,83.675,31.027,83.628,31.039,83.3z"></path><path d="M36.023,85.1c0.091,0.042,0.132,0.109,0.271,0.125c0.02-0.067,0.04-0.135,0.061-0.203  C36.204,84.931,36.079,84.882,36.023,85.1z"></path><path d="M32.723,84.024c-0.103,0.309,0.173,0.331,0.355,0.283c0.009-0.133-0.005-0.086,0.061-0.203  C32.947,84.015,32.893,83.984,32.723,84.024z"></path><path d="M33.253,84.316c-0.054,0.247-0.11,0.327-0.053,0.47c0.143,0.054,0.219-0.016,0.35,0.016  C33.683,84.515,33.559,84.366,33.253,84.316z"></path><path d="M33.898,85.26c0.268,0.119,0.385-0.042,0.474-0.256C34.212,84.647,33.824,84.996,33.898,85.26z"></path><path d="M28.285,83.493c0.017,0.138,0.102,0.24,0.316,0.271c0.034-0.042,0.071-0.079,0.118-0.097  C28.843,83.324,28.403,83.102,28.285,83.493z"></path><path d="M35.118,85.316c-0.016,0.197-0.095,0.216-0.067,0.377c0.249,0.1,0.452-0.061,0.404-0.321  C35.337,85.342,35.197,85.271,35.118,85.316z"></path><path d="M33.764,85.264c0.072-0.238-0.049-0.374-0.292-0.353c-0.007,0.133-0.104,0.098-0.113,0.231  c0.169,0.022,0.132,0.156,0.301,0.179C33.681,85.278,33.724,85.271,33.764,85.264z"></path><path d="M29.892,83.885c-0.198-0.072-0.32-0.005-0.369,0.199c0.062,0.081,0.13,0.157,0.248,0.207  C30.01,84.226,29.832,83.938,29.892,83.885z"></path><path d="M31.696,84.646c-0.037-0.176-0.196-0.192-0.353-0.15c-0.135,0.231,0.074,0.277,0.198,0.369  C31.561,84.731,31.694,84.81,31.696,84.646z"></path><path d="M34.174,85.52c0.072,0.097,0.197,0.166,0.381,0.202C34.752,85.377,34.252,85.166,34.174,85.52z"></path><path d="M30.845,84.833c0.113,0.041,0.146,0.125,0.259,0.166c0.117-0.089,0.123-0.145,0.139-0.312  C31.095,84.545,30.854,84.533,30.845,84.833z"></path><path d="M29.405,84.181c-0.09-0.054-0.168-0.114-0.313-0.138c-0.076,0.097-0.069,0.206-0.056,0.337  c0.167,0.118,0.313,0.105,0.384-0.106C29.393,84.256,29.384,84.226,29.405,84.181z"></path><path d="M33.558,85.512c-0.091,0.175-0.001,0.25-0.027,0.389c0.174,0.009,0.353,0.024,0.409-0.187  C33.929,85.588,33.707,85.456,33.558,85.512z"></path><path d="M31.441,85.055c-0.116,0.28,0.204,0.483,0.414,0.389C31.952,85.201,31.673,85.011,31.441,85.055z"></path><path d="M32.609,85.582c-0.068,0.357-0.239,0.265-0.397,0.588c0.042,0.121,0.216,0.169,0.354,0.15  c0.174-0.106-0.051-0.258,0.044-0.296c0.229-0.084,0.277,0.228,0.486,0.146C33.139,85.863,32.982,85.664,32.609,85.582z"></path><path d="M30.2,85.214c0.034-0.099,0.065-0.193,0.032-0.255c-0.22-0.03-0.46-0.096-0.559,0.098  C29.677,85.304,30.054,85.253,30.2,85.214z"></path><path d="M30.699,85.761c0.209-0.205-0.183-0.483-0.373-0.376C30.193,85.637,30.489,85.804,30.699,85.761z"></path><path d="M29.686,85.458c0.125-0.389-0.518-0.382-0.4,0.012c0.073-0.141,0.116,0.054,0.226-0.021  c-0.073,0.131,0.014,0.174-0.044,0.297c0.185,0.101,0.162,0.112,0.341,0.19C30.001,85.774,30.018,85.513,29.686,85.458z"></path><path d="M31.746,85.81c-0.028,0.095-0.106,0.098-0.114,0.231c0.133,0.114,0.187,0.095,0.301,0.178  c0.121-0.084,0.127-0.177,0.097-0.324C31.878,85.858,31.856,85.903,31.746,85.81z"></path><path d="M31.044,86.085c-0.232-0.123-0.392-0.091-0.579-0.129c-0.024,0.082-0.049,0.163-0.073,0.243  c0.22,0.19,0.337,0.321,0.608,0.182C31.075,86.25,30.986,86.208,31.044,86.085z"></path><path d="M29.93,85.973c-0.148,0.315,0.194,0.478,0.385,0.335C30.365,86.062,30.159,85.887,29.93,85.973z"></path><path d="M71.767,45.509c-0.147,0.474,0.63,0.361,0.52-0.11C72.127,45.382,71.934,45.387,71.767,45.509z"></path><path d="M25.177,85.17c0.239,0.502,0.266,1.153,0.731,1.544c0.04,0.012,0.08,0.024,0.121,0.037c0.094-0.122,0.259-0.11,0.312-0.305  c0.734-0.191,1.643,0.246,2.531,0.404c1.669,0.295,3.353,0.372,5.027,0.178c1.016-0.118,2.023-0.388,3.049-0.591  c0.99-0.197,1.979-0.49,2.879-0.906c1.803-0.835,3.61-1.645,5.357-2.551c0.879-0.457,1.729-0.958,2.594-1.434  c2.525-1.389,5.164-3.002,7.382-5.039c0.73-0.668,1.497-1.275,2.177-1.956c1.362-1.363,2.832-2.806,4.148-4.415  c1.374-1.678,2.612-3.146,3.729-4.938c0.883-1.416,1.805-2.737,2.526-4.458c0.602-1.433,1.352-3.197,2.004-4.924  c0.827-2.189,1.885-4.128,2.715-6.566c0.757-2.222,1.377-4.474,1.989-6.651c0.622-2.217,1.21-4.435,1.373-6.659  c0.037-0.521-0.061-1.089-0.078-1.659c-0.018-0.541,0.029-1.081-0.062-1.565c-0.19-1-0.374-2.002-0.614-2.967  c-0.233-0.933-0.705-1.854-1.223-2.707c-0.541-0.892-1.064-1.738-1.697-2.452c-0.729-0.822-1.408-1.507-1.985-2.229  c-0.622-0.777-1.056-1.608-1.539-2.537c-0.483-0.933-1.243-1.555-2.013-2.281c-0.399-0.376-0.819-0.722-1.29-1.004  c-0.25-0.15-0.483-0.195-0.746-0.312c-1.275-0.567-1.698-1.738-2.439-2.629c-0.202-0.244-0.465-0.416-0.729-0.66  c-0.055-0.016-0.108-0.033-0.163-0.049c-1.233-0.144-2.12,0.356-3.056,0.764c-0.848,1.716-0.046,2.551,0.631,3.503  c0.423,0.594,0.72,1.265,1.182,1.812c0.865,1.025,2.305,1.714,2.833,2.791c0.27,0.552,0.17,1.175,0.361,1.743  c-4.386,2.806-6.459,9.776-8.218,15.658c-1.46,4.881-2.884,9.157-5.077,13.283c-0.706,1.328-1.525,2.54-2.291,3.821  c-1.478,2.47-3.347,4.447-5.214,6.351c-0.893,0.91-2.014,1.632-3.031,2.451c-1.013,0.816-2.093,1.598-3.087,2.346  c-2,1.504-4.148,2.978-5.92,5.167c-0.833,1.031-1.715,2.217-2.49,3.453c-1.028,1.638-2.062,3.587-2.27,5.374  c-0.049,0.419,0.048,0.931-0.068,1.261c-0.156,0.448-1.09,0.627-1.357,1.141C24.558,84.266,24.923,84.638,25.177,85.17z   M60.757,14.071c-0.163,0.217-0.064,0.543-0.304,0.572c0.045,0.088,0.084,0.182,0.142,0.263c-0.003,0.12-0.104,0.058-0.129,0.138  c-0.275-0.129-0.021-0.505-0.378-0.51c0.045,0.327-0.2,0.418-0.125,0.713c-0.166,0.027-0.275,0.161-0.479,0.122  c0-0.031-0.019-0.05-0.057-0.06c0-0.034,0.01-0.078,0.022-0.134c0.014-0.061,0.03-0.135,0.017-0.221l-0.001-0.016l-0.008-0.015  c-0.084-0.164-0.245-0.239-0.379-0.281l-0.014-0.004l-0.045-0.012l-0.04,0.023c-0.181,0.107-0.286,0.28-0.361,0.445l-0.026,0.062  l0.042,0.052c0.046,0.056,0.104,0.092,0.163,0.12c0.055,0.024,0.119,0,0.144-0.056c0.025-0.056,0-0.12-0.056-0.145  c-0.008-0.003-0.019-0.009-0.028-0.016c0.051-0.1,0.116-0.185,0.197-0.245c0.085,0.03,0.161,0.08,0.195,0.139  c0.004,0.044-0.009,0.104-0.027,0.182c-0.009,0.043-0.017,0.091-0.015,0.145c0.001,0.028,0.007,0.058,0.017,0.087l-0.02-0.002  c-0.008,0.026-0.017,0.054-0.024,0.081c-0.605,0.283-1-0.28-0.658-0.904c0.095,0.129,0.267-0.02,0.289-0.223  c0.415,0.192,0.524-0.436,0.056-0.337c0.135-0.17,0.314-0.258,0.556-0.231c-0.088,0.138,0.046,0.156,0.061,0.239  c0.103,0.063,0.105-0.056,0.187-0.032c-0.019-0.176,0.069-0.233-0.037-0.32c0.446-0.098,0.755-0.451,1.387-0.204  c-0.134,0.056-0.5,0.029-0.677,0.195c-0.064,0.16-0.007,0.253,0.183,0.275c0.09-0.212,0.409,0.002,0.475-0.256  c0.114,0.04-0.119,0.268-0.004,0.309C60.961,14.112,60.825,14.029,60.757,14.071z M64.445,16.809c0.054-0.06,0.301,0.062,0.26,0.166  C64.553,16.955,64.523,16.869,64.445,16.809z M66.74,61.281c-0.084-0.1,0.135-0.165,0.138-0.312  C66.966,61.076,66.782,61.207,66.74,61.281z M66.218,22.553c-0.021,0.045-0.013,0.075,0.016,0.093  c-0.02,0.11-0.167-0.015-0.17,0.126c-0.103-0.094-0.008-0.101-0.009-0.268C66.109,22.52,66.163,22.536,66.218,22.553z M66.84,19.292  c-0.145-0.013-0.128-0.112-0.114-0.21C66.815,19.124,66.907,19.164,66.84,19.292z M65.771,21.977  c0.105,0.068,0.123-0.025,0.216,0.02c-0.115,0.157-0.191,0.14-0.202,0.381c-0.079-0.203-0.36-0.154-0.442,0  c-0.131-0.032-0.104-0.148-0.26-0.166C65.234,21.99,65.702,22.354,65.771,21.977z M65.309,21.75  c0.032-0.132,0.023-0.352-0.069-0.507c0.016-0.074,0.076-0.07,0.09-0.149C65.717,21.247,65.489,21.494,65.309,21.75z M65.475,20.607  c-0.021,0.153-0.105,0.182-0.167,0.259c-0.059-0.092-0.053-0.221-0.025-0.36C65.381,20.521,65.438,20.559,65.475,20.607z   M64.862,21.175c0.071,0.04,0.038,0.138,0.178,0.142c-0.086,0.072-0.164,0.158-0.331,0.078  C64.764,21.328,64.82,21.266,64.862,21.175z M64.551,21.921c0.064,0.017,0.148,0.066,0.174,0.008c0.141,0.083,0.02,0.307,0.252,0.34  c-0.169,0.003-0.347-0.012-0.495,0.029C64.419,22.146,64.484,22.102,64.551,21.921z M64.643,20.579  c0.041,0.012,0.081,0.024,0.122,0.036c-0.012,0.189-0.141,0.162-0.207,0.248C64.463,20.782,64.621,20.651,64.643,20.579z   M26.519,80.092c0.07-0.177,0.133,0.155,0.207,0.194c0.12-0.028,0.27-0.003,0.315-0.17c0.075-0.12-0.116-0.095-0.072-0.199  c-0.14-0.027-0.269-0.034-0.36,0.025c-0.024-0.193,0.122-0.398,0.234-0.637c0.108,0.472,0.788,0.279,0.582-0.179  c-0.194-0.025-0.47,0.134-0.559,0.098c0.39-1.186,1.285-2.452,1.874-3.46c0.085,0.248,0.527,0.393,0.617,0.008  c0.002-0.035-0.028-0.052-0.017-0.094c-0.078-0.099-0.289-0.021-0.458-0.092c0.919-1.353,1.911-2.645,3.001-3.83  c0.177,0.168,0.404,0.197,0.506-0.069c-0.051-0.074-0.039-0.183-0.206-0.194c0.135-0.214,0.324-0.323,0.466-0.524  c0.115,0.163,0.381,0.208,0.511,0.065c0.012-0.142-0.015-0.264-0.224-0.288c1.238-1.091,2.637-2.117,3.883-3.081  c0.475-0.367,0.919-0.615,1.349-0.966c2.371-1.938,4.821-3.56,6.92-6.148c0.281-0.348,0.604-0.666,0.88-1.018  c0.896-1.147,1.794-2.297,2.551-3.656c0.138,0.003,0.217-0.103,0.373-0.065c0.086-0.2,0.22-0.307,0.405-0.321  c0.266-0.447,0.719-0.833,0.952-1.261c0.354-0.654,0.258-1.522,0.545-2.267c0.221-0.572,0.557-1.077,0.782-1.578  c0.975-2.168,1.65-4.385,2.495-6.278c0.122-0.303,0.037,0.023,0.005,0.133c-0.093,0.311-0.414,1.28,0.329,1.115  c0.117-0.407,0.6-1.295,0.137-1.639c-0.145-0.038-0.27-0.036-0.332,0.078c0.22-0.884,0.821-2.629,1.067-3.569  c0.091,0.064,0.201,0.118,0.353,0.15c0.104-0.193,0-0.272-0.065-0.374c-0.168-0.033-0.107-0.003-0.268,0.009  c1.777-5.779,3.566-12.912,8.233-16.007c-0.06,0.084-0.074,0.124-0.138,0.312c-0.037,0.179,0.281,0.166,0.252,0.34  c-0.279,0.043-0.731-0.009-1.054,0.127c-0.093,0.242-0.028,0.401,0.11,0.519c-1.01,0.953-1.548,2.365-2.041,3.72  c-0.212-0.077-0.368-0.051-0.467,0.081c-0.082,0.146,0.057,0.174,0.05,0.28c0.193-0.021,0.259-0.079,0.47,0.052  c0.124-0.022,0.175-0.181,0.345-0.118c0.288-0.59,1.136-0.66,1.557-1.213c-0.018,0.282-0.229,0.283-0.142,0.62  c-0.107,0.075-0.292,0.007-0.357,0.159c-0.047,0.162,0.106,0.215,0.171,0.316c-0.094,0.386-0.254,0.607-0.539,0.767  c0.039,0.092,0.146,0.147,0.195,0.236c-0.041,0.484-0.459,0.648-0.291,0.973c-0.153-0.01-0.248,0.087-0.301,0.263  c-0.068,0.151,0.147,0.148,0.144,0.264c-0.137,0.837-0.621,1.422-0.089,1.918c0.167-0.011,0.018-0.215,0.195-0.208  c-0.111-0.598,0.306-1.195,0.517-1.878c0.143,0.15,0.467,0.171,0.479-0.122c-0.02-0.138-0.269-0.172-0.394-0.162  c0.545-1.482,1.075-3.242,1.821-4.757c-0.113,0.716-0.215,1.983-0.688,2.446c0.117,0.31,0.134,0.716-0.186,0.917  c0.086,0.261,0.055,0.644,0.001,0.884c-0.078,0.12-0.202-0.039-0.361,0.024c-0.179,0.233,0.01,0.488,0.28,0.393  c-0.104,0.352-0.055,0.619,0.105,0.827c-0.173,0.09-0.155,0.312-0.039,0.43c0.114,0.066,0.16,0.003,0.255,0.033  c0.043-0.171,0.127-0.365-0.105-0.386c0.089-0.212,0.246-0.3,0.36-0.466c0.021-0.113,0.005-0.207-0.049-0.28  c0.969-2.16,1.096-4.488,1.474-6.408c0.073-0.075,0.177-0.094,0.236-0.194c-0.132-0.338-0.192-0.261-0.602-0.357  c0.007-0.083,0.037-0.179-0.072-0.199c0.07-0.079,0.259,0.062,0.376,0.069c0.083-0.037,0.146-0.109,0.195-0.208  c-0.186-0.233,0.072-0.53-0.013-0.843c-0.243-0.03-0.412,0.077-0.47,0.39c-0.161-0.285-0.52-0.061-0.705,0.142  c-0.069,0.173,0.085,0.227,0.17,0.316c0.3-0.001,0.272-0.27,0.47-0.39c0.149,0.095-0.147,0.329-0.064,0.511  c-0.271-0.104-0.4,0.057-0.628,0.033c0.113-0.123,0.002-0.108,0.031-0.256c-0.078,0.002-0.223-0.12-0.255-0.032  c-0.069-0.111,0.174-0.178,0.162-0.393c0.306,0.08,0.379-0.415,0.795-0.292c0.198-0.191-0.111-0.34,0.133-0.446  c0.261,0.214,0.864,0.612,1.091,0.193c0.044,0.089,0.14,0.152,0.301,0.179c0.078-0.043,0.158-0.085,0.251-0.102  c0.07-0.14-0.042-0.182,0.003-0.308c0.189,0.079,0.25-0.083,0.3-0.264c0.107,0.065,0.234,0.231,0.341,0.19  c0.106-0.149-0.028-0.429-0.085-0.6c-0.228-0.034-0.336,0.235-0.431-0.041c0.344-0.276,0.748,0.125,1.294,0.254  c-0.079,0.104-0.306-0.063-0.316,0.171c0.069,0.226,0.322,0.285,0.402,0.429c0.196-0.261,0.011-0.377-0.045-0.588  c0.35,0.14,0.749,0.077,1.104,0.153c0.071,0.016,0.427,0.075,0.458,0.093c0.16,0.091,0.375,0.518,0.543,0.693  c1.027,1.069,2.388,2.254,2.882,3.513c-0.362-0.081-0.509-0.562-0.88-0.75c-0.377-0.896-1.487-1.397-2.038-2.2  c-0.885,0.058-0.048,1.074,0.278,1.585c0.447,0.706,0.826,1.123,1.229,1.649c1.044,0.74,2.135,1.456,2.662,2.475  c0.096,0.028,0.099,0.106,0.231,0.114c0.049,0.347,0.194,0.642,0.231,0.997c-0.481-0.204-0.834-1.233-1.457-1.628  c-0.139-0.088-0.545-0.426-0.75-0.446c-0.495-0.047-0.555,0.749-0.194,1.091c1.09,0.636,1.062,1.876,1.377,2.93  c0.079,1.398,0.788,2.455,1.568,3.474c-0.147,2.98-1.22,6.062-2.134,9.348c-0.284-0.07-0.29-0.106-0.584-0.263  c-0.129-0.029-0.129,0.181-0.178,0.3c0.222,0.189,0.474,0.251,0.653,0.328c-0.045,0.149-0.089,0.297-0.134,0.446  c-0.081-0.396-0.682-0.407-0.754-0.137c-0.076,0.281,0.495,0.314,0.701,0.166c0.03,0.245-0.168,0.612-0.227,0.904  c-0.3,0.06-0.404-0.154-0.754-0.137c0.286-0.285-0.468-0.624-0.641-0.368c-0.122,0.31,0.488,0.348,0.629,0.409  c-0.128,0.085-0.119,0.316,0.077,0.333c-0.048,0.1-0.158,0.085-0.195,0.206c0.008,0.253,0.4,0.377,0.585,0.264  c0.026-0.119-0.149-0.303-0.024-0.361c0.334,0.188-0.126,0.682-0.093,0.9c-0.032-0.018-0.043,0.004-0.053,0.028  c-0.058,0.187-0.275,0.079-0.312,0.305c-0.07,0.176,0.135,0.179,0.154,0.223c-0.537,1.822-1.238,3.336-1.938,4.855  c-0.341-0.271-0.647,0.405-0.161,0.394c-0.171,0.441-0.692,0.515-1.128,0.812c-1.073,0.734-1.894,2.48-0.994,3.768  c-0.511,1.545-2.213,2.425-1.755,4.247c-1.474,2.628-3.098,4.591-4.812,6.779c-0.059-0.069-0.104-0.147-0.154-0.222  c-0.118,0.03-0.252,0.034-0.345,0.117c0.042,0.125,0.185,0.195,0.265,0.3c-0.406,0.55-0.882,0.971-1.292,1.514  c-0.113-0.105-0.158-0.038-0.325-0.097c-0.145,0.264,0.229,0.315-0.052,0.47c-0.127-0.057-0.063-0.216-0.235-0.248  c-0.17-0.063-0.241,0.057-0.346,0.118c-0.036,0.203,0.243,0.413,0.151,0.531c-0.104,0.14-0.384-0.153-0.49,0.163  c-0.082,0.135,0.163,0.093,0.167,0.182c-0.089,0.173-0.212,0.28-0.364,0.333c-0.105-0.024-0.072-0.121-0.127-0.17  c-0.161,0.015-0.29,0.092-0.408,0.187c0.054,0.106,0.166,0.181,0.327,0.23c-0.697,0.767-1.42,1.486-2.212,2.078  c-0.059-0.119,0.214-0.257,0.134-0.446c-0.432-0.192-0.322,0.343-0.562,0.406c-0.045,0.126,0.061,0.17,0.153,0.223  c-0.339,0.182-0.617-0.201-0.807,0.333c0.052,0.085,0.2,0.12,0.301,0.179c-0.519,0.574-1.123,0.986-1.711,1.432  c-0.056-0.166-0.354-0.284-0.457-0.093c-0.061,0.168,0.176,0.177,0.223,0.288c-0.06,0.101-0.163,0.119-0.234,0.195  c-0.12-0.05-0.067-0.191-0.196-0.235c-0.104,0.037-0.264-0.029-0.275,0.183c-0.037,0.123,0.112,0.144,0.208,0.194  c-0.2,0.197-0.386,0.421-0.67,0.463c0.036-0.099,0.066-0.194-0.02-0.227c-0.163-0.051-0.297-0.046-0.345,0.118  c-0.085,0.147,0.205,0.093,0.207,0.194c-0.645,0.614-1.429,1.111-2.2,1.595c-1.428,0.896-3.082,1.559-4.543,2.485  c-0.04-0.012-0.081-0.024-0.122-0.036c-2.276,1.118-4.459,2.41-6.947,3.136c-0.132-0.065-0.146-0.191-0.329-0.231  c-0.225,0.036-0.112,0.201-0.109,0.366c-0.364,0.015-0.647,0.184-1.024,0.179c0.103-0.083,0.228-0.125,0.3-0.264  c0.021-0.124-0.167-0.137-0.194-0.235c-0.138,0.038-0.255,0.117-0.341,0.252c-0.095-0.085-0.09-0.224-0.276-0.259  c-0.104-0.027-0.121,0.111-0.153,0.218c0.104,0.213,0.336,0.154,0.571,0.304c-0.423,0.182-0.911,0.245-1.381,0.338  c-0.03-0.166-0.025-0.349-0.281-0.393c-0.104-0.003-0.068,0.251-0.166,0.26c0.018,0.071,0.076,0.118,0.18,0.142  c-0.25,0.194-0.414,0.06-0.621-0.142c-0.214-0.026-0.129,0.256-0.232,0.329c-0.098-0.036-0.145,0.026-0.226,0.021  c-0.131-0.042-0.204-0.118-0.195-0.235c-0.156,0.005-0.317-0.001-0.34,0.251c-0.091-0.053-0.168-0.113-0.312-0.138  c-0.087-0.033-0.062,0.139-0.103,0.191c-0.124,0-0.265-0.028-0.389-0.028c-0.121-0.094-0.084-0.272-0.357-0.284  c-0.121,0.082-0.109,0.168-0.138,0.312c-0.905-0.082-2.029-0.123-3.024-0.375c0.217-0.205,0.453-0.098,0.676-0.195  c0.092-0.275-0.128-0.231-0.199-0.368c-0.089,0.023-0.209-0.011-0.222,0.154c-0.314-0.194-0.271-0.761-0.22-1.038  c-0.247-0.571-0.682-1.039-1.039-1.548c0.1-0.152,0.28-0.5,0.031-0.698c-0.202-0.101-0.222,0.136-0.385,0.106  c-0.076-0.412-0.698-0.53-0.832-0.912c-0.15,0.042-0.122,0.021-0.279,0.049c0.122-0.749,0.864,0.2,1.167-0.358  c-0.231-0.486-0.756,0.02-1.083-0.368C26.333,80.596,26.354,80.503,26.519,80.092z"></path><path d="M70.464,38.05c0.128-0.249,0.231-0.175,0.198-0.515c-0.048,0.055-0.13-0.154-0.312-0.138  c-0.019,0.029-0.025,0.08-0.064,0.069C70.274,37.698,70.289,37.917,70.464,38.05z"></path><path d="M71.256,45.002c-0.205,0.051-0.241,0.282-0.202,0.381c0.027-0.002,0.335,0.179,0.441,0  C71.45,45.237,71.493,45.045,71.256,45.002z"></path><path d="M58.167,44.446c-0.108-0.169-0.27-0.032-0.417-0.08c-0.075,0.13,0.015,0.173-0.045,0.295  c0.046,0.021,0.117,0.028,0.109,0.077C57.989,44.747,58.11,44.656,58.167,44.446z"></path><path d="M57.887,44.053c-0.164-0.173-0.479-0.15-0.49,0.163c0.097,0.09,0.201,0.177,0.354,0.15  C57.804,44.275,57.863,44.198,57.887,44.053z"></path><path d="M56.409,50.768c0.099,0.072,0.044,0.226,0.182,0.276c0.158,0.026,0.196-0.166,0.292-0.089  c-0.031-0.153-0.054-0.311-0.292-0.353C56.535,50.668,56.489,50.75,56.409,50.768z"></path><path d="M37.068,70.522c0.09,0.066,0.291,0.173,0.406,0.122c0.069-0.15-0.054-0.198-0.037-0.32  c-0.157-0.041-0.254-0.071-0.297-0.044C37.299,70.391,37.071,70.356,37.068,70.522z"></path><path d="M29.22,76.526c0.131,0.008,0.311-0.22,0.271-0.316c-0.021-0.114-0.352-0.193-0.483-0.012  C28.99,76.355,29.084,76.452,29.22,76.526z"></path><path d="M33.556,82.418c-0.077,0.093-0.005-0.176-0.021-0.227c-0.202-0.164-0.32,0.033-0.449,0.175  c-0.196-0.153-0.272,0.106-0.349-0.017c-0.162,0.165,0.043,0.467,0.251,0.341c0.108-0.079-0.013-0.186,0.113-0.232  C33.296,82.563,33.586,82.52,33.556,82.418z"></path><path d="M33.451,83.801c-0.037,0.156,0.04,0.25,0.223,0.287c0.107-0.012,0.116-0.206,0.206-0.247  c0.058,0.086,0.259,0.057,0.321-0.037c-0.046-0.24-0.318-0.184-0.401,0.013C33.647,83.745,33.554,83.781,33.451,83.801z"></path><path d="M31.141,85.318c-0.202-0.055-0.187-0.099-0.365-0.109c0,0.125-0.088,0.089-0.101,0.191c0.168,0.095,0.205,0.229,0.422,0.215  C31.154,85.493,31.066,85.45,31.141,85.318z"></path><path d="M31.097,85.615c-0.009,0.193-0.081,0.209-0.017,0.348c0.164,0.072,0.282,0.06,0.39,0.029  C31.555,85.684,31.306,85.612,31.097,85.615z"></path><path d="M64.581,49.59c0.19-0.582-0.405-1.343-0.755-1.463c-0.785-0.271-1.815,0.896-1.701,1.701c0.05,0.353,0.339,0.544,0.565,0.92  C63.554,51.009,64.323,50.383,64.581,49.59z"></path><path d="M62.443,63.089c0.305-0.288,0.293-0.658,0.467-0.965c-0.001,0.002,0.129-0.025,0.146-0.045  c0.281-0.362,0.244-1.076,0.546-1.383c0.103,0.013,0.066,0.1,0.19,0.101c0.179-0.32,0.634-0.129,0.888-0.309l0.003-0.019  c0.03,0.009,0.057,0.015,0.077,0.021c0.008,0.002,0.014,0.005,0.019,0.007c-0.021,0.049-0.046,0.091-0.081,0.127  c-0.067,0.07-0.167,0.127-0.283,0.179c-0.116,0.052-0.244,0.099-0.364,0.167c-0.073,0.04-0.099,0.132-0.058,0.205  c0.04,0.073,0.133,0.099,0.205,0.058l0,0c0.121-0.069,0.298-0.125,0.471-0.218c0.086-0.046,0.172-0.104,0.246-0.181  c0.075-0.077,0.138-0.176,0.172-0.294l0.01-0.033l0.01-0.04l-0.011-0.039c-0.018-0.07-0.065-0.129-0.114-0.163  c-0.048-0.034-0.095-0.049-0.135-0.061c-0.029-0.009-0.056-0.016-0.077-0.021l0.009-0.018c-0.059-0.116,0.091-0.177,0.004-0.308  c0.241,0.084,0.434-0.095,0.434-0.268c-0.062-0.105-0.261-0.112-0.365-0.109c-0.118-0.221,0.173-0.198,0.121-0.406  c-0.013-0.17-0.225-0.037-0.207-0.194c0.115-0.074,0.084-0.069,0.113-0.231c-0.176-0.019-0.188-0.125-0.353-0.15  c-0.145,0.068-0.231,0.243-0.45,0.175c0.09-0.417,0.09-0.886,0.3-1.148c0.108,0.123,0.209,0.25,0.174,0.45  c-0.128-0.05-0.208-0.011-0.25,0.102c-0.037,0.19,0.062,0.306,0.292,0.352c0.082-0.077,0.203-0.085,0.219-0.288  c0.529,0.08,0.347-0.455,0.619-0.743c-0.149-0.141-0.354-0.105-0.486-0.146c-0.041,0.071-0.019,0.261-0.143,0.178  c0.004-0.183-0.104-0.306-0.279-0.393c0.017-0.098-0.034-0.201,0.101-0.191c0.101,0.256,0.511,0.267,0.56-0.098  c-0.024-0.116-0.144,0.037-0.15-0.089c0.076-0.112,0.268-0.009,0.289-0.223c-0.012-0.181-0.25-0.205-0.423-0.215  c-0.099,0.19,0.043,0.249,0.013,0.402c-0.461-0.104-0.077-0.537,0.178-0.743c-0.065-0.043-0.162-0.071-0.179-0.141  c0-0.186,0.208-0.308,0.068-0.377c-0.016-0.011-0.2-0.129-0.337-0.056c-0.057,0.222-0.059,0.5-0.097,0.766  c-0.098-0.035-0.192-0.064-0.255-0.033c-0.087,0.183-0.021,0.284,0.012,0.402c-0.347,0.091-0.359,0.183-0.449,0.616  c-1.072,1.68-1.562,3.432-2.501,5.261c-0.092-0.045-0.11,0.048-0.215-0.02c-0.057,0.532-0.407,1.085-0.801,1.351  c-0.11,0.421-0.534,0.766-0.754,1.189c-0.159-0.023-0.301-0.013-0.356,0.158c0.131,0.156,0.01,0.295-0.065,0.511  c0.42,0.596,1.099-0.399,1.529-0.824c0.129-0.128,0.446-0.306,0.562-0.407c0.41-0.354,0.672-0.748,0.996-1.116  C62.29,63.111,62.394,63.138,62.443,63.089z M64.007,59.05c0.104,0.118,0.167,0.02,0.377,0.068c-0.138,0.216-0.004,0.24,0,0.442  c0.052-0.072,0.223,0.078,0.268-0.008c0.073,0.062,0.088,0.157,0.049,0.28c-0.299-0.112-0.438,0.07-0.71,0.009  c-0.084,0.228-0.026,0.539-0.348,0.426c0.057-0.189,0.113-0.378,0.17-0.568c0.183,0.002,0.374,0.023,0.45-0.175  c-0.001-0.17-0.142-0.162-0.302-0.178C63.978,59.247,63.943,59.174,64.007,59.05z"></path><path d="M35.603,78.082c0.06,0.236,0.125,0.28,0.059,0.548c1.07,0.477,2.268-0.195,2.54-1.405c-0.282-0.481-1.108-0.525-1.578-0.34  C36.29,77.295,35.913,77.628,35.603,78.082z"></path><path d="M67.552,24.195c-0.073-0.018-0.147,0.027-0.165,0.102c-0.017,0.073,0.028,0.147,0.102,0.164  c0.101,0.024,0.2,0.049,0.297,0.078c0.239,0.071,0.457,0.167,0.616,0.319c0.055,0.052,0.142,0.05,0.194-0.004  c0.051-0.055,0.05-0.142-0.005-0.194c-0.208-0.198-0.47-0.306-0.727-0.383C67.758,24.245,67.654,24.219,67.552,24.195z"></path><path d="M58.888,56.59c-0.23,0.144-0.416,0.32-0.59,0.489c-0.167,0.163-0.325,0.319-0.493,0.447  c-0.209,0.071-0.327,0.312-0.559,0.341c-0.366,0.533-0.771,0.991-1.102,1.615c-0.589,1.117-1.537,1.936-2.094,2.864  c0.015-0.042,0.061-0.016,0.028,0.053c0.265,0.205,0.44-0.265,0.701-0.276c0.839-0.848,1.679-1.898,2.183-3.015  c0.372-0.382,0.703-0.841,1.073-1.226l0,0l0,0c0.212-0.157,0.388-0.335,0.558-0.5c0.17-0.166,0.333-0.318,0.519-0.433  c0.099-0.062,0.129-0.193,0.067-0.292C59.117,56.559,58.985,56.528,58.888,56.59z"></path><path d="M30.436,74.242L30.436,74.242c0.072,0.002,0.129,0.002,0.178,0.006c0.031,0.045,0.063,0.093,0.105,0.144  c0.06,0.071,0.141,0.146,0.257,0.181c0.04,0.012,0.084,0.016,0.13,0.017c0.081,0.093,0.093,0.222,0.088,0.362  c-0.249,0.077-0.407-0.269-0.616-0.007c-0.054,0.283,0.257,0.29,0.413,0.389c-0.264,0.034-0.376,0.192-0.477,0.563  c0.083,0.22,0.371,0.228,0.539,0.118c0.065-0.116,0.001-0.161,0.032-0.256c0.122-0.004,0.244-0.008,0.304-0.13  c0.038-0.078-0.095-0.175-0.078-0.333c0.188-0.177,0.548-0.038,0.844-0.013c0.075-0.131-0.014-0.173,0.044-0.296  c0.443-0.002,0.559-0.797,0.928-0.738c0.103,0.013-0.077,0.178,0.086,0.157c0.185,0.069,0.302,0.014,0.357-0.158  c-0.055-0.151-0.13-0.237-0.329-0.231c-0.011-0.131-0.015-0.265-0.065-0.374c-0.227-0.094-0.467-0.377-0.811-0.242  c-0.025-0.205-0.502-0.235-0.522-0.023c0.02,0.125,0.134,0.199,0.17,0.316c-0.249,0.25-0.669,0.182-0.837,0.582  c-0.014-0.002-0.026-0.005-0.04-0.004c-0.03,0.003-0.051,0.001-0.068-0.004c-0.031-0.01-0.063-0.032-0.104-0.081  c-0.04-0.047-0.081-0.115-0.136-0.186l-0.035-0.047l-0.058-0.012c-0.117-0.025-0.216-0.014-0.286-0.017  c-0.088-0.004-0.162,0.064-0.165,0.152C30.279,74.164,30.347,74.238,30.436,74.242z"></path><path d="M32.773,85.236c0.034,0.01,0.069,0.017,0.108,0.021c0.064,0.007,0.123-0.038,0.13-0.103c0.008-0.064-0.038-0.123-0.104-0.13  c-0.025-0.003-0.049-0.008-0.067-0.013c-0.063-0.02-0.092-0.045-0.119-0.085c-0.042-0.058-0.065-0.158-0.105-0.268  c-0.021-0.055-0.049-0.113-0.095-0.167c-0.045-0.052-0.11-0.097-0.188-0.12c-0.034-0.01-0.07-0.017-0.11-0.021  c-0.063-0.005-0.121,0.043-0.126,0.107c-0.006,0.064,0.042,0.121,0.107,0.126l0,0c0.023,0.001,0.045,0.006,0.062,0.011  c0.052,0.017,0.072,0.037,0.098,0.075c0.037,0.057,0.061,0.161,0.104,0.273c0.023,0.057,0.055,0.116,0.104,0.169  C32.621,85.167,32.689,85.211,32.773,85.236z"></path><path d="M64.915,61.353c-0.464-0.083-0.86,0.037-1.257,0.042c-0.071,0.002-0.128,0.061-0.125,0.132  c0.001,0.071,0.06,0.127,0.13,0.126l0,0c0.442-0.011,0.817-0.119,1.206-0.046c0.069,0.013,0.136-0.034,0.149-0.104  C65.031,61.433,64.985,61.366,64.915,61.353z"></path><path d="M36.551,71.479c0.282,0.169,0.563,0.307,0.8,0.494l-0.009,0.001c-0.13,0.208-0.423,0.474-0.312,0.747  c0.847,0.352,1.365,0.094,1.756-0.403c-0.005-0.304-0.144-0.536-0.2-0.811c-0.227-0.106-0.377-0.068-0.522-0.023  c0.034-0.099,0.063-0.194,0.031-0.256c-0.11-0.142-0.413-0.267-0.481-0.012c-0.013,0.218,0.149,0.253,0.198,0.369  c-0.095,0.055-0.165,0.155-0.275,0.182l-0.005,0.028c-0.271-0.222-0.577-0.367-0.851-0.533c-0.06-0.036-0.137-0.016-0.173,0.043  C36.472,71.365,36.491,71.443,36.551,71.479z"></path></svg>