<svg xmlns="http://www.w3.org/2000/svg" xmlns:xlink="http://www.w3.org/1999/xlink" version="1.1" x="0px" y="0px" viewBox="0 0 100 125" enable-background="new 0 0 100 100" xml:space="preserve"><g><path d="M5.8,44.5c0-3.6,0.6-6.8,0.7-10c0.2-3.4,1-6.7,1.7-10c0.6-2.7,1.9-5.2,2.9-7.7c1.2-3.1,4-4.7,6.8-6.4   c6-3.6,12.6-4,19.3-3.4C43,7.5,48.6,8.5,54.2,9.6c4.1,0.9,8.2,1.6,12.1,3.2c4.6,1.8,9,4,12.6,7.3c2.8,2.6,5.1,5.7,6.7,9.2   c1.4,2.9,2.9,5.7,3.3,8.9c0.1,0.5,0.3,1,0.5,1.4c2.3,3.8,2.3,8.2,3,12.4c0,0.1,0,0.3,0,0.4c-0.9,3.1-0.5,6.5-1.3,9.6   c-0.1,0.5-0.3,1-0.3,1.4c0,2.5-1,4.8-2,7c-1.7,3.8-4.6,6.4-7.7,8.9c-0.7,0.5-1.5,0.9-2.3,1.2c-1.9,0.7-3.8,1.6-5.6,2.5   c-5.3,2.6-10.9,4.3-16.7,5.6c-4.4,1-8.8,1.7-13.3,1.7c-3.1,0.1-6.2,0.5-9.3,0.9c-8.8,1.2-16.8-2.5-21.2-10.3c-2-3.5-2.9-7.3-4-11.1   c-1.7-6.3-2.2-12.7-2.7-19.2C6.1,48.5,5.7,46.3,5.8,44.5z M16.6,83L16.6,83c0.4,1,1,1.8,1.8,2.5c3.5,2.9,7.3,4.5,12,3.8   c1.7-0.3,3.3-0.7,4.6-1.9c1.4-1.3,4-5.7,4.6-7.7c1.8-6.3,3.5-12.6,4.4-19.1c0.5-3.8,0.2-7.7,0.3-11.6c0.1-2.3-0.8-4.4-0.8-6.7   c0-2.2-0.4-4.2-1.2-6.2c-1.6-4.1-3.1-8.3-5.8-11.9c-1.2-1.6-2.6-3-3.6-4.7c-2-3.4-4.7-6.1-7.9-8.3c-1.3-0.9-2.4-0.9-3.8-0.5   c-1.7,0.5-3.1,1.7-4.7,2.5c-2,1-3.2,2.7-4,4.5c-1.9,4.1-3.4,8.4-4.1,12.8c-0.6,3.8-0.8,7.7-1,11.6C7,48.5,8,55,8.7,61.5   c0.4,3.6,1.5,7,2.3,10.5c0.6,2.8,1.7,5.4,2.9,7.9C14.6,81.2,15.4,82.2,16.6,83z M35.1,89.4c0.5,0.5,1,0.2,1.4,0.2   c2.3,0,4.7-0.6,7-0.4c3.1,0.1,6.1-0.4,9.1-1c7.7-1.5,15.2-3.6,22.1-7.4c0.4-0.2,0.9-0.5,1.4-0.6c3.2-0.6,5.4-2.7,7.7-4.8   c2.7-2.4,4.2-5.5,5.3-8.8c0.8-2.4,1.1-5,1.3-7.5c0.4-3.9,0.9-7.8,0.1-11.8c-0.5-2.2-0.8-4.4-1.9-6.5c-0.6-1.2-1.1-2.4-1.4-3.8   c-0.9-4.3-3.1-8-5.5-11.6c-0.9-1.4-2-2.8-3.2-3.9c-5-4.6-11-7.5-17.6-9.1c-5.7-1.3-11.4-2.6-17.1-3.4c-4.3-0.6-8.6-1.3-12.9-1   c-1.6,0.1-3.2,0.3-5,0.8c2.1,1.6,3.1,3.8,4.9,5.3c1.4,1.2,2.4,2.5,3.2,4.2c0.3,0.6,0.7,1.2,1.2,1.8c3.3,4,6.1,8.3,7.7,13.3   c1,2.9,2.3,5.6,2,8.8c0,0.3,0,0.7,0.1,1.1c1.1,4.8,0.7,9.7,0.6,14.5c0,1.9-0.3,3.8-0.7,5.7c-0.8,3.4-1.2,6.9-2.2,10.3   c-0.4,1.5-0.8,3-1.2,4.5c-0.2,0.6-0.1,1.1,0.6,1.3c0.7,0.3,1.3,0.1,1.5-0.6c0.4-1.1,0.7-2.3,1.1-3.4c0.3-1.1,0.6-2.2,0.9-3.3   c0.1-0.3,0.3-0.7,0.7-0.6c0.4,0.1,0.5,0.5,0.5,0.8c-0.1,1.2-0.4,2.4-0.8,3.5c-0.3,1,0,1.3,1.2,1.8c0.9,0.4,1.3-0.1,1.5-0.9   c0.4-1.8,1.2-3.5,1.4-5.3c0-0.3,0.1-0.7,0.2-1c0.2-0.4,0.3-1.1,1-0.9c0.5,0.1,0.5,0.6,0.4,1.1c0,0.3-0.2,0.7-0.2,1   c-0.3,1.8-0.8,3.6-1.4,5.3c-0.5,1.7-0.4,1.9,1.3,2.3c0.5,0.1,1,0.3,1.4-0.2c0.4-0.5,0.4-1-0.1-1.5c-0.6-0.6-0.6-1.2,0.2-1.5   c1.1-0.3,1.3-1.1,1.6-2.1c0.4-1.4,0.8-2.7,1-4.1c0.1-1.1,0.4-2.2,0.7-3.3c0.1-0.5,0.2-1.3,1-1c0.6,0.2,0.4,0.8,0.3,1.3   c-0.1,0.8-0.3,1.7-0.5,2.5c-0.4,1.9-0.9,3.8-1.3,5.8c-0.2,0.8-0.1,1.6,0.8,1.9c1.6,0.5,2.2,0.9,2.7-1.3c0.8-3.6,1.7-7.3,2.6-10.9   c0.2-0.7,0.4-1.6,1.2-1.4c1,0.3,0.5,1.2,0.2,1.8c-0.9,2.5-1.5,5.2-2,7.8c-0.3,1.4,0.1,2,1.5,2.3c1.3,0.3,1.4-0.8,1.5-1.6   c0.6-2.6,1.5-5.1,1.8-7.8c0-0.5,0.2-1,0.9-0.9c0.7,0.1,0.7,0.7,0.6,1.2c-0.2,1.1-0.4,2.2-0.7,3.3c-0.5,1.9-1,3.8-1.5,5.7   c-0.1,0.5-0.2,1,0.5,1.1c0.6,0.1,1.2,0.2,1.4-0.6c0.2-0.7,0.6-1.5-0.4-2c-0.5-0.3-0.4-0.9,0.1-1c1.7-0.3,1.6-1.8,2-2.9   c0.3-1.1,0.5-2.2,0.9-3.3c0.1-0.5,0.3-1,1-0.8c0.6,0.2,0.6,0.8,0.5,1.3c-0.1,0.6-0.4,1.2-0.6,1.8c-0.3,1-0.6,2-0.9,3.1   c-0.2,0.7,0.2,1.2,1,1.4c0.7,0.2,1.3-0.1,1.4-0.8c0.3-2.2,1.5-4.2,1.7-6.5c0-0.6,0.2-1.1,0.4-1.6c0.1-0.4,0.4-0.8,1-0.6   c0.4,0.1,0.4,0.5,0.4,0.9c0,0.4-0.1,0.8-0.2,1.2c-0.3,1.1-0.6,2.2-0.9,3.3c-0.2,0.6-0.1,1.2,0.6,1.3c0.7,0.1,1.3,0.1,1.5-0.7   c0.1-0.4,0.3-0.8,0.3-1.2c0.3-1.7,0.6-3.3,0.9-5c0.1-0.6,0.1-1.1,0.5-1.6c0.2-0.3,0.4-0.4,0.7-0.3c0.3,0,0.5,0.3,0.6,0.6   c0.2,0.5,0,1-0.2,1.4c-0.2,0.8-0.4,1.6-0.6,2.5c-0.1,0.4-0.1,0.9,0.5,1c0.4,0.1,0.9,0,1.1-0.5c0.2-0.4,0.3-0.8,0.3-1.2   c0.1-1.8,0.7-3.6,0.3-5.5c-0.1-0.5-0.2-1.1,0.5-1.2c0.8-0.1,0.9,0.5,1,1.1c0.1,0.7,0.1,1.4,0.1,2.1c0,0.5-0.3,1.1,0.1,1.7   c0.7,0.3,1.4-0.3,2.1-0.2c0.3,0,0.6,0.1,0.6,0.4c0.1,0.3-0.1,0.5-0.4,0.7c-0.7,0.3-1.3,0.5-2,0.8c-0.5,0.2-0.9,0.6-0.7,1.1   c0.1,0.5,0.7,0.4,1.1,0.4c0.9,0,1.7,0,2.6,0c0.3,0,0.6,0.1,0.6,0.4c0.1,0.5-0.3,0.6-0.7,0.6c-0.8,0.1-1.6,0.2-2.3,0.3   c-1.6,0.2-3.1,0.3-4.7,0.5c-0.6,0.1-0.9,0.4-0.9,1c0,0.6,0.4,0.8,1,0.9c0.4,0,0.9,0,1.3,0c0.8-0.1,1.7-0.2,2.5-0.2   c0.3,0,0.6,0,0.6,0.4c0,0.2-0.1,0.4-0.4,0.5c-0.3,0.1-0.7,0.3-1,0.3c-2.1,0.2-4.2,0.7-6.4,0.6c-0.5,0-1,0-1.5,0.1   c-0.5,0.1-0.7,0.4-0.7,0.9c0,0.5,0.4,0.7,0.9,0.8c0.7,0.1,1.4,0,2.1,0.1c0.8,0.1,1.7-0.3,2.4,0.6c-1,0.7-2,0.6-3,0.6   c-2,0-4,0-6-0.3c-1.1-0.2-1.6,0.3-1.7,1.4c-0.1,1.1,0.8,1,1.5,1.1c0.3,0,0.6-0.1,0.8,0c0.6,0,1.7-0.5,1.7,0.5   c0,0.8-1.1,0.7-1.7,0.8c-0.5,0-1,0-1.5,0c-1.3,0-2.5-0.3-3.8-0.5c-1.1-0.2-1.4,0-1.5,1.2c0,0.2,0,0.4,0.1,0.6c0.2,0.8-0.3,1-1,1   c-0.5,0-1-0.1-1.5-0.2C60,80.1,60,80,59.3,81.7c-0.2,0.3-0.3,0.7-0.7,0.7c-0.5,0-0.6-0.5-0.6-1c0.1-0.7,0.6-1.4-0.1-2   c-0.6-0.4-1.3-0.6-1.9-0.9c-0.7-0.2-1.2,0-1.5,0.7c-0.3,0.8-0.1,1.3,0.7,1.7c0.6,0.3,1.4,0.2,1.6,1c-0.5,0.4-1.1,0.3-1.5,0.2   c-1.1-0.2-1.9-0.3-1.9,1.3c0,0.6-0.7,1.3-1.3,1.7c-0.2-0.2-0.4-0.2-0.4-0.3c-0.1-1.6-1.4-1.8-2.6-2c-1.3-0.2-1.1,1-1.4,1.7   c-0.2,0.3-0.3,0.7-0.7,0.6c-0.4-0.1-0.5-0.5-0.5-0.8c0-0.3,0.1-0.7,0.2-1c0.2-0.7,0-1.3-0.7-1.5c-0.8-0.2-1.6-0.2-1.9,0.8   c-0.2,0.6-0.4,1.2-0.6,1.8c-0.1,0.1-0.3,0.2-0.5,0.2c-0.2,0-0.4-0.2-0.4-0.4c0.1-0.6,0.1-1.3,0.2-1.9c0.1-0.5,0.1-1-0.5-1.2   c-0.6-0.2-1.3-0.3-1.7,0.3c-0.2,0.2-0.3,0.5-0.4,0.7c-1,2.7-2.6,4.8-4.8,6.6C35.2,89,35.1,89.2,35.1,89.4z M61.2,76.6   c-0.7-0.1-0.9,0.3-0.9,0.9c-0.1,0.9,0.7,1.7,1.7,1.7c0.8,0,0.9-0.6,1-1.1C63,77.3,62.2,76.6,61.2,76.6z M52,81.8c0-0.1,0-0.2,0-0.3   c-0.2-0.5-2.2-1.4-2.7-1.1c-0.1,0-0.1,0.1-0.2,0.1c-0.1,0.2-0.2,0.4-0.1,0.6c0.1,0.4,2,1.2,2.6,1C51.8,82.1,51.9,81.9,52,81.8z    M47.5,80.1c-0.2-0.8-1-0.9-1.6-1c-0.5-0.1-0.9,0.1-0.9,0.6c0,1,0.9,0.9,1.5,1C47,80.7,47.4,80.7,47.5,80.1z"></path><path d="M86,55.9c0.6-1.2,0.5-2.1,0.5-2.9c0-0.4,0-0.8,0.1-1.3c0.1-0.4,0.3-0.8,0.8-0.8c0.4,0.1,0.5,0.5,0.5,0.8c0,1,0,2-0.1,2.9   c-0.2,1.7-0.4,3.3,0.4,4.9c0.5,0.9,0.1,1.6-0.9,2c-0.3,0.1-0.5,0.3-0.8,0.4c-0.6,0.3-1.2,1-1.9,0.5c-0.9-0.6,0.1-1.2,0-1.9   c-0.1-1.3-0.2-2.7-0.3-4c0-0.8-0.1-1.5,0-2.3c0-0.4,0.2-0.7,0.6-0.7c0.4,0,0.6,0.3,0.7,0.7C85.8,54.7,85.9,55.1,86,55.9z M87,60.2   c0.1-0.1,0.2-0.2,0.2-0.2c0-0.1-0.1-0.2-0.2-0.3c-0.1,0.1-0.2,0.2-0.2,0.2C86.8,60,86.9,60.1,87,60.2z"></path><path d="M87.8,46.4c0,0.1-0.1,0.4-0.2,0.5c-0.8,1-1.6,1.9-2.1,3.1c-0.1,0.3-0.4,0.5-0.7,0.3c-0.2-0.1-0.3-0.3-0.4-0.4   c-0.3-1.2,1.5-3.9,2.8-4C87.6,45.8,87.7,46.1,87.8,46.4z"></path><path d="M81.5,30.5c-0.1,1-0.2,1.9-0.4,2.7c-0.1,0.4-0.2,0.7-0.6,0.7c-0.5,0-0.7-0.3-0.8-0.8c-0.2-1.3,0.4-2.6,0.6-3.9   c0.1-0.4,0.5-0.4,0.8-0.1C81.4,29.5,81.5,30,81.5,30.5z"></path><path d="M83.2,33.8C83,35,82.9,36,82.7,37c-0.1,0.4-0.3,0.6-0.7,0.6c-0.3,0-0.5-0.2-0.7-0.4c-0.3-0.6,0.4-3.7,0.9-4.2   c0.2-0.1,0.4-0.2,0.6,0C83.2,33.3,83.2,33.6,83.2,33.8z"></path><path d="M83.4,45.1c0.1-1,0.4-2.1,1.1-3c0.2-0.3,0.6-0.5,0.9-0.3c0.4,0.2,0.2,0.6,0.1,0.9c-0.3,0.9-0.6,1.7-0.6,2.6   c0,0.5-0.1,1.1-0.7,1.1C83.5,46.4,83.5,45.7,83.4,45.1z"></path><path d="M84.4,38.5c-0.3,0.9-0.6,2.1-1.2,3.1c-0.2,0.3-0.5,0.5-0.9,0.3c-0.4-0.2-0.5-0.5-0.4-0.8c0.2-1.3,1.1-2.2,1.6-3.3   c0.1-0.2,0.3-0.2,0.6-0.1C84.3,37.8,84.4,38,84.4,38.5z"></path><path d="M76.1,24.2c1.3,0.8,1.7,1.7,2.3,2.4c0.2,0.2,0.2,0.5,0,0.8c-0.3,0.3-0.7,0.2-1,0C76.6,26.6,76.2,25.7,76.1,24.2z"></path><path d="M34.9,38.9c-1.8-0.1-2.1-0.4-2.6-3c-0.6,0.7-1.8,0.9-0.6,2c-0.7,1.1,0.4,2.5-0.3,3.6c-0.9,1.5-1,3.2-1.3,4.8   c-0.1,0.4-0.2,0.8,0.4,1c1.6,0.4,3,1,4.7,0.3c1.8-0.8,3.7-0.9,5.6-0.3c0.2,0.1,0.4,0.1,0.4,0.6c-2.2,0.1-4.4,0.5-6.5,1.2   c-0.5,0.2-1.4,0.1-1.3,0.8c0,0.8,0.9,0.8,1.5,0.8c0.5,0,1.1-0.1,1.2,0.6c0.1,0.5-0.4,0.7-0.8,0.9c-0.2,0.2-0.3,0.4-0.5,0.6   c-0.1,0.1-0.1,0.1-0.2,0.2c-1.9,0.3-1.9,0.3-3.7-2.2c-0.6,0.9-0.4,1.9-0.5,2.9c-0.1,0.7,0.5,0.7,1,0.8c0.9,0.2,1,0.8,0.3,1.3   c-0.8,0.6-0.7,1.4-0.7,2.5c1.4-1,2.5-0.9,3.8,0.2c0.7,0.6,1.9,0.5,2.8,0.8c0.7,0.2,1.6,0.2,2,1.5c-2.1-0.6-4.1,0.2-5.8-1.2   c-0.9-0.7-1.9-0.8-2.5,0.3c-0.6,1.1-1.8,0-2.6,0.8c2.7,2.6,6.4,4,8.3,7.6c-0.9,0.3-1.1-0.2-1.4-0.5c-1.5-1.5-3.2-2.8-5-3.9   c-0.5-0.3-1-0.6-1.6-0.2c-0.7,0.5-0.3,1.1-0.1,1.5c0.4,1,0.8,2,1.3,2.9c0.9,1.7,1.5,3.4,2.1,5.6c-1.5-0.9-1.8-2.2-2.3-3.3   c-0.6-1.2-1.1-2.4-2.1-3.4c0.3,3.5,0.2,7.1,2.6,10.2c-1.4,0.1-1.8-0.7-2.2-1.3c-0.9-1.3-1.1-2.9-1.3-4.4c-0.2-1.4-0.4-2.8-0.6-4.2   c-0.1-0.3-0.2-0.7-0.3-1c-0.1-0.3-0.2-0.6-0.6-0.5c-0.3,0.1-0.3,0.4-0.3,0.7c-0.5,2.5-0.7,5.1-0.7,7.7c0,0.1-0.1,0.2-0.4,0.6   c-0.9-1.4-0.6-2.9-0.6-4.3c-0.1-1.4,0-2.8-0.2-4.2c-1.3,4.2-0.8,8.6-1.7,13.3c-0.9-1.3-0.6-2.4-0.6-3.3c-0.1-1,0-1.9-0.3-3   c-0.7,2.3-1.4,4.5-2.1,6.8c-0.3,0.9-0.5,1.8-0.9,2.6c-0.3,0.8-0.8,0.7-1.4,0.3c0,0,0,0,0,0c1-3.2,2.1-6.5,2.9-9.7   c0.7-2.8,1.7-5.5,1.8-8.5c0-0.5,0.1-1,0.3-1.4c0.5-1.1,0.2-2.1-0.8-2.6c-0.8-0.5-1.9-0.2-2.6,0.7c-1.3,1.9-2.6,3.9-3.6,6   c-0.2,0.4-0.5,0.9-0.7,1.3c-0.2,0.2-0.4,0.4-0.7,0.2c-0.4-0.2-0.5-0.5-0.3-0.9c0.2-0.4,0.4-0.8,0.6-1.1c1.2-2,2.2-4.1,3.7-5.9   c0.4-0.6,0.5-1.1,0.2-1.8c-0.5-1-0.8-1.1-1.7-0.3c-1,0.9-1.7,2-3,2.5c-0.5-0.6-0.1-0.9,0.2-1.2c0.9-1.1,2.1-2,2.2-3.5   c0-0.3,0.4-0.6,0.7-0.8c1.8-0.7,1.9-1.9,1.3-3.5c0.5-0.2,1.3-0.1,1-1c-0.1-0.4-0.5-0.8-0.9-0.6c-0.8,0.3-0.1,0.8-0.1,1.2   c0,0.1,0.1,0.3,0.1,0.4c-0.1,0.1-0.2,0.2-0.3,0.2c-2.1-0.1-4.2-0.1-6.3-0.2c-0.3,0-0.7-0.3-0.6-0.7c0-0.4,0.4-0.5,0.8-0.6   c1.2-0.1,2.4,0,3.6,0.3c0.6,0.1,1.4,0.2,0.9-0.9c-0.2-0.5,0.2-0.7,0.7-0.8c2.9-0.4,2.9-0.4,2.9-3.4c0-1.4-0.1-2.8-0.7-4.1   c0,0,0,0,0,0c0-1.1,0.4-2.1,1.3-2.7c2-1.6,2.5-3.9,2.6-6.5c-0.7,0.5-1.4,0.8-2.1,0.4l0,0c-0.2-1,0.2-1.9,1.2-2.2   c0.8-0.3,1-0.7,1.2-1.6c0.9-4.4,1-8.9,1.1-13.4c0-0.3,0-0.6,0.6-0.7c0.7,0.7,0.7,1.7,0.7,2.6c0.1,3-0.3,5.9-0.6,8.8   c-0.1,1.3-0.2,2.7-0.2,4c0,0.7-0.1,1.5,0.6,2.1c0.6-0.3,0.5-0.8,0.3-1.3c-0.6-1.6-0.4-2.4,1-3.2c0.7-0.4,1.1-1,1.4-1.7   c0.4-1,0.8-1.9,1.3-2.9c0.4-0.7,0.8-1.4,1.6-1.5c0.5,0.6,0.1,1-0.1,1.4c-0.2,0.5-0.6,1-0.8,1.5c-0.8,1.5-1.5,3.1,0.5,4.4   c0.1,0,0,0.3,0,0.4c-0.2,0.3-0.5,0.3-0.7,0.2c-1.6-0.2-1.9,0.2-1.3,1.8c0.4,1-0.6,0.6-0.9,1c0.4,0.2,0.9,0.5,1.4,0.8   c0.6-1.5,1.5-2.7,2.7-3.7c1.1-0.9,2-2.1,3.9-2.4c-1.5,2.2-3.7,3.4-4.7,5.5c-1,1.1-1,1.1-1.3,2.2c0.9-0.9,0.9-0.9,1.3-2.3   c1.4-0.3,2.9-0.1,4.4-0.9C33.7,34.8,35.1,36.8,34.9,38.9L34.9,38.9z M21.3,55L21.3,55c0.1,1.1,0,2.5,1.8,2.5c0.5,0,0.6,0.4,0.7,0.9   c0.1,1.5,0.9,2.1,2.7,2.4c0-0.1,0-0.3,0-0.4c-1-1-1.1-1.1,0-1.6c0.7-0.4,1-0.9,1.3-1.6c0.5-1.2,1-2.3,1.5-3.5   c0.4-0.9,0.8-1.8-0.2-2.7c-0.3-0.2-0.4-0.6-0.3-0.9c0.4-1.4,0.1-2.8,0.3-4.2c0.2-1.1,0.2-2-1-2.4c-0.3-0.1-0.6-0.5-0.4-0.9   c0.2-0.4,0.6-0.4,0.9-0.3c0.4,0.1,0.8,0.4,1.1-0.1c0.6-0.8,0.4-1.9-0.4-2.6c-0.8-0.7-1.8-1.2-2.5-2c-0.2-0.2-0.5-0.3-0.7-0.3   c-1.3-0.3-1.3-0.2-0.8-1.5c0.1-0.1-0.1-0.4-0.2-0.6c-1.5,0.9-2.5,2.1-3.2,3.6l0,0c-1.8,1.2-2.6,2.7-2.1,5c0.2,1,0.9,2,0.7,3   c-0.3,1.5,0.8,3.2-0.4,4.6c0.5,1.1,0,2.1-0.6,3.1C20.1,54.8,20.7,54.9,21.3,55z M18.5,57.9c0.5-0.3,0.7-0.7,0.7-1.2   c0-0.5-0.4-0.7-0.9-0.6c-0.4,0.1-0.7,0.5-0.6,0.9C17.7,57.5,18,57.8,18.5,57.9z M29.7,55.9c-0.3,0.7-0.9,1.2-0.3,1.9   c0.1,0.1,0.3,0.1,0.4,0.1C30.2,57.4,30.4,56.7,29.7,55.9z M24,64.6c0.1-0.9,0.1-1.5,0.2-2c0-0.2,0-0.4-0.3-0.6   c-0.1,0.7-0.2,1.3-0.2,2C23.6,64,23.7,64.1,24,64.6z M28.1,62.6c0.1-0.1,0.2-0.2,0.2-0.3c0-0.2-0.1-0.4-0.3-0.3   c-0.1,0-0.1,0.2-0.1,0.4C27.9,62.4,28,62.5,28.1,62.6z M29.7,38.1c-0.1-0.1-0.1-0.2-0.2-0.3c-0.2-0.1-0.4,0-0.6-0.1   c0.1,0.1,0.2,0.3,0.4,0.4C29.4,38.2,29.5,38.1,29.7,38.1z"></path><path d="M19.5,33.4c0.2,0.3,0.4,0.5,0.7,0.7c0.9,0.5,0.9,1.7,0,2.2c-0.3,0.2-0.6,0.1-0.7-0.2c-0.2-0.3-0.3-0.7-0.5-0.9   c-0.2-0.3-0.5-0.2-0.8,0c-0.3,0.2-0.3,0.4,0,0.7c0.2,0.1,0.3,0.3,0.5,0.4c0.4,0.5,0.7,1,0.1,1.5c-0.6,0.5-1.1-0.1-1.4-0.5   c-2.2-2.7-4.4-5.3-6.5-8c-0.1-0.2-0.2-0.4-0.3-0.6c-0.1-0.3-0.3-0.7,0-1c0.5-0.4,0.8,0,1,0.3c1.2,1.5,2.4,3.1,3.7,4.7   c0.3,0.4,0.7,0.9,1.2,1.2c0.3,0.2,0.8,0.3,1.2-0.1c0.3-0.3,0-0.6-0.1-0.9c-1.1-1.8-2.1-3.7-3.2-5.5c-0.2-0.3-0.4-0.6-0.5-0.9   c-0.2-0.4-0.5-1,0.1-1.3c0.6-0.3,0.8,0.3,1,0.8C16.3,28.7,17.9,31.1,19.5,33.4C19.6,33.5,19.5,33.4,19.5,33.4z"></path><path d="M17.1,45.5c0.6,0.3,1.1,0.7,1,1.5c-0.1,0.8-0.4,1.5-0.9,2.1c-0.3,0.3-0.7,0.3-1,0.2c-2.1-0.6-4.2-0.5-6.3-0.1   c-0.5,0.1-1.3,0.3-1.4-0.5c-0.1-0.7,0.8-0.8,1.3-0.8c1.5-0.2,3.1-0.2,4.8-0.3c-0.9-1.4-1.8-2.5-3.4-2.8c-0.8-0.2-1.6-0.5-2.3-1   c-0.3-0.2-0.4-0.6-0.2-0.9c0.2-0.3,0.5-0.4,0.7-0.2c2.2,1.3,4.8,1.4,7.1,2.3C16.7,45.1,16.9,45.3,17.1,45.5z"></path><path d="M17.2,17.7c0.5,0.1,0.6,0.5,0.7,0.9c0.7,2.4,1.5,4.7,2.2,7.1c0.3,1,0.7,2,1,3c0.1,0.3,0.2,0.8-0.2,0.9   c-0.4,0.2-0.7-0.1-0.8-0.5c-1.3-3.3-2.8-6.7-3.4-10.2C16.7,18.5,16.6,18,17.2,17.7z"></path><path d="M35,52.8c0.4,0,1.2-0.3,1.1,0.5c-0.2,1.1,0.4,1.1,1,1c1.5-0.2,2.9,0.1,4.3,0.7c0.4,0.2,0.8,0.2,0.9,0.8   c-0.3,0.5-0.7,0.4-1.1,0.3c-1.8-0.6-3.6-0.5-5.5-0.5c-0.6,0-1.3,0-1.9,0c-0.4,0-0.7-0.2-0.7-0.6c0-0.3,0.1-0.6,0.5-0.6   c0.8-0.1,0.9-0.8,1.2-1.3C34.9,52.9,34.9,52.9,35,52.8z"></path><path d="M34.6,44.1c0.4,0.5,0.9,0.8,1.6,0.9c0.9,0.1,0.9,0.8,0.6,1.5c-0.3,0.9-0.9,0.4-1.4,0.1c-0.8-0.4-1.6-0.8-2.5-0.9   c-0.8-0.1-1.2-0.7-1.4-1.4c-0.1-0.7-0.3-1.5,0.6-1.8c0.7-0.2,1.2,0.1,1.4,0.8c0.1,0.5,0.6,0.6,1,0.7L34.6,44.1z"></path><path d="M19.1,65.7c-0.6,2.4-1.8,4.6-3.1,6.6c-0.1,0.2-0.4,0.5-0.7,0.3c-0.4-0.2-0.4-0.6-0.2-0.9C16.2,69.6,17.4,67.4,19.1,65.7z"></path><path d="M17.1,45.5c-0.2-0.2-0.4-0.4-0.6-0.7c0.1-0.9,0-1.8-1.2-2.1c-0.4-0.1-0.7-0.5-0.8-0.9c-0.1-0.3,0-0.6,0.3-0.6   c0.7,0,1.4,0,2.1,0.1c0.6,0.1,0.6,0.7,0.9,1.1c0,0,0,0,0,0C17.8,43.4,18.3,44.6,17.1,45.5z"></path><path d="M34.9,39c0.7-0.3,1.4-0.7,2.1-0.9c0.5-0.2,0.9-0.4,1.4-0.3c0.4,0.1,0.9,0.2,0.9,0.7c0,0.5-0.4,0.5-0.8,0.5   c-1.2,0-2.1,0.7-3.1,1.3c-0.4,0.2-0.9,0.6-1.3,0.1c-0.3-0.4,0.2-0.7,0.4-1.1C34.8,39.2,34.9,39.1,34.9,39   C34.9,38.9,34.9,39,34.9,39z"></path><path d="M34.5,44c0-0.7-0.2-1.6,1-1.1c1.1,0.4,2.1-0.2,3.1-0.3c0.6,0,1.2-0.4,2.1,0.2c-2.1,1.1-4,1.6-6.1,1.4   C34.6,44.1,34.5,44,34.5,44z"></path><path d="M17.8,39.6c0,0.6-0.3,1-0.9,0.8c-0.9-0.2-1.6-0.9-2.3-1.5c-0.2-0.2-0.2-0.6,0.1-0.7c0.5-0.3,2.8,0.5,3,1   C17.8,39.3,17.8,39.5,17.8,39.6z"></path><path d="M15.1,54.4c-0.1,0.4-0.3,0.4-0.6,0.4c-0.4-0.1-0.8-0.2-0.8-0.8c0-0.3,0.3-0.4,0.6-0.4C14.8,53.7,15.1,54,15.1,54.4z"></path><path d="M33.4,61.3c-0.1,0.4-0.3,0.6-0.7,0.6c-0.3,0-0.6-0.1-0.6-0.4c0-0.4,0.3-0.6,0.7-0.6C33,60.9,33.3,60.9,33.4,61.3z"></path><path d="M36.7,42c-0.1,0.4-0.4,0.5-0.8,0.3c-0.2-0.1-0.4-0.2-0.3-0.4c0.1-0.3,0.3-0.4,0.6-0.4C36.5,41.5,36.7,41.7,36.7,42z"></path><path d="M21.3,55c-0.1-0.3-0.3-0.6-0.4-0.9c-0.1-0.3,0.1-0.6,0.5-0.6c0.7,0,0.9,0.6,1.2,1c0.2,0.4,0.6,0.8,0.3,1.4   c-0.2,0.3-0.5,0.3-0.7,0C21.8,55.7,21.5,55.3,21.3,55C21.3,55,21.3,55,21.3,55z"></path><path d="M21.7,39c0.7-0.1,1.3,0,1.5,0.7c0.1,0.4,0,0.8-0.3,1.1c-0.3,0.3-0.6,0.3-0.9,0.2c-0.4-0.2-0.5-0.5-0.4-0.9   C21.5,39.7,21.6,39.3,21.7,39C21.7,38.9,21.7,39,21.7,39z"></path><path d="M21.5,43.8c-0.1,0.4-0.2,0.6-0.7,0.7c-0.4,0-0.7-0.2-0.7-0.6c0-0.5,0.4-0.7,0.9-0.7C21.3,43.3,21.4,43.5,21.5,43.8z"></path></g></svg>