<svg xmlns="http://www.w3.org/2000/svg" viewBox="0 0 100 125" x="0px" y="0px"><path d="M76.47126,25.70079c2.40783,1.44565,4.3261,2.938,6.285,4.37493a18.02262,18.02262,0,0,1,4.87057,5.185c0.85195,1.40471,2.02889,2.55425,2.90235,3.9931a41.39473,41.39473,0,0,1,3.61978,9.0501c1.65456,5.11466,1.79863,10.35671,1.62234,15.69157a37.66112,37.66112,0,0,1-2.68186,12.13518,26.45922,26.45922,0,0,1-2.8913,4.67719c-1.65394,2.55458-3.58962,4.94876-4.79394,7.77871a3.46508,3.46508,0,0,0-.35178,1.78317A5.59128,5.59128,0,0,1,83.15425,94.822a2.81436,2.81436,0,0,1-2.09948.93253,13.02045,13.02045,0,0,1-4.6331-.833c-2.56953-1.01655-5.33023-.74263-8.025-0.63016-2.48059.10353-4.96248,0.59222-7.4292,0.50375A18.6693,18.6693,0,0,1,52.336,92.601a74.13046,74.13046,0,0,1-6.89914-4.03086c-2.87154-2.06024-5.77237-4.12961-7.89769-7.07945-0.84536-1.17336-1.95288-2.151-2.85138-3.32356-1.83172-2.39045-2.39863-5.27441-3.5072-7.94573q-1.74739-4.2106-3.49352-8.42171c-0.2038-.489.111-1.0989-0.44912-1.60945a27.83248,27.83248,0,0,0-2.91509,7.62606c-0.167.87258-.56941,1.19247-1.44431,0.83291a6.5934,6.5934,0,0,1-2.4252-1.569c-1.19667-1.294-2.43921-2.55389-3.669-3.80548a32.08608,32.08608,0,0,1-2.87979-3.41945c-1.77438-2.39838-4.03864-4.41214-5.47745-7.0683C6.66731,49.5383,4.92363,46.32982,4.41148,42.54812a23.68857,23.68857,0,0,1,2.18368-13.934c2.458-4.94865,6.10152-8.91743,11.69387-10.58668,1.53083-.45691,2.94264-1.206,4.55238-1.53561,1.80547-.36967,3.58713.30509,5.35763-0.20717,0.73734-.21329,1.54734-0.16735,2.29442-0.35689a6.09974,6.09974,0,0,0,2.12989-1.53394c1.01767-.81781-0.11-1.4505-0.35819-2.13032a20.23672,20.23672,0,0,0-2.19284-4.93736c-0.41191-.58292-0.27363-0.985.46994-1.27331a25.47345,25.47345,0,0,0,2.55628-1.30154,1.19528,1.19528,0,0,1,1.82683.79957c0.89622,2.51357,1.73691,5.0495,2.50292,7.6056a9.50277,9.50277,0,0,0,1.155,2.18339,0.88823,0.88823,0,0,0,1.49955.0522c1.22933-1.61691,3.12761-2.37025,4.5648-3.70441a2.55587,2.55587,0,0,0,.63522-0.58983c1.96645-4.106,5.7467-5.46677,9.76778-6.36154a27.76926,27.76926,0,0,1,4.8255-.48109A13.86858,13.86858,0,0,1,67.40158,6.309,15.15093,15.15093,0,0,1,72.165,11.22613c1.19769,1.831,1.71074,3.92852,2.7536,5.81515,0.9233,1.67034,2.07834,3.16769,3.05221,4.79079a6.43888,6.43888,0,0,1,.64717.95157C79.36252,24.73257,79.0465,25.25282,76.47126,25.70079ZM67.95778,9.45725l-0.06451-.07678c-0.18769-.15957-0.37177-0.32362-0.56362-0.478-1.29036-1.038-1.2816-1.02614-2.38082-.12308a1.09718,1.09718,0,0,1-.79559.31732c-1.77206-.70031-3.24631.65785-4.92422,0.67577a3.62126,3.62126,0,0,0-2.50578,1.04869c1.30158,1.17416,2.99375.9806,4.41178,1.56294,0.84156,0.34559,1.86231.9549,2.5932,0.73854,2.18973-.64818,4.43611-0.43859,6.70482-0.81072A7.40609,7.40609,0,0,0,67.95778,9.45725ZM88.19253,42.86943c1.59979-1.36583.8665-2.608-.17644-3.866a16.35258,16.35258,0,0,1-1.066-1.56855,27.20166,27.20166,0,0,0-4.09576-4.62014c-0.7216-.69846-1.19729-0.10415-1.52858.23139-0.24453.2476-1.16,0.7381-.238,1.339a0.51974,0.51974,0,0,1,.16221.65452c-0.38476,1.24283-2.03422,2.08623-1.17076,3.72349-1.2193.63283-.84228,2.30962-1.97876,3.02593-0.22255.14034,0.00529,0.97307-.63877,0.56051-0.43316-.27743.02878-0.60474,0.15848-0.94762,0.97332-2.5725,1.86824-5.17468,2.7877-7.76756a9.24666,9.24666,0,0,0-1.47751,1.79255,0.57069,0.57069,0,0,1-.58534.36326c-0.489-.14494-0.02172-0.49383-0.09419-0.67193-0.27472-.67483.295-1.29343,0.04358-2.0003a1.419,1.419,0,0,1-.2088-0.926,1.56305,1.56305,0,0,1,.6855-0.71964C79.032,31.343,79.211,31.61773,79.2,31.89393c-0.01386.347-.36547,0.82683,0.25079,0.92551,0.48058,0.077.5115-.51189,0.75783-0.77778,0.59226-.63921.77412-1.22625-0.35435-1.61007a8.04838,8.04838,0,0,1-1.66455-1.06038c-0.31218.34882,0.00963,1.28272-.78179,0.94983-1.36381-.5735-1.69137.31464-1.96232,1.24974a0.68808,0.68808,0,0,1-.83986.67707c-0.81633-.02161-0.54777-0.66657-0.80815-0.95294-0.8779-.96572.32456-1.53373,0.28054-2.30151a3.00367,3.00367,0,0,0,1.91461-.50111c0.08072,0.11207.15855,0.22639,0.24286,0.33571,0.11106,0.144-.15645.56637,0.26585,0.44464a1.07841,1.07841,0,0,0,.485-0.53361c0.19519-.35754-0.19852-0.36775-0.35939-0.4737-1.5439-1.0168-3.09015-2.03063-4.6562-3.01261-0.35772-.22433-0.88395-0.41578-0.96218.27558-0.11482,1.015-.88764,1.67508-1.15526,2.6193a3.52626,3.52626,0,0,1,.40811-2.87954,1.05409,1.05409,0,0,0,.2051-0.61293,5.19584,5.19584,0,0,0-3.06452-1.53278c-0.92-.21151-0.62418.78708-0.93633,1.19649-0.31834.41756-.11739,1.10752-0.73437,1.38259a1.13983,1.13983,0,0,0-.8556-0.882l0.03855,0.04091a14.41651,14.41651,0,0,1,.91421-1.5123c0.343-.44355.076-0.54129-0.25144-0.6993a3.40475,3.40475,0,0,0-3.601.59863c-0.46375-1.38133-1.86386-1.72649-3.45351-.79236,0.09394-.90411-0.26317-1.30947-1.17611-1.1536a6.06105,6.06105,0,0,1-2.42821-.40825c-2.32508-.54769-4.25681-2.19675-6.73313-2.34383a1.24481,1.24481,0,0,0-1.45582.60007c-0.26114.51544-.49908,0.99845-1.24992,0.492a1.32031,1.32031,0,0,0-1.77948.41593c-0.96008,1.2319-2.46976,1.71954-3.52258,2.79968a0.28953,0.28953,0,0,1-.49184-0.033c-0.36025-.49394-0.73817-0.15034-1.02762.03848-1.61087,1.05094-2.72968,2.41662-2.20432,4.85949a1.1995,1.1995,0,0,1-.02748.85054,3.47476,3.47476,0,0,0-.4674,2.69558,26.216,26.216,0,0,1-.869,7.16647,45.06037,45.06037,0,0,1-4.43813,12.87737c-2.46748,4.496-1.7107,8.83464.19414,13.22065a66.00175,66.00175,0,0,1,2.86039,6.96585c1.62183,5.33729,5.30007,9.10226,9.27746,12.6496a48.78005,48.78005,0,0,0,9.70494,6.20632c1.81691,0.97419,3.56823,1.86593,5.86713,1.62759,2.59773-.26925,5.24541.77716,7.89806,0.18748a24.939,24.939,0,0,1,3.76678-.12489,14.97645,14.97645,0,0,1,5.24042.329c1.48837,0.44565,3.00008.83211,4.50206,1.20844A1.72293,1.72293,0,0,0,82.108,92.40431a1.30087,1.30087,0,0,0-.936-0.13582c-0.4358-.07008-0.92475-0.151-0.88967-0.77a0.81777,0.81777,0,0,1,.85521-0.83729,2.29765,2.29765,0,0,1,.73459-0.003c0.8829,0.24663,1.10368-.20771,1.15273-0.96764,0.16-2.47838,1.45991-4.52574,2.82817-6.42753a8.8254,8.8254,0,0,0,1.675-2.83248,2.29553,2.29553,0,0,1,.70578-0.892,18.62149,18.62149,0,0,0,4.60132-8.89773,17.53434,17.53434,0,0,0-2.18821,3.98047c-0.91834,2.24526-2.6639,4.15328-4.07064,6.196a0.369,0.369,0,0,1-.61756.09777c-0.26491-.26715.01372-0.38657,0.13716-0.58842a34.4838,34.4838,0,0,1,2.37662-3.88443c0.61586-.75711.12478-1.79356,0.6008-2.19034,1.09394-.91186,1.20138-2.18021,1.66994-3.31683a75.81143,75.81143,0,0,0,3.02832-7.96578,15.99858,15.99858,0,0,0-.54085-9.363c-1.51306,1.46737-1.8105,3.462-2.89138,4.984-0.14585-1.9822.92706-3.5948,1.79494-5.09616a7.35116,7.35116,0,0,0,.68094-3.24236c0.16836-1.57249-.875-3.0786-1.5317-4.70974-0.44583.70216-.81474,1.28312-1.29018,2.0319-0.3646-.92587-0.21271-1.6264.3297-1.91765,1.41391-.75928.44058-1.36714,0.04007-2.14064a20.27463,20.27463,0,0,0-1.761,3.103c-0.4143-.23385.0834-0.84992-0.57017-0.96359a49.62838,49.62838,0,0,1-3.4028,6.35061c-0.75106-.71946.8517-1.44884-0.39425-1.53333a2.03976,2.03976,0,0,0-1.96768.96822c-0.28094.62266-.97,0.67631-1.37412,1.11772,1.21984-1.10382,1.33123-2.87451,3.40182-3.66481a6.54341,6.54341,0,0,0,3.93214-6.05762ZM22.77538,65.17148c1.05372-2.24464,1.77307-4.59556,3.213-6.60089a0.49835,0.49835,0,0,0-.11207-0.76478c-0.93532-.64333-0.6189-0.86509.30045-0.88467a0.50545,0.50545,0,0,0,.47345-0.47591c0.49115-1.87164,2.09318-3.43067,1.57275-5.59126a0.49717,0.49717,0,0,1,.09205-0.39924c1.84272-.47193,1.94922-2.26365,2.48555-3.56016a46.53345,46.53345,0,0,0,3.27009-12.77565,11.81481,11.81481,0,0,0-.63722-6.50616c-0.85151-1.82976-1.18809-3.88244-1.91465-5.79224-0.33792-.88818-0.11186-2.22325-1.186-2.488-1.03338-.25477-1.35327,1.06444-1.98853,1.68855-0.5671.55707-1.278,1.19512-.97774,2.0147,0.82252,2.245,1.79469,4.43542,2.7296,6.63814,0.05274,0.12431.25473,0.623,0.42994,0.23276,0.43519-.96913.6488-0.13636,0.80341,0.08655,0.49611,0.71544.77662,1.60482,1.64109,2.00859a0.72753,0.72753,0,0,1,.31591.87816,0.395,0.395,0,0,1-.29756.23526,0.74789,0.74789,0,0,1-.644-0.5124,3.20985,3.20985,0,0,0-1.36236-1.6808,1.23218,1.23218,0,0,0,.105,1.11486c0.1831,0.41086.32778,0.899-.28952,1.08706a0.77,0.77,0,0,1-1.07323-.492,22.98689,22.98689,0,0,0-1.26411-2.29677c-0.88815-1.92464-1.39132-4.054-2.88472-5.78688-1.963,1.90444-2.388,4.5594-3.57058,6.80437a1.09367,1.09367,0,0,0,.13908.98531c1.771,3.13612,2.0445,7.13675,5.46811,9.33184a0.99857,0.99857,0,0,1,.01853,1.56211,0.94309,0.94309,0,0,1-1.4206-.043,9.957,9.957,0,0,1-3.34727-4.82362,11.61725,11.61725,0,0,0-1.912-3.87513c-0.34194,1.5393-.753,2.85554-0.94777,4.1653-0.249,1.67411-1.34205,3.3902-.211,5.11169a8.31217,8.31217,0,0,1,.736,2.0445,13.17889,13.17889,0,0,0,2.64171,4.99872,4.53079,4.53079,0,0,1-.2741-1.05224c0.02433-.32518-0.52742-0.87555.15157-0.939,0.5276-.04927.412,0.56511,0.40912,0.92822a3.04169,3.04169,0,0,0,.64587,2.04862,1.63789,1.63789,0,0,1,.13169,1.58093,5.40446,5.40446,0,0,1-3.19241-2.08457c-0.7823-1.04152-.983-2.4235-2.07219-3.67954C18.49638,54.02245,21.31239,59.42265,22.77538,65.17148Zm-3.01272-32.4176c-2.88023.48159-5.14431,1.92844-7.42055,3.34615-0.42719.266-.91378,0.6379-1.30759,0.13274A1.85266,1.85266,0,0,0,9.47626,35.681a1.27317,1.27317,0,0,1,.21665-0.35928,74.04633,74.04633,0,0,1,8.58754-3.92023c0.89271-.36192,2.09112-0.43732,2.53786-1.27722,1.08583-2.0412,1.52822-4.38488,3.17869-6.49686a13.91769,13.91769,0,0,0-6.38645,2.02792c-0.25144.13817-.541,0.99678-0.81206,0.8568-0.96735-.4994-2.20967.0076-3.03429-1.4088-0.66346-1.13959-.32322-1.25669.4476-1.61427,0.18226-.08449.43479-0.54458,0.648,0.00731a3.12158,3.12158,0,0,1,.25633.31305c-0.11414.31942-.39881,0.14194-0.61036,0.1402a0.62118,0.62118,0,0,0-.66954.62364c1.89076-.57195,3.81323-0.70817,5.56266-1.62817a7.48144,7.48144,0,0,1,2.78075-.8139c0.94867-.09253,2.15751.17162,2.78231-0.2459a23.23067,23.23067,0,0,0,3.43668-3.47067c-9.16354-.74426-16.16379,2.71353-20.11942,10.48768a20.74367,20.74367,0,0,0,.52091,20.5305c0.81285-.29723.27015-1.67034,0.86636-1.51258,1.44533,0.38237-.08243-0.959.64572-0.93456,0.25434,0.00851.56174-.72717,0.786-0.446,0.92869,1.16475,1.23714-.07128,1.60587-0.4311,0.5141-.50158,1.21329-1.08236.70107-1.99436-0.12174-.2168-0.33531-0.437.05756-0.53995a0.63152,0.63152,0,0,1,.778.20579c0.469,0.68836.46335,0.66759,0.90494,0.01614,0.36507-.53843.55443-1.46773,1.34075-1.35211,1.26516,0.18592,1.46191-.68858,1.54053-1.44522A54.0511,54.0511,0,0,1,19.76267,32.75388Zm55.47369-7.96227a14.96117,14.96117,0,0,0-3.83089-4.16867C67.73761,17.69862,64.05,14.98429,59.343,13.90433a24.709,24.709,0,0,0-6.924-.9136,24.82555,24.82555,0,0,1-6.25143-.19891,0.70192,0.70192,0,0,0-.51834.15406c-1.74133,1.50382-3.68468,2.768-5.28585,4.43571-0.25973.27052-.59269,0.41126-0.22958,1.03837,0.71,1.22632,1.35023.77513,2.12251,0.22751A10.438,10.438,0,0,1,46.006,16.78673c2.76048-.63877,5.23082.82737,7.88365,0.77376a0.92522,0.92522,0,0,1,.65206.52467,1.481,1.481,0,0,0,1.36221.88464c1.46194,0.30292,2.94835.44373,4.40063,0.84308,2.65836,0.731,5.51231.39052,8.13071,1.49318C70.66457,22.24485,72.75019,23.45535,75.23636,24.79161ZM19.83774,63.37644A25.824,25.824,0,0,0,18.636,57.63817c-0.69861-2.75226-1.64156-5.42713-1.38672-8.3272,0.10288-1.171.23-2.34227,0.26454-3.51581,0.01281-.43689.32467-1.06773-0.26726-1.31038-0.56782-.2328-0.87877.35975-1.18281,0.69781A22.28122,22.28122,0,0,1,10.57737,50.055c-1.84059,1.01061-.639,1.64261-0.14936,2.30495a55.67791,55.67791,0,0,0,3.62329,4.38666C16.01116,58.89765,17.67118,61.3112,19.83774,63.37644ZM34.63849,24.58161a8.977,8.977,0,0,1,2.71139-3.43954c0.296-.26581.35573-0.56138,0.10617-0.71541-1.30364-.80471-1.36562-2.38184-2.22484-3.44146-0.38871-.47928-0.71157-1.29934-1.61981-0.8774-0.73075.33948-1.41293,0.7225-1.2581,1.72974a10.33835,10.33835,0,0,0,.16431,1.297A47.74488,47.74488,0,0,0,34.63849,24.58161ZM63.27877,7.169l-0.01614-.42357c-1.053.27323-2.06911-.61629-2.98926-0.20011-3.21692,1.4551-6.5778,2.62158-9.58335,4.58181,1.44877-.02085,2.85062-0.55537,4.3005-0.24572a0.4265,0.4265,0,0,0,.36854-0.18085c0.3633-1.02176,1.37438-.93083,2.13271-1.24257C59.4102,8.66927,61.34845,7.92881,63.27877,7.169Zm8.85035,8.923c-0.461-1.34115-.86353-2.70014-2.275-2.30144a8.29215,8.29215,0,0,1-2.05373.15881,3.55119,3.55119,0,0,0-1.96616.20818A4.63854,4.63854,0,0,0,67.787,15.671C69.15593,16.60732,70.62229,15.24735,72.12912,16.092ZM55.87976,6.976a9.48109,9.48109,0,0,0-7.6359,4.17388C50.69179,9.05522,53.54726,8.51951,55.87976,6.976Zm17.936,12.90477,0.14436-.1954a11.96567,11.96567,0,0,1-1.13137-1.87852c-0.3962-1.03276-1.19019-.95258-2.00974-0.92927-0.45995.01314-.73948,0.286-0.33575,0.6075C71.55207,18.33641,72.69955,19.089,73.81575,19.88082ZM93.89543,64.90126a36.962,36.962,0,0,0-2.28084,5.55539C93.81456,69.17428,93.68153,67.081,93.89543,64.90126Z"></path><path d="M56.88212,25.26585a15.97859,15.97859,0,0,0-.71562,3.06893,17.494,17.494,0,0,1-.42929-5.34905,7.36592,7.36592,0,0,0-1.60848,3.15346c-0.08308.38719,0.22339,0.90038-.27924,1.14038-0.3036.145-.31015-0.24286-0.436-0.42585-0.34578-.50263-0.8139-1.10878-0.20576-1.56431a1.39992,1.39992,0,0,0,.35171-2.03186c-0.56489.11714-.384,0.85466-0.97285,0.92833-0.4206-1.10545.81108-1.79722,0.431-3.08392,0.77626,0.45749.74024,1.22028,1.35248,1.29879,0.17763,0.02277.19149,0.37267,0.55139,0.10961a1.34142,1.34142,0,0,1,2.13525.8076,1.22953,1.22953,0,0,0,.17314.53188c0.41781,0.24891,1.13839-.00243,1.22172.79711a6.70045,6.70045,0,0,1-1.02965,2.77116C57.03473,26.7169,58.107,25.75031,56.88212,25.26585Z"></path><path d="M64.87581,24.81941c0.29079,0.76865.28391,0.73086-.5002,0.87341a0.72391,0.72391,0,0,0-.46559.85372c0.5835,0.92446-.39175.63265-0.60992,0.93608-0.36786-.64217.23634-1.14636,0.192-1.91161-1.15182,1.11114-1.15414,2.7093-2.159,3.73978-0.34643-.50737.31834-0.88547-0.07008-1.43244a0.77071,0.77071,0,0,0-.86726.63493,29.70383,29.70383,0,0,1-1.33955,2.8887c-0.0711.20579,0.1709,0.63725-.43776,0.31859-0.33814-.177-0.5343-0.17238-0.48174-0.60941A8.51777,8.51777,0,0,1,59.64223,26.874c0.08688-.11595.20235-0.36644,0.21289-0.36141,1.62354,0.77065,1.69166-1.29282,2.75248-1.49622a0.70727,0.70727,0,0,0,.5233-0.42914,1.10672,1.10672,0,0,1,1.16866-.89369c0.74082,0.1191.14161,0.92409,0.6168,1.16757Z"></path><path d="M79.16184,67.10731c0.63244-1.19932,1.21235-2.43031,1.912-3.589,0.70274-1.16381,1.57738-2.20584,1.12681-3.74416-0.186-.63493.73133-0.86751,0.87124-1.44934,0.04807-.2.444-0.38932,0.11157-0.58121a1.325,1.325,0,0,0-.6737.17111,0.89663,0.89663,0,0,1,1.43856-.69788c1.26339,0.728-.36474,1.34451-0.12507,2.151,0.65788-.25767,1.25933-1.079,2.32913-0.35186-3.312,1.10741-3.84458,4.35122-5.62713,6.57957-0.41235.51548-.73752,1.10075-1.10277,1.65391Z"></path><path d="M91.33915,61.73129c0.98549-.08377.8711-1.05488,1.28895-1.59668a0.71218,0.71218,0,0,1,.80808-0.4648c0.39678,0.171.31573,0.50357,0.12717,0.85995a41.1787,41.1787,0,0,0-3.04852,8.00166,1.88,1.88,0,0,1-1.00529,1.1482c0.6976-2.29166,1.3359-4.38869,1.97427-6.48556A1.10417,1.10417,0,0,1,91.33915,61.73129Z"></path><path d="M91.33915,61.73129a1.10417,1.10417,0,0,0,.14465,1.46277c-0.42328.21137-1.01075,0.18465-.9793,0.95309a1.06693,1.06693,0,0,1-.99523.917c0.808-3.18922,1.52529-6.29914,3.36037-8.99348C92.83041,58.10518,91.3154,59.69208,91.33915,61.73129Z"></path><path d="M60.7028,76.06256c-0.14976.52511-.1844,1.2673-0.6181,1.17539a22.25583,22.25583,0,0,0-3.27212-.00681c-0.58241-.04148-0.55124-0.786-0.43921-1.34947a0.68215,0.68215,0,0,1,1.10813-.5111,2.15139,2.15139,0,0,0,2.0584.01093C60.3,75.05221,60.57107,75.52066,60.7028,76.06256Z"></path><path d="M57.27354,37.22752c-0.33452.96442-.648,2.03762-1.08424,3.0584-0.23852.55808-.7435,0.39149-0.97868-0.028-0.35794-.63848.38806,0.00536,0.41144-0.30444,0.017-.22545.23178-0.60608,0.17785-0.64138-0.87653-.573.06534-1.91324-1.06523-2.44548-0.23189-.10918.12818-0.99584,0.48959-1.23494C55.65967,35.34368,57.26214,36.58959,57.27354,37.22752Z"></path><path d="M71.20184,31.41244a10.35611,10.35611,0,0,1-1.03128,3.12638c-0.13546.21358-.23931,0.5212,0.043,0.63428a0.99713,0.99713,0,0,0,1.14419-.42892c-0.18317,1.22241-.60768,1.51429-1.71215,1.28913-0.30147-.06147-0.24869-0.17484-0.21177-0.37245,0.46053-2.46517.58842-5.02862,2.1237-7.42258,0.63037,1.3427-.31175,2.22162-0.3953,3.21739Z"></path><path d="M67.62178,28.94167c-0.46284-.4033.25014-0.8113-0.23421-0.99541-0.36413-.13846-0.48406.27327-0.56572,0.51457a2.63213,2.63213,0,0,1-1.0846,1.34154c-0.46462-.25861-0.02943-0.77394-0.38784-1.147-0.267-.2779-0.81665-1.0918.35211-1.23146a1.2034,1.2034,0,0,0,.42324-0.7246c0.10939-.33278.13955-0.71508,0.61441-0.65915,0.49271,0.058-.01647.66683,0.41235,0.78751,0.62226-.07305.63526-1.3987,1.35429-0.90922,0.75338,0.51291-.13249,1.19186-0.27584,1.79378A6.21856,6.21856,0,0,1,67.62178,28.94167Z"></path><path d="M82.32793,44.18053c0.56583,0.01046.88728,0.91682,0.971,1.29532a1.73016,1.73016,0,0,1-.57622,1.55367,1.10749,1.10749,0,0,1-1.45163.17354c-0.51877-.1655-0.244-0.59446-0.09376-0.91953a1.17466,1.17466,0,0,0-.06248-0.82755C80.83732,44.21836,81.8796,44.39309,82.32793,44.18053Z"></path><path d="M91.48213,48.85906c-0.92652,1.86187-1.79541,3.608-2.6643,5.35408C88.597,51.93723,87.97059,49.475,91.48213,48.85906Z"></path><path d="M40.81494,67.51813a3.3373,3.3373,0,0,1,2.28251-2.021,1.05529,1.05529,0,0,1,1.0854.97579c0.07124,0.47685-1.78281,2.00327-2.34658,2.02249A0.91644,0.91644,0,0,1,40.81494,67.51813Z"></path><path d="M83.85369,70.83127a1.22068,1.22068,0,0,1,.19356-1.62093c1.2395-1.66071,1.61412-3.68211,2.4311-5.5156,0.08105-.182.22929-0.441,0.02519-0.49513-0.58625-.15551-0.46321-0.37358-0.12366-0.6539a0.946,0.946,0,0,1,1.09933.06454c0.36847,0.17734.33481,0.49832,0.14158,0.86614a35.997,35.997,0,0,1-2.50227,4.72588C84.5081,69.03112,84.97724,70.30261,83.85369,70.83127Z"></path><path d="M84.20913,42.80087c-0.36587-.61687.3187-0.96652-0.16872-1.33535-0.5916.129-.44645,0.94364-1.12315,1.16475,0.16717-.73912.2833-1.41792,0.4829-2.07125a0.983,0.983,0,0,1,.77575-0.79229c1.09995,0.32836,1.3385-.57151,1.76088-1.13611,0.24822-.33169.46947-0.54806,0.80938-0.3335,0.38777,0.24482.01307,0.528-.11584,0.73448C85.85963,40.26634,85.06021,41.48314,84.20913,42.80087Z"></path><path d="M71.0641,41.62866c-0.68185-.24344.28355-1.3385-0.84732-1.04518a1.01411,1.01411,0,0,1,.482-1.06943c1.02375-.53893,2.08182-1.76656,1.902-2.84128-0.19222-1.149.803-1.44308,1.14437-2.17832a0.56316,0.56316,0,0,1,.53007-0.07573,0.52634,0.52634,0,0,1,.14469.49767C72.95059,36.97359,72.29828,39.4705,71.0641,41.62866Z"></path><path d="M71.7486,86.22564a5.11807,5.11807,0,0,1-2.28424,1.77753,0.80249,0.80249,0,0,1-.92449-0.7275,5.49234,5.49234,0,0,1,2.02263-2.15472C71.275,85.14611,71.43811,85.80034,71.7486,86.22564Z"></path><path d="M73.15211,42.37169c0.74342-2.35107,1.26824-4.7884,2.69579-6.8705A20.276,20.276,0,0,1,73.15211,42.37169Z"></path><path d="M84.00692,71.89976A7.68932,7.68932,0,0,0,85.30586,69.098a1.02165,1.02165,0,0,1,1.259-.9423,1.09988,1.09988,0,0,1,.83979.97409,2.26935,2.26935,0,0,1-1.10288,1.55367c-1.206-.92272-1.006.56978-1.50223,0.775C84.66629,71.51344,84.54524,71.598,84.00692,71.89976Z"></path><path d="M77.96038,68.18188c0.91765-.07605.72478,0.29553,0.64518,0.62581-0.18186.75425-.78274,1.52315,0.20489,2.21492a0.60408,0.60408,0,0,1-.08981.91454,1.81324,1.81324,0,0,1-1.09235.29593,0.80325,0.80325,0,0,1-.62512-0.892c0.17886-1.06777,1.22241-1.907.85079-3.1375C77.98721,68.17642,78.12046,68.14927,77.96038,68.18188Z"></path><path d="M50.48126,26.89293c0.23106-2.00761,1.02628-3.93276.96323-5.99191a0.54891,0.54891,0,0,1,.37325-0.37683,0.349,0.349,0,0,1,.25542.54027c-0.31816.87012-.054,1.8256-0.404,2.7153-0.24308.61785-.54509,1.34965,0.42306,1.75726a0.43972,0.43972,0,0,1,.07949.65311c-0.212.25115-.34143,0.00011-0.55-0.12185C50.66591,25.50951,51.23753,27.05449,50.48126,26.89293Z"></path><path d="M89.36231,57.42738c-0.166-2.43031,1.27291-5.87289,2.90046-6.50167A30.28352,30.28352,0,0,0,89.36231,57.42738Z"></path><path d="M40.15518,76.89641a1.249,1.249,0,0,1-1.03457,1.06114,1.19315,1.19315,0,0,1-1.39251-1.14882A0.79007,0.79007,0,0,1,38.5619,75.856,1.63135,1.63135,0,0,1,40.15518,76.89641Z"></path><path d="M83.62672,34.85376c-0.21256,1.8205-1.90459,4.61728-2.73333,4.74568-0.03052-.64923,1.25857-1.17427.18968-1.93521a0.65591,0.65591,0,0,1,.20655-0.30082C82.44768,37.03212,82.74976,35.87465,83.62672,34.85376Z"></path><path d="M61.56706,54.17293a2.13195,2.13195,0,0,1,1.985,1.12152c0.18939,0.47175-.58491.73387-0.91363,0.566-0.68036-.3474-1.85579.3335-2.06908-0.874C60.43083,54.20236,61.158,54.26686,61.56706,54.17293Z"></path><path d="M75.05746,81.33549c0.03338-.61539-0.06809-1.25025.74773-1.21228a1.15959,1.15959,0,0,1,1.02708,1.34339c0.049,0.53825-.04072,1.21724-0.76141,1.11287A1.0369,1.0369,0,0,1,75.05746,81.33549Z"></path><path d="M87.19777,76.99592a8.26263,8.26263,0,0,1,.70737-3.0495,1.32129,1.32129,0,0,0,.20286-1.47258c-0.26-.37017.068-0.54208,0.31356-0.64858a0.90983,0.90983,0,0,1,.68909-0.04767,0.60371,0.60371,0,0,1,.14711.79182C88.59307,74.05474,87.88882,75.5224,87.19777,76.99592Z"></path><path d="M71.55276,46.71893c0.33064-.67609.61072-1.17977,0.82773-1.70933,0.31254-.76257.43674-1.25543,1.02371-0.06805,0.41734,0.84424.52344-.48116,1.053-0.35479C73.96,45.88841,73.4282,47.05435,71.55276,46.71893Z"></path><path d="M51.18045,85.00888c-0.13006.42625,0.1032,1.16478-.61962,1.08232-0.46759-.05336-1.37108-0.03718-1.24359-0.87265,0.09582-.62755.09846-1.61184,1.10527-1.572C51.22237,83.67819,51.04228,84.47983,51.18045,85.00888Z"></path><path d="M69.85183,66.35194a2.148,2.148,0,0,1,1.18886,1.52087,0.78951,0.78951,0,0,1-1.02563.74,1.69884,1.69884,0,0,1-1.14545-1.52207C68.78207,66.54546,69.25527,66.37945,69.85183,66.35194Z"></path><path d="M42.60036,74.7a1.24264,1.24264,0,0,1-1.0859-1.42571c0.01948-.81463.69148-0.7482,1.19258-0.76,0.86661-.02045.78531,0.79544,0.85358,1.28761A0.77639,0.77639,0,0,1,42.60036,74.7Z"></path><path d="M61.77379,41.58454c1.07914-1.36967,1.0749-3.16584,2.48569-4.61095C64.1709,39.24111,63.08174,41.23185,61.77379,41.58454Z"></path><path d="M49.3244,80.742a1.34824,1.34824,0,0,1-1.16384,1.17571,0.98476,0.98476,0,0,1-1.0219-1.0202c0.02686-.60272.09144-1.2029,0.94632-1.16609A1.38238,1.38238,0,0,1,49.3244,80.742Z"></path><path d="M82.897,82.48438a0.563,0.563,0,0,1,.61984.7044c-0.213.57235-.47511,1.422-1.39917,1.2441a0.80955,0.80955,0,0,1-.82484-0.98538A1.202,1.202,0,0,1,82.897,82.48438Z"></path><path d="M74.49677,69.94974a1.47838,1.47838,0,0,1-.927-1.51056,0.85108,0.85108,0,0,1,.98013-0.84435c1.06715-.03041.82549,0.98527,0.97173,1.52562C75.67114,69.67322,74.90488,69.70971,74.49677,69.94974Z"></path><path d="M78.49085,76.96613c1.18893-1.46455,2.37789-2.92906,3.76562-4.6385a10.74839,10.74839,0,0,1-3.46933,4.90568Z"></path><path d="M35.12674,67.29189c0.74777-.03844,1.12942.24825,1.09191,0.84156-0.0354.56091-.1091,1.22176-0.92532,1.20207A1.02532,1.02532,0,1,1,35.12674,67.29189Z"></path><path d="M69.97505,82.10787c0.77825-.004.6518,0.52782,0.63414,0.93738a1.02024,1.02024,0,0,1-1.09463,1.10661,0.85578,0.85578,0,0,1-.94172-0.90143C68.61979,82.35515,69.41925,82.322,69.97505,82.10787Z"></path><path d="M33.431,62.23667a0.98954,0.98954,0,0,1-1.06314-1.12c0.04536-.76293.63953-0.7659,1.17-0.72275a0.95244,0.95244,0,0,1,.91591,1.20181C34.40641,62.37958,33.85886,62.18678,33.431,62.23667Z"></path><path d="M66.78677,89.625a0.85078,0.85078,0,0,1-.88427,1.07218,0.94122,0.94122,0,0,1-1.0644-.94827,1.19487,1.19487,0,0,1,1.16656-1.09673C66.63991,88.61515,66.78659,89.09646,66.78677,89.625Z"></path><path d="M79.5016,88.027a1.2525,1.2525,0,0,1-1.10125.94082,0.83328,0.83328,0,0,1-.9612-0.98831,0.93365,0.93365,0,0,1,.988-1.01235A1.25109,1.25109,0,0,1,79.5016,88.027Z"></path><path d="M66.92534,76.51686a0.78248,0.78248,0,0,1,.7296.90219,0.9776,0.9776,0,0,1-1.074,1.0989,0.94269,0.94269,0,0,1-.97332-0.90835C65.51588,76.66354,66.4967,76.90535,66.92534,76.51686Z"></path><path d="M54.633,87.712a0.927,0.927,0,0,1,.926,1.09474,0.77909,0.77909,0,0,1-.79772.86241,1.13309,1.13309,0,0,1-1.19638-1.06665A0.853,0.853,0,0,1,54.633,87.712Z"></path><path d="M42.32036,52.733a1.033,1.033,0,0,1-1.31928-1.00279,0.78546,0.78546,0,0,1,.93-0.7052,0.98514,0.98514,0,0,1,1.11038,1.05542C43.03841,52.6316,42.91222,52.92261,42.32036,52.733Z"></path><path d="M57.02282,71.8986c0.037,0.76228-.21958,1.0252-0.853,1.01716a0.99455,0.99455,0,0,1-1.13492-.87725A1.11706,1.11706,0,0,1,56.2504,71.024,0.797,0.797,0,0,1,57.02282,71.8986Z"></path><path d="M59.81161,88.92194a0.60087,0.60087,0,0,1-.73919-0.65944,1.09547,1.09547,0,0,1,1.1023-1.24308c0.41115-.00145.986,0.02284,0.8985,0.61224A1.20017,1.20017,0,0,1,59.81161,88.92194Z"></path><path d="M48.65295,71.20474a0.73994,0.73994,0,0,1-.8926.54111,0.97324,0.97324,0,0,1-1.0176-1.00934,0.99754,0.99754,0,0,1,1.054-.98183C48.32538,69.80821,48.73276,70.23966,48.65295,71.20474Z"></path><path d="M43.58491,57.18655a1.0345,1.0345,0,0,1,1.00706.98589,0.97426,0.97426,0,0,1-1.12641.893,0.81722,0.81722,0,0,1-1.0008-.80094C42.44623,57.51509,43.21756,57.50514,43.58491,57.18655Z"></path><path d="M71.11681,47.81334c-1.16026.89727-.20315,2.87368-1.79812,3.49406C69.87869,47.90608,69.87869,47.90608,71.11681,47.81334Z"></path><path d="M65.81616,69.60346a0.98309,0.98309,0,0,1-.95124.91783,0.79429,0.79429,0,0,1-1.06361-.72214,1.05742,1.05742,0,0,1,1.07114-1.13847C65.6357,68.57569,65.52374,69.24726,65.81616,69.60346Z"></path><path d="M59.77027,52.143c-0.6715.02628-1.05734-.217-1.02422-0.83446a0.751,0.751,0,0,1,.89774-0.87284,1.14129,1.14129,0,0,1,1.18513.88923C60.881,52.05053,60.16828,52.0051,59.77027,52.143Z"></path><path d="M70.5479,75.3612c-0.45437-.28594-1.13937-0.19066-1.04453-0.879A0.93852,0.93852,0,0,1,70.406,73.507a1.16413,1.16413,0,0,1,1.20732,1.05372C71.66088,75.06122,70.86114,75.004,70.5479,75.3612Z"></path><path d="M71.16224,31.45567a1.82335,1.82335,0,0,0,.86053-1.30393,0.72768,0.72768,0,0,1,.76243-0.70093c0.38346,0.14114.23135,0.66759,0.123,1.03479a15.12353,15.12353,0,0,1-.75751,2.08877c-0.02313-.68938-0.94581-0.50245-0.94813-1.163Z"></path><path d="M48.49389,57.78043a0.91737,0.91737,0,0,1,.86574.93,0.95309,0.95309,0,0,1-.84891,1.0185,0.92062,0.92062,0,0,1-1.01039-.867A1.251,1.251,0,0,1,48.49389,57.78043Z"></path><path d="M49.40574,51.01469a0.86369,0.86369,0,0,1-.993-0.88822A0.91237,0.91237,0,0,1,49.31,49.138a0.75183,0.75183,0,0,1,.87081.89589A0.8584,0.8584,0,0,1,49.40574,51.01469Z"></path><path d="M38.02547,55.69217c-0.84076.03917-1.17028-.2311-1.19211-0.74368a1.01611,1.01611,0,0,1,1.07255-.98223c0.73079-.14237.82227,0.60681,0.83783,0.95284A0.81818,0.81818,0,0,1,38.02547,55.69217Z"></path><path d="M62.58462,70.56441a1.03431,1.03431,0,0,1-1.17115.88569A0.80523,0.80523,0,0,1,60.553,70.637a0.86668,0.86668,0,0,1,.994-0.86516A0.88982,0.88982,0,0,1,62.58462,70.56441Z"></path><path d="M51.708,67.87633a0.87974,0.87974,0,0,1-1.066-.69926,0.96613,0.96613,0,0,1,1.13369-.84594,0.831,0.831,0,0,1,1.02353.78313C52.79873,67.7468,52.30288,67.88049,51.708,67.87633Z"></path><path d="M36.406,47.119a0.84991,0.84991,0,0,1,.87454.96688,0.69057,0.69057,0,0,1-.77379.80214,0.98955,0.98955,0,0,1-.96905-1.05133A0.80316,0.80316,0,0,1,36.406,47.119Z"></path><path d="M49.67416,19.88263c-0.509,1.37492.19385,3.025-1.14009,4.46959C48.75695,22.65531,48.60618,21.1306,49.67416,19.88263Z"></path><path d="M37.398,61.33114a1.08686,1.08686,0,0,1-1.03454.87649,0.85119,0.85119,0,0,1-.94918-0.87892,0.8325,0.8325,0,0,1,.95729-0.83222A1.09624,1.09624,0,0,1,37.398,61.33114Z"></path><path d="M68.77313,34.11859c-0.67059-.70719-0.574-2.74249.01694-2.96906,0.53568-.20539.60514,0.159,0.63975,0.62588C69.49147,32.60608,68.79517,33.162,68.77313,34.11859Z"></path><path d="M55.96284,83.24793c0.37662-.08471.51,0.40768,0.594,0.802a0.75509,0.75509,0,0,1-.75508.87595,0.72234,0.72234,0,0,1-.90277-0.686C54.82622,83.63041,55.1645,83.36547,55.96284,83.24793Z"></path><path d="M55.08562,62.39544c0.59255,0.10226,1.05.13973,1.00916,0.77933a0.7709,0.7709,0,0,1-.80742.832,0.75565,0.75565,0,0,1-.954-0.65419A1.1542,1.1542,0,0,1,55.08562,62.39544Z"></path><path d="M57.38988,59.192a0.93645,0.93645,0,0,1-.79921.64941,0.95381,0.95381,0,0,1-1.01644-.84319c-0.108-.65564.57745-0.72478,0.99591-0.78592C57.04273,58.14329,57.3371,58.51437,57.38988,59.192Z"></path><path d="M44.23208,45.96164c0.40076,0.28825,1.10773.29636,1.09669,0.87548-0.013.685-.76721,0.70389-1.23,0.7932a0.70854,0.70854,0,0,1-.70817-0.78386A1.04762,1.04762,0,0,1,44.23208,45.96164Z"></path><path d="M53.63483,54.60554a0.80082,0.80082,0,0,1-.78274.80438c-0.46791-.0088-0.88044-0.02932-0.92384-0.64894-0.03421-.48815.03678-0.905,0.62024-0.92413A0.91579,0.91579,0,0,1,53.63483,54.60554Z"></path><path d="M38.48766,39.17512a0.6568,0.6568,0,0,1,.67381.75588,1.02214,1.02214,0,0,1-.949.91935,0.6327,0.6327,0,0,1-.77427-0.6501A1.14415,1.14415,0,0,1,38.48766,39.17512Z"></path><path d="M88.2271,42.83573c-0.76851.35218-.76891,1.34122-1.42107,1.78926-0.66418-.54118.65589-1.40167-0.36261-1.84225a1.22979,1.22979,0,0,1,.71381-0.69749,0.87675,0.87675,0,0,1,1.03244.787Z"></path><path d="M33.172,55.24091a0.81917,0.81917,0,0,1-.78574-0.76909,0.72652,0.72652,0,0,1,.744-0.86458,0.8106,0.8106,0,0,1,.97456.81318C34.17162,55.00106,33.67693,55.09264,33.172,55.24091Z"></path><path d="M65.959,59.26514c0.74585,0.01332,1.10933.24351,1.08851,0.77763a0.76371,0.76371,0,0,1-.88608.75921c-0.43964-.02215-0.94422-0.08938-0.93745-0.68659A0.78047,0.78047,0,0,1,65.959,59.26514Z"></path><path d="M61.79862,86.54271a0.70631,0.70631,0,0,1-.65148-0.89723c0.08869-.3945.18559-0.937,0.78147-0.84793a0.83328,0.83328,0,0,1,.82668.97535A0.86913,0.86913,0,0,1,61.79862,86.54271Z"></path><path d="M47.2853,55.60265a1.00983,1.00983,0,0,1-.73282.95294,0.96841,0.96841,0,0,1-1.088-.91345c-0.06766-.546.46965-0.49369,0.83113-0.56359A0.69076,0.69076,0,0,1,47.2853,55.60265Z"></path><path d="M86.01833,71.14761c-0.34,1.22527.20286,2.95154-1.93579,2.45076C84.80522,72.93817,84.97134,71.79323,86.01833,71.14761Z"></path><path d="M71.47725,52.781c0.44442-.774-0.25644-1.81271.95711-2.08982a0.70854,0.70854,0,0,1,.9621.37235c0.26987,0.59081-.31316.587-0.47852,0.64576C72.379,51.901,72.19211,52.48945,71.47725,52.781Z"></path><path d="M51.96184,74.58415c0.06016,0.33958-.27468.4118-0.72174,0.401a0.693,0.693,0,0,1-.82969-0.75273,0.62605,0.62605,0,0,1,.64221-0.76087C51.69654,73.44467,51.88007,73.82306,51.96184,74.58415Z"></path><path d="M28.73718,36.97771c0.2859,1.99907-.14092,3.9459.37644,5.80694,0.141,0.50726-.078,1.381.94523,1.308a0.43207,0.43207,0,0,1,.18867.33046,0.41154,0.41154,0,0,1-.24717.28659,0.6585,0.6585,0,0,1-.83743-0.42947,12.56507,12.56507,0,0,1-.8842-2.99429c-0.0888-1.0585-.14614-2.11338-0.333-3.164A0.96831,0.96831,0,0,1,28.73718,36.97771Z"></path><path d="M29.86793,34.82a10.50811,10.50811,0,0,1,1.09749,4.84215A8.80066,8.80066,0,0,1,29.86793,34.82Z"></path><path d="M25.79244,51.31178c-0.33806-1.60717-.6067-2.8012-0.82762-4.004-0.04478-.24387-0.12141-0.68094.28-0.70733a0.51829,0.51829,0,0,1,.49991.71747C25.49351,48.51383,26.06311,49.67358,25.79244,51.31178Z"></path><path d="M27.90872,48.286c-0.74426-.86075-0.49079-1.835-0.7385-2.68374-0.0787-.26983-0.26208-0.7444.28666-0.813,0.56395-.07048.43873,0.402,0.44525,0.707C27.92089,46.37348,27.90872,47.25138,27.90872,48.286Z"></path><path d="M16.74637,22.08267q1.161-1.01533,2.32189-2.03067C19.10475,21.72408,17.63238,21.54392,16.74637,22.08267Z"></path><path d="M14.83269,47.83752a12.0732,12.0732,0,0,0-.197,4.10865C13.41285,50.47728,13.44445,49.84882,14.83269,47.83752Z"></path><path d="M67.95778,9.45725a1.11512,1.11512,0,0,1-1.13644,1.40008,30.59614,30.59614,0,0,0-4.99086.93919c-0.41948.09535-1.09821,0.24529-1.1907-.47055a0.85375,0.85375,0,0,1,.91913-0.93749c2.21022,0.21209,4.13591-1.25184,6.33447-1.00786Z"></path></svg>