<svg xmlns="http://www.w3.org/2000/svg" xmlns:xlink="http://www.w3.org/1999/xlink" version="1.1" x="0px" y="0px" viewBox="0 0 100 125" style="enable-background:new 0 0 100 100;" xml:space="preserve"><path d="M86.3,33.9C86.2,33.9,86.2,33.9,86.3,33.9c-0.1,0-0.2,0-0.3,0c-2.8,0.3-5.6,0-8.4-0.4c0.8-0.5,1.4-1.4,2.1-2.2  c1.2-1.5,2.3-2.6,2.5-4.5c1.1-1.6,1.8-3.5,1.9-5.5c0-0.6-0.7-0.8-1.1-0.5c-3.6,3-7.8,5.4-12.4,6.1c0.2-0.2,0.3-0.4,0.5-0.7  c0.4-0.5-0.2-1.1-0.7-0.9c-0.9,0.2-1.8,0.5-2.7,0.7c0.1-0.1,0.2-0.2,0.2-0.3c0.3-0.5,0.3-1.1,0.3-1.6c-0.1-1.2-0.6-2.3-0.6-3.5  c0-0.7,0-1.3-0.3-2c-0.2-0.4-0.9-0.4-1.1,0c-0.4,0.7-1.1,1.1-1.9,1.6c0.3-1,0.4-2,0.3-3c-0.3-2.4-2.1-4.4-2.3-6.9  c0-0.6-0.9-0.9-1.2-0.3c-1.4,2.8-4.1,3.9-6.4,5.7c-0.6-1.3,0-2.9,0-4.3c0-0.6-0.7-0.8-1.1-0.5c-1.4,1.3-3,2.4-4.1,4  C48,12.1,47.2,9.1,46.8,6c-0.1-0.8-1.4-0.8-1.3,0c0.2,2.2-1.5,3.9-1.9,6c-0.1,0.4-0.1,0.9-0.1,1.3c-1.4-1.5-2.9-2.8-4.5-4.2  c-2.4-2.1-4.8-4.3-7-6.7c-0.3-0.3-0.8-0.2-1,0.1c-1,2.4,0.7,5.2,1.6,7.3c0.5,1.2,1,2.5,1.8,3.6c0.2,0.2,0.4,0.4,0.6,0.6  c1.2,1.7,1.9,3.7,3.3,5.3c0.2,0.2,0.4,0.4,0.6,0.6c-0.1,0.2,0,0.5,0.1,0.7c-2.1-0.1-4.2,0.2-6.1,0.5c-1.5,0.3-2.9,0.8-4.2,1.5  c0,0-0.1,0-0.1,0c-0.1-0.1-0.2-0.1-0.4-0.1c-1.2,0-2.3,0.6-2.9,1.7c-0.2,0.3-0.1,0.7,0.2,0.9c-1.2,1-2.2,2.2-3.2,3.3  c-1,1.2-1.8,2.4-2.5,3.7c-0.4,0.1-0.8,0.3-1,0.6c-0.6,0.7-0.8,1.7-0.5,2.5c0,0.1,0.1,0.1,0.1,0.2c0,0.1,0.1,0.1,0.1,0.1  c-0.3,1.2-0.6,2.4-0.7,3.7c-0.2,0-0.5,0.1-0.6,0.3c-0.5,1.1-0.5,2.4,0.1,3.5c-0.5,3.2-1,6.5-1.4,9.7c-0.3-0.1-0.6,0-0.8,0.3  c-0.9,1-0.6,2.6,0.3,3.5c0,0,0,0,0,0c-0.4,3.4-0.8,6.8-0.9,10.2c-0.1,0-0.2,0.1-0.3,0.2c-0.7,0.8-0.8,1.9-0.2,2.9  c0.1,0.2,0.3,0.3,0.5,0.3c0,1.5,0.1,3,0.3,4.5c-0.3,0.1-0.5,0.3-0.6,0.5c-0.3,0.6-0.3,1.8,0.1,2.4c0,0,0.1,0.1,0.1,0.1  c-0.1,0.1-0.1,0.2-0.1,0.3c0,0.7-0.1,1.3-0.1,2c-0.2,0.1-0.4,0.2-0.5,0.4c-0.7,0.6-0.3,1.6,0.2,2.2c0.1,0.1,0.1,0.1,0.2,0.2  l-0.1,1.6c-0.1,2.1-0.5,4.4-0.2,6.5c0.2,1.2,0.8,2.1,1.6,2.8c0,0.2,0,0.4,0,0.6c0.1,0.5,0.5,1.2,1,1.3c0.5,0.1,0.8-0.2,0.9-0.5  c1,0.5,2.1,0.9,3,1.2c0.1,0,0.2,0.1,0.3,0.1c-0.1,0.9,1.1,1,1.8,0.9c0.4-0.1,0.8-0.3,1-0.6c2.3,0,4.4-0.9,6.5-2.1  c2.3-1.4,4.5-3,6.8-4.7c0.1,0.1,0.2,0.1,0.4,0.1c0,0,0.1,0,0.2,0c1.3-0.1,2.4-0.8,3.1-1.8c0.2-0.2,0.1-0.6-0.1-0.8  c2.7-1.9,5.3-3.8,8-5.7c0.3,0.1,0.6,0.1,0.9,0.1c0.9,0,2.2-0.3,2.4-1.3c0.1-0.4,0-0.7-0.2-1c3.5-2.5,6.9-4.9,10.4-7.4  c1.9-1.3,3.8-2.7,5.5-4.2c0,0,0.1,0,0.1,0c1.2-0.1,2.3-0.8,2.7-2c0.1-0.2,0-0.4-0.2-0.6c2.2-2.5,3.9-5.4,4.6-9.1  c0.7-3.8,0-8.1-0.8-11.9c-0.1-0.2-0.1-0.5-0.2-0.7c0,0,0.1-0.1,0.1-0.1c0.7-0.7,0.5-1.8,0-2.6c-0.3-0.4-0.7-0.6-1.2-0.5  c-0.6-1.4-1.4-2.8-2.5-4c1.6,0.5,3.3,0.9,5,1.1c1.9,0.2,4,0.4,5.9-0.2c1.9-0.6,3.5-1.9,5.6-2.1C87.1,35,87.1,33.8,86.3,33.9z   M78.8,30.2c-0.9,1.1-1.6,2.5-3.2,2.6c-0.2,0-0.3,0.1-0.4,0.2c-1.8-0.3-3.5-0.7-5.2-1.1c3-0.3,6-0.8,8.6-2.1  c0.4-0.2,0.7-0.4,1.1-0.6C79.4,29.4,79.1,29.8,78.8,30.2z M69.5,28.3c4.4-0.4,8.4-2.2,11.9-4.8c-0.4,1-0.6,2-0.8,3  c-3,3.3-8.8,3.8-13.5,4.4c0.8-0.8,1.5-1.7,2.3-2.6C69.4,28.3,69.4,28.3,69.5,28.3z M68.8,27c-0.9,1.1-1.8,2.1-2.7,3.2  c-0.3,0.3-0.6,0.7-0.9,1c-0.1,0-0.1,0.1-0.1,0.1c-0.3,0.3-0.5,0.5-0.8,0.7c-1.1,0.7-2-0.2-2.9-0.8c-0.4-0.3-0.9-0.6-1.3-0.8  c1.4,0.2,2.8,0.2,4.2-0.1c0.8-0.1,0.5-1.4-0.3-1.2c-1.1,0.2-2.2,0.2-3.3,0.1C63.4,28.5,66.1,27.7,68.8,27z M63.7,22.1  c0.7-0.9,1.8-1.2,2.6-1.8c0.1,0.8,0,1.7,0.2,2.4c0.2,0.9,0.7,1.8-0.1,2.7c-0.3,0.3-0.8,0.4-1.1,0.7c0,0,0,0,0,0  c-1.7,0.4-3.3,0.9-5,1.3c1-1.1,1.8-2.4,2.4-3.5c0.3-0.5,0.5-1,0.8-1.6C63.5,22.3,63.6,22.2,63.7,22.1z M55.9,16.4  c1.9-1.3,3.9-2.5,5.3-4.3c0.2,0.8,0.6,1.6,0.9,2.4c1,2.1,1.4,3.8,0.6,6c-0.6,1.7-2.5,6.1-4.8,7.5c-0.1,0-0.1,0-0.2,0  c-0.2,0-0.3,0.1-0.3,0.2c-0.4,0.2-0.8,0.2-1.2,0.2c0.9-4.2,3.4-7.7,5.9-11.1c0.5-0.7-0.6-1.3-1.1-0.6c-2.5,3.5-5.1,7-6,11.3  c-0.2-0.1-0.4-0.3-0.5-0.4c0,0-0.1-0.1-0.1-0.1c-0.7-1.9-1.2-3.9-1.3-5.9C53.1,20.3,53,19,53.8,18C54.4,17.4,55.2,16.9,55.9,16.4z   M50.3,15.7c0.7-1.1,1.8-2,2.9-2.8c-0.1,1.3-0.3,2.5,0.4,3.7c-0.2,0.2-0.4,0.4-0.6,0.6c-0.7,0.8-1,1.8-1.1,2.9  c-0.4-0.8-0.8-1.6-1.2-2.3c-0.3-0.6-0.6-1.1-0.9-1.7C49.9,15.9,50.1,15.9,50.3,15.7z M45.6,9.9c0.1-0.3,0.3-0.5,0.4-0.8  c0.5,2.3,1.2,4.5,2.2,6.7c1.5,3.3,4.4,6.8,3.4,10.6c-0.2,0-0.5-0.1-0.7-0.1c-0.1,0-0.1-0.1-0.2-0.1c-0.2,0-0.3-0.1-0.5-0.1  c-0.6-1.6-1.1-3.3-1.5-5c-0.2-0.8-1.4-0.5-1.2,0.3c0.3,1.1,0.6,2.2,1,3.3c-1-0.8-1.9-1.8-2.4-3C45.5,20,45.3,18,45,16.3  C44.6,14,44.6,12.1,45.6,9.9z M35,11.9C35,11.9,34.9,11.9,35,11.9c-0.1-0.1-0.1-0.2-0.2-0.3c-0.7-1.2-1.1-2.6-1.7-3.8  c-0.4-1-1.2-2.4-1.2-3.7c1.8,1.9,3.7,3.7,5.7,5.4c2.1,1.8,4.4,3.5,6,5.8c0.1,0.8,0.3,1.6,0.4,2.3c0.2,0.9,0.3,1.8,0.5,2.7  C43,18.8,41.7,17,40,15.6c-1.4-1.2-3.1-1.6-4.4-2.8C35.4,12.5,35.2,12.2,35,11.9z M38.7,17.8c-0.6-0.8-1.1-1.6-1.5-2.5  c0.1,0.1,0.3,0.1,0.4,0.2c2.5,1.3,4.3,3.8,6.1,6c-0.4-0.2-0.9-0.3-1.3-0.4c-0.1-0.1-0.2-0.1-0.3-0.2c0,0,0,0-0.1,0  c-0.3-0.4-0.6-0.8-1-1.1c-0.3-0.2-0.6-0.4-1-0.5C39.5,18.8,39.1,18.3,38.7,17.8z M73.3,52.5c-0.3-0.2-0.7-0.2-1.1,0.1  c-1.2,0.8-0.9,2.7,0.1,3.4c0.3,0.2,0.5,0.1,0.7-0.1c-0.5,2.5-1.5,4.9-3,7c-0.6,0.8-1.2,1.6-1.9,2.3c-0.7,0.3-1.2,0.7-1.6,1.4  c0,0.1,0,0.1-0.1,0.2c-1.3,1.1-2.8,2.2-4.2,3.2c-4,2.9-8,5.7-12,8.6c-0.1,0-0.2-0.1-0.3-0.1c-0.3-0.1-0.5,0-0.6,0.2  c-0.8,0-1.6,0.4-2.2,1c-0.3,0.3-0.2,0.6,0,0.9c0,0.1,0,0.3,0,0.4c-1,0.7-2,1.5-3.1,2.2c-1.9,1.4-3.8,2.7-5.7,4.1  c-0.7,0.1-1.2,0.5-1.6,1.1l-1.9,1.4c-0.4,0.3-0.7,0.5-1.1,0.8c-0.1-0.2-0.2-0.3-0.3-0.4c0-0.1-0.1-0.2-0.2-0.3  c-0.2-0.2-0.7-0.3-0.9,0c-0.5,0.6-0.7,1.3-0.5,2c0,0,0,0,0,0.1c-1.2,0.8-2.4,1.7-3.6,2.3c-0.1-0.3-0.3-0.5-0.6-0.7  c-0.6-0.3-1.2-0.1-1.7,0.2c-0.5,0.4-1,0.9-0.8,1.6c0,0,0,0,0,0.1c-0.5,0.1-1.1,0.2-1.6,0.2c-0.2-0.6-0.9-1-1.5-0.9  c-0.3,0.1-0.4,0.3-0.4,0.5c-0.1,0-0.2,0.1-0.3,0.1c-0.6-0.1-1.2-0.3-1.9-0.6c-0.7-0.3-1.4-0.6-2.1-0.9c0-0.5-0.2-0.9-0.4-1.3  c-0.2-0.4-0.7-0.4-0.9-0.1c-0.2,0-0.3,0.1-0.4,0.2c-0.4-0.4-0.7-1-0.8-1.6c-0.1-0.4-0.1-0.8-0.1-1.2c0.1,0.1,0.2,0.2,0.4,0.2  c0.3,0.3,0.8,0.3,1-0.1c0.5-1,0.2-2.3-0.9-2.8c-0.1,0-0.2-0.1-0.4-0.1c0.1-0.7,0.1-1.5,0.2-2.2c0-0.5,0.1-1,0.1-1.6  c0.4-0.1,0.6-0.5,0.7-0.9c0.1-0.7,0-1.6-0.6-2c0-0.6,0.1-1.3,0.1-1.9c0.2,0,0.4-0.1,0.6-0.2c0.8-0.5,0.7-1.5,0.5-2.2  c-0.1-0.3-0.3-0.5-0.6-0.5c0-0.1,0-0.3-0.1-0.4c0-0.1,0.1-0.2,0.1-0.3c-0.3-3.1-0.4-6.1-0.2-9.2c0.3,0.1,0.7,0,0.8-0.3  c0.3,0.1,0.6,0,0.7-0.3c0.3-0.6,0.8-1.2,0.8-1.8c0-0.6-0.4-1.1-1.1-1.1c-0.4,0-0.8,0.2-1.1,0.5c0.2-2.2,0.4-4.4,0.7-6.7  c0.6-4.7,1.3-9.5,2-14.3c0,0,0,0,0.1-0.1c0.2-0.4,0.3-0.8,0.1-1.2c0.1-0.8,0.2-1.5,0.4-2.3c0.1-0.7,0.2-1.4,0.4-2  c0.4,0,0.8-0.2,1-0.5c0.7-0.8,0.8-2,0.3-2.9c0,0,0,0,0-0.1c0.4-0.8,1-1.7,1.6-2.5c1.7-2.1,3.7-4.2,5.9-5.7c2.3-1.5,4.7-2,7.4-2.2  c-0.2,0.2-0.2,0.5-0.1,0.8c0.1,0.4,0.6,0.7,1,0.8c0.6,0.2,1.8,0.4,2.2-0.3c0.3-0.6,0.1-1.1-0.4-1.4c1,0,1.9,0,2.9,0.2  c0.1,0.1,0.3,0.2,0.5,0.2c0.6,0.4,1.3,0.8,1.9,1.1c0.5,0.2,1.2,0.4,1.6,0.7c0.5,0.3,0.9,1,1.2,1.5c0.7,0.8,1.5,1.6,2.4,2.2  c1.6,1.1,3.5,1.8,5.4,2c0.1,0.1,0.3,0.2,0.5,0.2c0.3,0,0.5,0,0.8-0.1c1,0.3,1.9,0.6,2.8,1c1.4,0.7,2.6,2.1,4.1,2.5  c0.1,0.1,0.2,0.2,0.3,0.3c1.5,0.6,2.9,1.2,4.4,1.8c0,0.1,0.1,0.3,0.2,0.4C72,39.6,73.3,46.7,73.3,52.5z M81.8,35.4  c-2.1,1-4.1,1-6.4,0.8c-3.8-0.3-7.2-1.7-10.7-3.1c0.4-0.2,0.7-0.5,1-0.8c0.1,0,0.2,0,0.4,0c5.3,1.1,10.8,2.7,16.2,2.9  C82.1,35.3,82,35.4,81.8,35.4z M28.1,76.6c-0.5-0.7-1.5-0.4-2.1,0c-0.6,0.4-1.1,1.1-1.3,1.8c0,0,0,0.1,0,0.1  c-0.1,0.4,0.1,0.9,0.6,0.8c0.8,0,1.6-0.3,2.2-0.8C28,78.1,28.5,77.3,28.1,76.6z M26.1,67.2C26,68,25.5,68.5,24.9,69  c-0.4,0.4-1,0-1.1-0.4c0-0.1-0.1-0.1-0.1-0.2c-0.4-1-0.1-2.1,0.8-2.8c0.2-0.2,0.5-0.3,0.8-0.1C25.8,65.9,26.1,66.5,26.1,67.2z   M23.7,82.8c-0.4-0.7-1.3-0.5-1.7,0.1c-0.4,0.6-0.4,1.2-0.3,1.9c0,0.1,0.1,0.2,0.2,0.3c0.1,0.3,0.5,0.5,0.8,0.4  C23.8,85.1,24.4,83.8,23.7,82.8z M20.5,88.6c-0.1,0.3-0.3,0.6-0.5,0.8c-0.1,0.1-0.4,0.3-0.5,0.4c-0.2,0.4-0.6,0.5-0.9,0.4  c-0.6-0.1-0.7-0.9-0.6-1.4c0.2-0.6,0.5-1.2,1.2-1.4C19.9,87.2,20.6,87.8,20.5,88.6z M20.7,93.8c-0.4,0.2-1.1-0.1-1-0.7  c0.2-1.3,1.4-2.2,2.6-2.3c0.3,0,0.7,0.3,0.6,0.6C22.8,92.7,21.9,93.6,20.7,93.8z M29.8,86c-0.5-0.5-1.1-0.4-1.6,0  c-0.4,0.4-0.7,0.9-0.7,1.5c-0.4,0.4-0.1,1.2,0.6,1.1C29.1,88.4,30.8,87.2,29.8,86z M28.1,83.6c-0.2,0.2-0.3,0.4-0.6,0.5  c-0.1,0.1-0.3,0.2-0.4,0.3c-0.2,0.3-0.6,0.4-0.9,0.2c-0.3-0.2-0.4-0.6-0.2-0.9c0.1-0.2,0.2-0.3,0.4-0.4c0.1-0.4,0.2-0.9,0.4-1.2  c0.3-0.5,1-0.5,1.4,0C28.5,82.6,28.4,83.1,28.1,83.6z M25.2,87.2c-0.8-1-1.8,0.4-2.3,1c-0.2,0.3-0.3,0.6,0,0.9  c0.2,0.2,0.6,0.3,0.8,0.1c0.2,0,0.3,0,0.5-0.1c0.4-0.2,0.8-0.3,1.1-0.7C25.5,88.1,25.5,87.6,25.2,87.2z M18.2,83.8  C18,84,17.8,84.1,17.6,84c0,0,0,0-0.1,0c-0.4,0.1-0.7-0.1-0.8-0.4c-0.2-0.4-0.2-0.9,0-1.4c0-0.6,0.4-1.1,1.1-1.3  c0.3-0.1,0.6,0,0.7,0.3C19,82.1,18.9,83.2,18.2,83.8z M22.3,76.5c-1.1-0.8-1.9,1-2,1.8c0,0.3,0.1,0.7,0.4,0.8c0.1,0,0.2,0,0.3,0  c0.2,0.2,0.6,0.1,0.8-0.1c0.4-0.3,0.7-0.7,0.9-1.1C22.9,77.5,22.8,76.9,22.3,76.5z M21.9,73.9c-0.1,0.5-0.7,0.6-1,0.3  c-0.2,0.1-0.4,0-0.6-0.2c-0.7-0.7-0.6-2,0.3-2.5c0.5-0.3,1.3-0.2,1.5,0.5C22.3,72.6,22.1,73.3,21.9,73.9z M18.5,72.8  c0.3,0.6-0.7,1.2-1.2,0.5c-0.6-0.8-1.5-2.3-0.5-3.2c0.4-0.4,1.1-0.4,1.4,0.2c0.3,0.6,0.4,1.4,0.5,2.1C18.7,72.5,18.6,72.6,18.5,72.8  z M26.4,71.7c-0.4-0.2-1-0.1-1.3,0.2c-0.4,0.4-0.4,0.9-0.6,1.3c-0.2,0.4,0,0.7,0.2,0.9c0,0.2,0,0.4,0.2,0.5c0.2,0.2,0.7,0.3,0.9,0  C26.3,74,27.6,72.4,26.4,71.7z M36.6,86.2c-0.3,0-0.6-0.3-0.6-0.6c0-0.1,0-0.1,0-0.2c0,0,0,0,0,0c0.1-0.8,0.6-1.6,1.5-1.7  c0.3-0.1,0.7,0.1,0.8,0.4C38.5,85.1,37.7,86.1,36.6,86.2z M33.8,82.6c-0.1,0.5-0.5,1-0.9,1.3c0,0.2-0.1,0.4-0.3,0.5  c-0.3,0.2-0.7,0.1-0.9-0.2c-0.5-1.1,0.2-2.4,1.5-2.4C33.6,81.8,33.9,82.2,33.8,82.6z M33.3,87.5c-0.3,0.2-0.6,0.1-0.8-0.2  c0,0,0,0,0,0c-0.3-0.2-0.4-0.6-0.2-0.9c0.4-0.6,0.8-1.3,1.3-1.8c0.5-0.4,1.3-0.6,1.6,0.1C35.8,85.9,34.1,87.1,33.3,87.5z M28,92.4  c-0.3,0-0.6-0.3-0.6-0.6c0-0.2,0.2-0.5,0.4-0.6c0-0.1,0.1-0.1,0.1-0.2c0.4-0.4,0.8-1,1.4-1.1c0.6-0.2,1.1,0.3,1.2,0.9  C30.7,92,28.9,92.5,28,92.4z M25.8,92.1c-0.2,0.5-0.7,0.7-1.2,0.8c-0.3,0.1-0.7-0.1-0.8-0.4c0-0.1,0-0.2,0-0.3c0-0.1,0-0.3,0.1-0.4  c0.2-0.4,0.4-0.7,0.7-1c0.2-0.2,0.5-0.2,0.8-0.1C26,91,26.1,91.6,25.8,92.1z M44.5,81.1c0,0.1-0.1,0.2-0.1,0.3  c-0.1,0.4-0.2,0.7-0.5,1c-0.3,0.3-0.7,0.6-1.1,0.6c-0.3,0.3-0.6,0.5-1,0.5c-0.6,0.1-1-0.2-1.2-0.7c-0.3-0.8,0.1-1.4,0.7-1.8  c0.6-0.7,1.4-1.4,2.4-1.1C44.2,80,44.7,80.5,44.5,81.1z M39,78.9c-0.5-0.2-1.2-0.1-1.5,0.4c-0.5,0.5-0.4,1.3-0.3,2  c0.1,0.3,0.5,0.5,0.8,0.4c0.1,0,0.1-0.1,0.2-0.1c0.5-0.1,1-0.4,1.3-0.9C39.8,80.1,39.7,79.3,39,78.9z M36.9,76.4  c-0.5-0.3-1.1-0.2-1.4,0.2c-0.4,0.5-0.4,1-0.2,1.6c0,0.2,0.2,0.3,0.3,0.4c0,0,0,0,0,0c0.2,0.3,0.6,0.4,0.9,0.2  c0.4-0.3,0.8-0.6,0.9-1.1C37.5,77.3,37.4,76.7,36.9,76.4z M33.1,79.6c-0.3,0.6-0.8,0.8-1.3,1.2C31.7,81,31.5,81,31.3,81  c-0.4,0.1-1-0.2-0.8-0.8c0.2-0.6,0.2-1.4,0.7-2c0.4-0.5,1.2-0.7,1.7-0.2C33.3,78.5,33.3,79.1,33.1,79.6z M42.8,75.7  c-0.4,0.5-1.1,0.6-1.7,0.6c-0.2,0.1-0.4,0.2-0.6,0.1c-0.4-0.1-0.5-0.4-0.4-0.8c0.1-0.7,0.5-1.3,1-1.8c0.6-0.4,1.4-0.6,1.9,0.1  C43.3,74.6,43.2,75.3,42.8,75.7z M47.1,77.1c-0.3,0.7-1.3,0.9-1.9,1.2c-0.3,0.1-0.7,0.1-0.8-0.2c-0.2-0.1-0.3-0.4-0.3-0.7  c0.1-0.8,0.8-1.8,1.7-1.9c0.3-0.1,0.6,0,0.8,0.2c0.2,0.1,0.4,0.2,0.5,0.4C47.2,76.4,47.3,76.8,47.1,77.1z M51.9,74.6  c-0.4-0.1-1,0-1.4,0.2c-0.4,0.2-0.8,0.5-1,0.9c-0.2,0.3,0,0.7,0.2,0.9c0.2,0.1,0.5,0.1,0.7-0.1c0.1,0.1,0.3,0.1,0.5,0.1  c0.5-0.1,1-0.3,1.4-0.7C52.6,75.5,52.5,74.8,51.9,74.6z M56.8,72.6c-0.4,0.4-0.9,0.8-1.3,1.2C55.4,74,55.2,74,55,74  c-0.1,0.1-0.3,0.2-0.5,0.2c-0.4,0-0.6-0.3-0.6-0.6c-0.2-1.4,1.3-2.5,2.6-2.1C57,71.7,57.2,72.3,56.8,72.6z M53.6,68.9  c-1,0.2-1.4,1.5-1,2.4c0.1,0.2,0.3,0.3,0.5,0.3c0,0,0.1,0.1,0.1,0.1c0.3,0.2,0.7,0.1,0.9-0.2c0.2-0.5,0.6-1,0.6-1.6  C54.7,69.2,54.2,68.7,53.6,68.9z M60.2,68.5c-0.4,0.5-0.9,0.9-1.5,1.1c-0.3,0.1-0.6,0.1-0.7-0.1c-0.3,0-0.5-0.3-0.6-0.6  c-0.1-0.7,0.3-1.3,0.8-1.7c0.5-0.4,1.4-0.9,1.9-0.4C60.7,67.3,60.6,68,60.2,68.5z M62.4,67.5c-1,0-1.8,1-1.7,2c0,0.2,0,0.4,0.2,0.5  c0.3,0.4,0.9,0.3,1.1-0.1c0.2-0.1,0.3-0.2,0.5-0.3c0.3-0.2,0.6-0.4,0.8-0.7C63.6,68.3,63.2,67.5,62.4,67.5z M67.7,63.9  c-0.4,0.7-1.1,1.1-1.8,1.4c-0.3,0.1-0.6-0.1-0.7-0.4c-0.1-0.1-0.1-0.2-0.1-0.3c-0.2-0.7-0.2-1.6,0.3-2.2c0.4-0.5,1.2-0.7,1.8-0.4  C67.9,62.3,68.1,63.2,67.7,63.9z M70.5,58.5c0,0.7-0.3,1.4-0.6,2c-0.1,0.2-0.3,0.3-0.5,0.3c-0.2,0.2-0.6,0.2-0.8,0  c-0.8-0.9-0.7-2.5,0.4-3.1C69.6,57.3,70.4,57.7,70.5,58.5z M72.4,47c-1.3,1.2-2.2-1.4-2-2.3c0.2-0.6,0.9-1.1,1.5-0.5  c0.4,0.5,0.5,1.4,0.6,2c0,0.1,0,0.1,0,0.2C72.6,46.5,72.6,46.7,72.4,47z M68,41.5C68,41.5,67.9,41.5,68,41.5  c-0.1,0.2-0.1,0.2-0.2,0.3c-0.2,0.2-0.7,0.3-0.9,0c-0.4-0.5-0.7-1.2-0.7-1.8c0-0.6,0.2-1.4,0.9-1.5c0.7-0.2,1.1,0.4,1.2,1  C68.4,40.1,68.2,40.8,68,41.5z M69.4,46c-0.5,0.6-1.4-0.3-0.9-0.9c-0.3-0.8,0.1-1.6,0.7-2.1c0.3-0.2,0.9,0,0.9,0.4  C70.3,44.4,70.1,45.3,69.4,46z M64.3,49.7c0,0-0.1,0.1-0.1,0.1c-0.3,0.2-0.8,0.1-1-0.3c-0.3-1.1-0.5-4.5,1.5-3.9  c1.9,0.5,0.8,3.1,0,4C64.6,49.6,64.4,49.7,64.3,49.7z M67,55.1c-0.5,0.2-0.9-0.4-0.8-0.8c0-0.1,0-0.1,0-0.2c0-0.4,0.1-0.8,0.1-1.2  c-0.2-0.2-0.2-0.4-0.1-0.7c0.1-0.2,0.2-0.4,0.4-0.5c0.1-0.2,0.3-0.3,0.4-0.4c0.2-0.1,0.5-0.2,0.7-0.2c0.7,0,1.1,0.5,1.2,1.1  C69.2,53.4,68.2,54.6,67,55.1z M62.8,59.1c-0.4,0.4-0.9,0.1-1.1-0.3c-0.1-0.1-0.1-0.2-0.1-0.3c-0.2-1.1,0.3-3.7,2-3.1  C65.3,56.1,63.6,58.5,62.8,59.1z M66.6,58.8c0,0.7-0.3,1.4-0.8,1.9c-0.1,0.1-0.2,0.1-0.3,0.1c-0.1,0-0.2,0.1-0.3,0.1  c-0.4,0-0.6-0.3-0.6-0.6c0-0.8,0.4-1.6,1-2C66.1,57.9,66.6,58.3,66.6,58.8z M62.2,63.7c-0.2,0.3-0.5,0.4-0.8,0.6  c-0.1,0.1-0.3,0.1-0.4,0.2c0,0,0,0,0,0.1C61,64.9,60.7,65,60.4,65c-0.1,0-0.3,0-0.4-0.1c-0.3-0.2-0.4-0.6-0.2-0.9  c0.1-0.1,0.2-0.2,0.3-0.3c0.3-0.7,0.8-1.4,1.5-1.8c0.2-0.2,0.6-0.1,0.8,0.1C62.7,62.5,62.6,63.2,62.2,63.7z M57.5,65.6  c-0.5,0.6-1.3,0.9-2.1,1c0,0,0,0,0,0c-0.4,0.4-1.2-0.2-0.9-0.9c0.3-0.8,0.9-1.4,1.5-1.9c0.5-0.4,1.5-1,2-0.2  C58.5,64.2,58,65.2,57.5,65.6z M58.9,59.1c-0.2,0.6-0.6,1.3-1.2,1.6c-0.3,0.2-0.7,0-0.8-0.2c-0.2-0.1-0.3-0.3-0.2-0.5  c0.1-0.8,0-1.8,0.5-2.5c0.4-0.6,1.2-0.8,1.8-0.2C59.4,57.7,59.2,58.5,58.9,59.1z M55.1,47.9c-1.8-0.2-1.5,2.6-1.4,3.6  c0.1,0.7,1,0.8,1.2,0.3c0.3,0.1,0.5,0,0.7-0.3C56.2,50.6,56.9,48,55.1,47.9z M59.7,50.2c-0.3,0.2-0.6,0.3-0.9,0  c-0.2-0.2-0.3-0.7,0-0.9c0,0,0,0,0.1,0c-0.1-0.7,0.2-1.3,0.8-1.8c0.3-0.2,0.7-0.1,0.9,0.2C61.1,48.7,60.5,49.6,59.7,50.2z M60,39  c-0.1,0.6-0.5,1.2-1,1.5c-0.5,0.3-0.9-0.1-0.9-0.5c-0.3,0-0.5-0.2-0.5-0.6c0-0.8,0.2-1.7,0.7-2.3c0.4-0.5,1.2-0.7,1.7-0.1  C60.3,37.4,60.2,38.4,60,39z M63.3,37.6c0,0.1-0.1,0.1-0.1,0.1c-0.2,0.3-0.8,0.5-1.1,0C61.6,36.8,61,34,62.8,34  c0.8,0,1.1,0.9,1.1,1.6C64,36.3,63.8,37,63.3,37.6z M32.3,73.5c-0.5-0.4-1.2-0.2-1.5,0.2c-0.2,0.2-0.3,0.5-0.3,0.8  c0,0.3,0.1,0.7,0,1c0,0.1,0,0.2,0,0.3c0,0.5,0.8,0.9,1.2,0.3c0.3-0.4,0.8-0.7,0.9-1.2C32.8,74.4,32.7,73.8,32.3,73.5z M37.5,73.3  C37.5,73.3,37.5,73.4,37.5,73.3c-0.4,0.5-0.9,0.5-1.3,0.3c-0.1,0-0.1-0.1-0.1-0.1c-0.2-0.1-0.4-0.2-0.4-0.4c0,0,0,0,0,0  c-0.1-0.2-0.1-0.4,0-0.6c0.4-0.8,1.7-2.7,2.5-1.3C38.7,71.9,38.2,72.8,37.5,73.3z M36.1,69.3c-0.1,0.1-0.2,0.1-0.3,0.1  c0,0-0.1,0.1-0.1,0.1c-0.5,0.3-1.1-0.2-1-0.7c0,0,0-0.1,0-0.1c-0.1-0.1-0.2-0.3-0.1-0.5c0.3-1.1,1.5-3.2,2.9-2.3  C39.1,66.8,37,68.7,36.1,69.3z M32.1,69.5c-0.4,0.6-1,0.9-1.5,1.2c-0.2,0.1-0.4,0.1-0.6,0c-0.2,0-0.4-0.2-0.5-0.5  c-0.2-0.8,0.2-1.5,0.7-2.2c0.5-0.5,1.2-1,1.9-0.4C32.5,68.1,32.4,68.9,32.1,69.5z M19.5,77.5c-0.2,0.8-0.7,1.4-1.2,1.9  c-0.2,0.3-0.6,0.5-0.9,0.3c-0.1,0-0.2-0.1-0.3-0.2C17,79.5,16.9,79.2,17,79c-0.2-1.2,0.6-2.3,1.9-2.3C19.3,76.7,19.6,77.1,19.5,77.5  z M43.8,70c-0.3,0.6-0.9,1.1-1.5,1.3c-0.2,0.1-0.3,0-0.4,0c-0.3,0-0.5-0.2-0.5-0.6c0-0.6,0.1-1.3,0.5-1.9c0.4-0.5,1-0.9,1.7-0.7  C44.3,68.4,44.1,69.4,43.8,70z M44.9,63.4c-0.3,0.8-0.9,1.5-1.5,2.1c-0.2,0.2-0.4,0.2-0.6,0.2c-0.3,0.4-1.1,0.3-1.2-0.4  C41.6,64,42.5,62.1,44,62C44.9,61.9,45.2,62.7,44.9,63.4z M51.5,67.5c-0.4,0.6-1,0.9-1.6,1.2c0,0-0.1,0-0.1,0  c-0.3,0.5-1.3,0.2-1.2-0.5c0.1-0.7,0.4-1.3,0.9-1.9c0.4-0.5,1.2-1.1,1.8-0.7C52.1,66,51.9,66.9,51.5,67.5z M47.7,74  c-0.1,0-0.2,0-0.3,0c-0.5,0.5-1.3-0.4-0.8-1c0.6-0.8,2.6-3.1,3.6-1.7C51.1,72.6,48.6,73.9,47.7,74z M52.8,59.4  c-0.3,1.1-0.7,2.2-1.4,3.1c0,0-0.1,0.1-0.1,0.1C51,63.1,50,62.8,50.1,62c0.1-1,0.7-4.4,2.4-3.4C52.7,58.8,52.9,59.1,52.8,59.4z   M48.7,57.2c-0.2,0.2-0.4,0.2-0.6,0.2c-0.1,0.1-0.2,0.2-0.2,0.3c-0.6,0.6-1.4-0.3-0.9-0.9c0-0.1-0.1-0.2-0.1-0.3  c0.1-1,0.6-5,2.4-3.7C50.8,53.9,49.6,56.2,48.7,57.2z M41.5,59.5c-0.4,0.6-0.9,1.1-1.5,1.4c-0.1,0-0.1,0-0.2,0.1  c-0.4,0.2-1,0-0.9-0.5c0-0.7,0.1-1.5,0.6-2.1c0.4-0.5,1.1-0.8,1.7-0.5C42,58.1,41.9,58.9,41.5,59.5z M36.3,61.4  c-0.4,0.4-0.9,0.6-1.5,0.7c-0.1,0.1-0.1,0.2-0.2,0.3c-0.2,0.3-0.7,0.2-0.9,0c-0.3-0.3-0.2-0.6,0-0.9c0.2-0.3,0.4-0.6,0.6-1  c0-0.1,0.1-0.2,0.2-0.3c0.1-0.2,0.2-0.3,0.3-0.5c0.5-0.4,1.2-0.4,1.7,0C37,60.2,36.8,60.9,36.3,61.4z M30.9,60.9  c-0.7,0-1.5,0.6-1.9,1.2c-0.4,0.7-0.6,1.4-0.4,2.2c0.1,0.6,0.8,0.6,1.1,0.2c0.1,0,0.2,0,0.2-0.1c0.7-0.4,1.5-0.8,1.8-1.7  C31.9,62,31.8,60.9,30.9,60.9z M40.3,53.2c-0.2,0.7-0.6,1.3-1.1,1.8c-0.1,0.1-0.2,0.2-0.3,0.2c-0.4,0.1-0.9-0.1-0.9-0.6  c-0.1-0.8,0.1-1.6,0.5-2.3c0.3-0.5,0.8-1.3,1.5-1C40.6,51.7,40.4,52.7,40.3,53.2z M47.5,49.4c-0.2,0.5-0.6,0.8-1,1.1  c-0.1,0.2-0.3,0.2-0.4,0.3c-0.1,0-0.2,0.1-0.3,0.1c-0.1,0-0.1,0-0.2,0c-0.5,0.1-1-0.4-0.7-0.9c0.4-0.6,0.5-1.2,0.5-1.8  c0-0.4,0.3-0.6,0.5-0.6c0,0,0,0,0,0c0.4-0.6,1.3-0.7,1.7,0C48,48,47.8,48.8,47.5,49.4z M53.1,43.7c-0.3,0.3-0.8,0.1-1-0.1  c-0.1-0.1-0.2-0.2-0.2-0.4c-0.1-0.7-0.1-1.5,0.2-2.2c0.2-0.6,0.9-1,1.5-0.6C54.9,41.1,53.9,43,53.1,43.7z M45.1,43.8  c-0.3,0.3-0.7,0.2-1-0.1c-0.2-0.1-0.4-0.3-0.4-0.6c0.1-0.9,0.3-1.9,0.9-2.6c0.4-0.6,1.2-1,1.9-0.5C48.2,40.9,45.9,43.1,45.1,43.8z   M52.7,36.6c-0.2,0.6-0.8,0.9-1.2,1.5c-0.2,0.3-0.5,0.4-0.7,0.3c-0.4,0.1-0.9-0.2-0.8-0.8c0.2-0.6,0.3-1.4,0.6-1.9  c0.3-0.5,0.9-0.8,1.5-0.5C52.7,35.3,52.9,36,52.7,36.6z M57.1,31.9c0,0.6-0.4,1.1-1,1.3c-0.1,0-0.2,0-0.3,0c-0.4,0.2-1,0.1-1-0.5  c0-0.8,0.2-1.6,0.6-2.3c0.2-0.3,0.7-0.4,1-0.1C56.7,30.7,57.1,31.2,57.1,31.9z M24.7,60.9c-0.2,0.7-0.7,1.1-1.4,1.2  c-0.3,0.5-1.2,0.4-1.2-0.3c0.1-0.7,0.3-1.4,0.7-2.1c0.3-0.5,0.9-1.1,1.6-0.7C25,59.3,24.9,60.4,24.7,60.9z M21.4,65.9  c-0.1,0.6-0.5,1.1-0.9,1.5c-0.2,0.2-0.4,0.2-0.6,0.1c-0.4,0.2-0.9,0-1-0.5c0-0.7,0.1-1.4,0.5-2c0.3-0.5,0.8-1,1.4-0.8  C21.6,64.4,21.6,65.3,21.4,65.9z M34.6,55.3c-0.3,0.6-0.7,1-1.3,1.3c-0.2,0.1-0.3,0.1-0.5,0.1c-0.3,0.5-1.2,0.4-1.2-0.3  c0-1.1,0.9-3.2,2.4-2.8C34.8,53.8,34.9,54.7,34.6,55.3z M29.3,56.1c-0.2,1-0.7,1.8-1.4,2.6c-0.2,0.2-0.4,0.2-0.6,0.2  c0,0-0.1,0-0.1,0.1c-0.4,0.1-0.7-0.1-0.8-0.4c-0.6-1.6,0.6-3.3,2.3-3.2C29.1,55.3,29.4,55.7,29.3,56.1z M28.8,48.4  c-0.3,1.4-1.1,2.6-2.2,3.5c-0.6,0.4-1.1-0.3-0.9-0.8c-0.1-0.1-0.1-0.2-0.1-0.3c-0.1-1.5,1-2.9,2.4-3.1  C28.5,47.6,28.9,47.9,28.8,48.4z M33.8,48.1c-0.2,0.9-1.1,1.4-1.5,2.2C32,51,31,50.6,31.1,49.9c0,0-0.1-0.1-0.1-0.2  c-0.2-0.6-0.3-1.1,0.1-1.7c0,0,0.1-0.1,0.1-0.1c0.2-0.4,0.4-0.8,0.6-1.2c0.1-0.1,0.1-0.1,0.2-0.2c0.1-0.3,0.5-0.6,0.9-0.4  C33.7,46.6,34,47.4,33.8,48.1z M37.2,48c-0.5,0.4-1-0.2-0.9-0.7c0-0.1,0-0.2,0-0.3c0.1-0.8,0.4-1.6,0.9-2.2c0.4-0.6,1.2-0.7,1.6-0.1  C39.7,46.1,38.2,47.4,37.2,48z M23.6,52.5c-0.2,0.6-0.6,1.2-1.1,1.6c-0.1,0.7-1.2,0.6-1.3-0.2c-0.1-0.6-0.1-1.3,0.2-1.9  c0.2-0.6,0.8-1.2,1.5-1.1C23.6,51.1,23.8,51.9,23.6,52.5z M20.6,57.5c0,0.7-0.2,1.3-0.6,1.9c-0.2,0.3-0.5,0.4-0.8,0.3  c-0.2,0.2-0.5,0.2-0.8,0c-1.1-1-0.2-2.5,0.9-3C19.9,56.2,20.6,56.7,20.6,57.5z M19.6,54.2c-0.1,0.3-0.3,0.3-0.5,0.3c0,0,0,0,0,0  c0,0.4-0.3,0.6-0.5,0.6c-0.2,0.1-0.4,0.1-0.6,0c-0.3-0.2-0.3-0.4-0.3-0.7c-0.3-0.9-0.3-2.5,0.9-2.6c0.5-0.1,1,0.2,1.2,0.7  C20.1,53,19.9,53.7,19.6,54.2z M21.1,48.5c-0.3,0.4-0.7,0.4-1,0.1c-0.1,0.1-0.2,0.1-0.4,0.1c-0.4,0-0.6-0.3-0.6-0.6  c-0.1-0.9,0.2-2.7,1.5-2.3C21.7,46.2,21.6,47.7,21.1,48.5z M25.4,36.8c-0.3,0.8-1,1.3-1.7,1.7c-0.4,0.2-0.7,0-0.8-0.2  c-0.3,0-0.5-0.2-0.5-0.6c0-0.9,0.3-1.7,0.8-2.4c0.5-0.6,1.2-1,1.9-0.4C25.5,35.4,25.6,36.2,25.4,36.8z M26,42.3  c-0.2,0.3-0.4,0.5-0.6,0.7L25,43.4l-0.1,0.1c0,0.1,0,0.2-0.1,0.2c0,0,0,0,0,0c-0.1,0.2-0.3,0.3-0.5,0.3c-0.3,0-0.6-0.2-0.7-0.4  c-0.2-0.1-0.3-0.4-0.2-0.6c0.3-0.9,1-3.2,2.3-2.3C26.2,41.1,26.3,41.8,26,42.3z M31.9,40.3c-0.4,0.6-1,1-1.7,1.3  c-0.3,0.1-0.6,0.1-0.8-0.1C29.1,41.4,29,41,29,40.7c0.1-0.6,0.4-1.3,0.9-1.7c0.4-0.4,1.2-0.9,1.8-0.5C32.4,38.8,32.2,39.8,31.9,40.3  z M36.7,37.2c-0.9-0.5-1.7,0.4-2.2,1c-0.6,0.6-1.3,1.5-0.6,2.3c0.2,0.2,0.5,0.3,0.7,0.1c0.1,0,0.1,0,0.2,0c0.9-0.1,1.7-0.4,2.2-1.1  C37.5,38.8,37.6,37.7,36.7,37.2z M35.7,39c-0.1,0.1-0.2,0.2-0.3,0.2c0,0,0.1-0.1,0.1-0.1c0.1-0.2,0.3-0.3,0.5-0.5  c0.1-0.1,0.1-0.1,0.2-0.2c0,0.1-0.1,0.2-0.1,0.2C35.9,38.8,35.8,38.9,35.7,39z M44.3,36.1c-0.4,0.4-1,0.6-1.5,0.7  c-0.3,0.4-1.1,0.2-1.1-0.4c0-0.7,0.3-1.3,0.7-1.8c0.5-0.5,1.3-0.8,1.9-0.4C45,34.7,44.8,35.6,44.3,36.1z M49.7,32.1  c-0.4,0.4-0.9,0.1-1-0.3c-0.1-0.1-0.1-0.2-0.2-0.3c-0.1-0.6-0.2-1.4,0.2-2c0.3-0.5,1-0.8,1.5-0.5C51.4,29.7,50.3,31.4,49.7,32.1z   M44.5,30.6c-0.1,0.2-0.3,0.4-0.4,0.4c-0.4,0.1-0.7-0.1-0.8-0.4c-0.3-0.8,0.1-1.9,0.9-2.3c0.3-0.2,0.8,0,0.9,0.4  C45.2,29.4,45,30.1,44.5,30.6z M41.7,25.3c-0.4-0.4-1-0.3-1.4,0c-0.3,0.3-0.5,0.6-0.8,1c0,0-0.1,0.1-0.1,0.1c0,0,0,0,0,0  c-0.2,0.3-0.1,0.7,0.2,0.9c0.3,0.2,0.6,0.1,0.8-0.1c0.4-0.2,0.9-0.3,1.3-0.6C42,26.3,42.1,25.7,41.7,25.3z M30.3,29.2  c-0.4,0.1-0.8-0.2-0.8-0.6c0-0.7,0.4-1.4,1.1-1.8c0.1-0.1,0.3-0.1,0.4-0.1c0.5-0.2,1.1-0.2,1.3,0.5C32.6,28.2,31.1,29.1,30.3,29.2z   M31.8,34.1c-0.2,0.2-0.5,0.3-0.9,0.4c-0.7,0.5-1.6,0.7-2.1-0.1c0-0.1-0.1-0.1-0.1-0.2c-0.6,0.3-1.3-0.5-0.8-1  c0.5-0.4,1-0.8,1.6-1.2c0.5-0.3,1.1-0.7,1.6-0.7c0.8,0,1,0.6,0.9,1.2C32.3,33.2,32.2,33.8,31.8,34.1z M39.1,31.2  c-0.1,1-0.8,1.9-1.7,2.3c-0.5,0.2-1-0.1-0.9-0.7c0-0.1,0.1-0.3,0.1-0.4c-0.7,0.3-1.2-0.7-0.5-1.1c0.8-0.5,1.6-0.7,2.5-0.9  C38.9,30.3,39.1,30.8,39.1,31.2z M26.8,29.3c-0.4,0.3-0.9,0.5-1.4,0.2c-0.2-0.1-0.3-0.3-0.3-0.5c-0.1-0.2-0.1-0.5,0-0.6  c0.5-0.7,1.1-1.3,1.8-1.8c0.3-0.2,0.7,0,0.9,0.2C28.3,27.8,27.6,28.7,26.8,29.3z"></path></svg>