<svg xmlns="http://www.w3.org/2000/svg" xmlns:xlink="http://www.w3.org/1999/xlink" version="1.1" x="0px" y="0px" viewBox="0 0 100 125" style="enable-background:new 0 0 100 100;" xml:space="preserve"><path d="M48.1,18c-0.1,0-0.2,0-0.4,0.1c0.6-0.4,1.2-0.8,1.9-1.2c-0.1,0.1-0.2,0.1-0.3,0.2C48.9,17.4,48.5,17.7,48.1,18z M34.4,34.4  c-0.1,1.2-0.6,2.4-1.4,3.3c0,0.1-0.1,0.2-0.2,0.3c-0.2,0.1-0.2,0.3-0.1,0.5c0.1,0.2,0.2,0.4,0.1,0.5c-0.2,0.2-0.4,0.2-0.6,0.1  c-0.2-0.1-0.4-0.2-0.6-0.3c-0.1,0-0.2,0-0.3-0.1c-1-0.9-1-2.1-0.7-3.3c-0.1-0.3-0.3-0.6-0.4-0.9c-0.2-0.3,0.3-0.6,0.5-0.3  c0-0.1,0.1-0.1,0.2-0.1c0.2-0.2,0.4-0.4,0.5-0.4c0,0,0,0,0,0c0.4-0.8,1.1-1.4,1.9-1.5C34.3,31.9,34.4,33.6,34.4,34.4z M33,33.3  c-0.4-0.1-0.9,0.6-1.1,1.3c0,0,0.1,0,0.1,0c0-0.3,0.2-0.5,0.5-0.5c0.4,0,0.6,0.3,0.5,0.6c0,0,0,0.1,0,0.1c0,0.1,0,0.2,0,0.3  c0,0.1,0,0.2-0.1,0.3l0,0c0,0,0,0.1-0.1,0.1c0,0,0.1,0,0.1,0.1c0-0.1,0-0.1,0.1-0.2C33.2,35.1,33.5,33.4,33,33.3z M98.7,54  c-0.9,5.3-2.8,10.4-5.6,14.9c0,0.1,0,0.2-0.1,0.2c-0.1,0.1-0.2,0.2-0.3,0.4c0,0-0.1,0.1-0.1,0.1c-0.9,1.3-1.9,2.6-2.9,3.8  c0.1,0.1,0,0.3-0.2,0.4c-0.1,0-0.1,0-0.2,0c-1.2,1.3-2.5,2.5-3.8,3.5c-6.8,5.4-15.7,8.1-24.3,6.8c-0.2,0-0.4-0.2-0.4-0.4  c-0.6,0.4-1.3,0.7-2,1c-4.6,1.9-10,2.6-15,2.6c0,0,0,0,0,0c-4.5,0.2-9.1,0.4-13.5-0.6c-0.3-0.1-0.5-0.1-0.8-0.2c-0.1,0-0.1,0-0.2,0  c-0.1,0-0.2-0.1-0.3-0.1c-1.6-0.5-3.2-1.2-4.7-2c-3.8-1.5-7.3-3.7-10.3-6.4c-2.1-1.5-4.1-3.1-5.6-5.3C6,69.2,4.2,65.4,2.7,61.5  c-0.6-1.5-1.2-3.2-1.7-4.8c-0.1-0.1-0.1-0.3-0.2-0.4c-0.1-0.2-0.1-0.4,0-0.5c0-0.2-0.1-0.4-0.1-0.6c0-0.1,0-0.3,0-0.4  c-0.1-0.1-0.2-0.2-0.2-0.4c-0.1-1.7,2-1.6,3.2-1.7c2.6-0.2,5.1-0.4,7.7-0.5c3.3-0.2,6.6-0.4,9.9-0.6c0-0.1,0-0.1-0.1-0.2  c0,0-0.1-0.1-0.1-0.1C21,50.7,21,50,21,49.5c0-0.1,0-0.1,0.1-0.2c0,0,0-0.1,0-0.1c0-0.1,0.1-0.2,0.2-0.3c0-0.1,0-0.1,0-0.2  c0,0,0-0.1,0-0.1c0-0.1,0-0.2,0-0.3c0.1-1.5,0.4-3,0.7-4.5c0-0.8,0.2-1.7,0.6-2.4c0.7-2.4,1.5-4.7,2.5-7c1.8-4.4,3.6-8.6,7.1-11.9  c3.4-3.2,7.1-6.1,11.5-7.8c2.7-1.1,5.6-1.7,8.5-2.3c0,0,0.1,0,0.1,0c2.1-0.5,4.2-0.8,6.4-0.9c0.1,0,0.3,0,0.4-0.1  c1.9-0.2,3.8-0.1,5.8,0.1c1.2,0.1,2.4,0.2,3.5,0.3c3.8,0.4,7.4,1.3,10.9,2.9c0.7,0.2,1.3,0.5,1.9,0.8c0.1,0,0.2,0,0.4,0.1  c0.2,0.2,0.4,0.3,0.6,0.5c0.5,0.4,1,0.7,1.5,1.1c2.5,2,5.1,3.9,7.2,6.3c0.1,0.1,0.2,0.2,0.2,0.3c0.6,0.6,1.1,1.2,1.5,1.9  c0.3,0.4,0.5,0.7,0.7,1.1c0.3,0.2,0.6,0.5,0.9,0.8c0.1,0.2,0,0.4-0.1,0.5c0.4,0.7,0.8,1.5,1.2,2.3C99.3,37.4,100.1,45.9,98.7,54z   M97.8,45.1c0.1,0,0.2,0.1,0.3,0.2c0-0.1,0-0.2,0-0.2C98,45.1,97.9,45.1,97.8,45.1z M85.9,22.8c0,0-0.1-0.1-0.1-0.1  c0.1,0.1,0.1,0.3,0.2,0.4c0,0,0.1-0.1,0.1-0.1C86.1,22.9,86,22.8,85.9,22.8z M85.3,20.9c0.1,0.1,0.2,0.1,0.3,0.2c0,0,0,0,0,0  c0.1,0,0.2,0,0.3,0.1c0,0-0.1,0-0.1-0.1C85.6,21,85.5,21,85.3,20.9z M83.2,19.3c0.3,0.2,0.7,0.3,1,0.4c-0.1-0.1-0.3-0.2-0.4-0.3  C83.7,19.4,83.5,19.4,83.2,19.3C83.3,19.3,83.2,19.3,83.2,19.3z M83.1,22.2c-0.2-0.2-0.5-0.3-0.7-0.4c0.7,0.4,1.3,0.9,1.8,1.6  c0.1,0.1,0.2,0.2,0.2,0.3C84.1,23.2,83.7,22.6,83.1,22.2z M82.9,20.1c-0.1,0-0.2-0.1-0.3-0.1c0.1,0.1,0.1,0.1,0.2,0.2  c0,0,0.1,0,0.1,0C82.8,20.2,82.9,20.1,82.9,20.1z M60.7,12.6c0.4-0.1,0.8-0.1,1.2-0.1c-0.3,0-0.7,0-1,0  C60.8,12.6,60.8,12.6,60.7,12.6z M48.3,14.3c1.2,0.4,2.2-0.1,3.3-0.7C50.4,13.8,49.3,14.1,48.3,14.3z M34,22.7c0,0,0.1,0.1,0.1,0.2  c0.1-0.2,0.1-0.3,0.2-0.5c0,0,0,0,0,0C34.2,22.5,34.1,22.6,34,22.7z M34,24.6C34,24.6,34,24.6,34,24.6c0.1,0.1,0.1,0.3,0.1,0.4  c0-0.1,0.1-0.2,0.1-0.3C34.1,24.7,34.1,24.7,34,24.6z M9.4,71.6c-0.1-0.1-0.2-0.3-0.3-0.4c-0.2-0.2-0.3-0.5-0.5-0.7  C8.8,70.8,9.1,71.2,9.4,71.6C9.3,71.6,9.4,71.6,9.4,71.6z M69.7,72.6c2.6-3.6,4.4-8,5.7-12.2c1.4-4.3,2.1-8.7,1.8-13.2  c-8.6,0.8-17.1,1.9-25.6,3.1c-8.5,1.3-17,1.8-25.5,2.1c-0.1,0-0.2,0-0.3-0.1c-3.9,0.2-7.8,0.5-11.7,0.7c-0.7,0-1.4,0.1-2.1,0.1  c-2,0.2-4.1,0.4-6.1,0.6l0.2,1.5c0,0.4-0.5,0.4-0.6,0c-0.1-0.5-0.1-0.9-0.2-1.4c-0.5,0-1,0.1-1.6,0.1c0.2,0.1,0.3,0.2,0.4,0.5  c0.8,4,1.6,8.1,3.9,11.5c0.5,0.7,1,1.4,1.6,2.1c2,2.3,4.2,4.3,5.9,6.9c0.3,0.4,0.7,0.7,1,1.1c0.3,0.3,0.6,0.6,0.9,0.9  c0.3,0.2,0.6,0.5,0.8,0.7c6.5,4.4,14.1,6.8,22,6.9c0.1,0,0.2,0,0.3,0.1c2.5,0,5-0.1,7.5-0.3c0.2,0,0.3,0,0.4,0.1  c3.7-0.5,7.3-1.5,10.6-3.3c2-1.1,3.8-2.3,5.5-3.7C66.6,75.9,68.4,74.5,69.7,72.6z M28.9,42.6c0-0.2,0.1-0.4,0.1-0.7  C28.9,42.2,28.9,42.4,28.9,42.6C28.9,42.6,28.9,42.6,28.9,42.6z M29.4,49.3C29.4,49.3,29.4,49.3,29.4,49.3c-0.1-0.3-0.1-0.6-0.2-0.9  C29.2,48.7,29.3,49.1,29.4,49.3z M39.5,50.6c-0.1,0-0.1,0-0.2-0.1c-0.6,0.1-1.1,0.1-1.7,0.2C38.2,50.7,38.8,50.6,39.5,50.6z   M39.8,50.4C39.8,50.5,39.8,50.5,39.8,50.4c-0.1,0.1-0.2,0.1-0.2,0.1c4.3-0.3,8.6-0.8,13-1.5c1.6-0.2,3.1-0.5,4.7-0.7  c0,0-0.1,0-0.1-0.1C51.3,49,45.6,49.7,39.8,50.4z M48.6,48c-0.3-0.1-0.7-0.2-1.1-0.2c0,0,0,0,0,0.1C47.8,47.7,48.2,47.8,48.6,48z   M48.9,48.2c0,0,0.1,0,0.1,0c-0.1-0.1-0.2-0.1-0.2-0.2c0,0-0.1,0-0.1,0C48.8,48.1,48.9,48.1,48.9,48.2z M52.1,47.6  c-0.1,0.1-0.2,0.1-0.4,0.2c0.2,0,0.3-0.1,0.5-0.1C52.2,47.6,52.2,47.6,52.1,47.6z M52.7,47.2C52.7,47.2,52.7,47.2,52.7,47.2  c-0.1-0.1-0.2-0.1-0.3-0.2c-0.1,0-0.1,0-0.2,0C52.4,47.1,52.5,47.1,52.7,47.2z M58.1,46.2C58,46.2,58,46.2,58.1,46.2  C58,46.3,58,46.3,58,46.4c0,0,0,0,0,0c0,0,0.1,0,0.1,0c0.1-0.1,0.1-0.2,0.2-0.3C58.2,46.1,58.1,46.2,58.1,46.2z M58.3,45  c0.1,0,0.2,0,0.3,0c-0.1-0.1-0.2-0.1-0.3-0.2C58.3,44.8,58.3,44.9,58.3,45z M57.9,48.2C57.9,48.3,57.9,48.3,57.9,48.2  C57.9,48.3,57.9,48.3,57.9,48.2c1.9-0.2,4-0.5,6-0.7C61.9,47.8,59.9,48,57.9,48.2z M65.4,45.9c0.2,0,0.3,0,0.5,0  c-0.2-0.1-0.3-0.1-0.5-0.2C65.4,45.8,65.4,45.9,65.4,45.9z M75.6,70.9C75.6,70.9,75.6,70.9,75.6,70.9c0.3,0.1,0.5,0.2,0.8,0.2  c0-0.1,0-0.2,0-0.2C76.2,70.9,75.9,70.9,75.6,70.9z M87.6,74C87.6,74,87.6,74,87.6,74c-1.7,0.4-3.9-0.5-5.4,0.9  c-0.3,0.3-0.9,0.3-1.1-0.1c-0.5-0.9-1.2-1.3-1.9-1.6c-0.5-0.1-1-0.1-1.5-0.2c-0.7-0.1-1.5-0.2-2.2-0.3c-0.1,0.1-0.3,0.3-0.4,0.4  c0.1,0.3,0,0.6-0.1,0.8c-0.4,0.5-0.9,1-1.4,1.5c0,0.1-0.1,0.2-0.1,0.3c0.1,0,0.3,0,0.4,0c0.2,0.1,0.3,0.4,0.2,0.6  c0.1,0,0.1,0.1,0.1,0.1l0.3-0.2c0.1,0,0.1-0.1,0.2-0.1c0.3-0.6,1.3-0.3,1.1,0.3c0,0.1,0,0.1-0.1,0.2c0.2-0.2,0.5-0.4,0.7-0.6  c0.5-0.5,1.3,0.3,0.8,0.8c0,0,0,0-0.1,0c0,0,0.1,0.1,0.1,0.1c0.5-0.3,1.1-0.7,1.6-1c0.5-0.3,1.1,0.3,0.8,0.8l-0.6,1  c0,0,0.1,0.1,0.1,0.1c0.3,0,0.4,0.3,0.4,0.6c0-0.1,0.1-0.1,0.1-0.2c0.2-0.3,0.5-0.4,0.8-0.2c0,0,0.1,0,0.1,0.1  c0.1-0.1,0.2-0.1,0.3-0.1c0.1,0,0.3-0.1,0.4-0.1c0.1-0.1,0.2-0.1,0.3-0.1c0.3-0.1,0.6-0.2,0.9-0.4c0.2-0.1,0.4-0.1,0.6,0  c0.1-0.1,0.2-0.2,0.3-0.4c0.2-0.2,0.6-0.2,0.8,0C85.4,76,86.6,75,87.6,74z M83,70.7c-0.2-0.2-0.4-0.1-0.7-0.1  C82.6,70.6,82.8,70.6,83,70.7z M94.5,62.7c0,0-0.1-0.1-0.1-0.2c-0.4-0.9-1.3-1.3-2.1-2c-0.5-0.4-2-2.7-2.7-1.7  c-0.4,0.5-1.3,0.4-1.3-0.3c0-0.1,0-0.2,0-0.3c-1-1-2.2-1.7-3.5-2.4c-1.3-0.7-2.6-1.3-3.9-2c0,0.8,0,1.7-0.1,2.5  c-0.1,0.8-0.2,1.6-0.4,2.5c0.7,0.6,1.2,1.3,1.9,1.8c1,0.7,2.4,0.8,3.6,0.9c0.3,0,0.5,0.3,0.5,0.5c0.1,0.1,0.1,0.1,0.1,0.2  c0.3,1.2,1.6,1.6,2.7,1.9c0.5,0.1,0.5,1,0,1.1c-0.1,0-0.2,0-0.3,0.1c-0.3,0.1-0.4-0.1-0.6-0.2c-0.1,0-0.2,0-0.2-0.1  c-0.1,0.1-0.2,0.1-0.3,0.2c-1.1,0.3-2.3-0.3-3.4-0.4c-1.4,0-2.8,0.3-4.1,0.8c-0.3,0.1-0.6-0.1-0.7-0.4c-0.2-0.5-0.1-0.9-0.5-1.3  c-0.2,0-0.3-0.1-0.5-0.1c0,0,0,0,0,0.1c-0.3,0.9-0.7,1.9-1.1,2.8c0.2-0.1,0.3-0.2,0.5-0.3c0.4-0.3,0.9,0.2,0.8,0.6  c-0.2,0.7-0.1,1.6,0.6,1.9c0.2,0,0.4,0,0.6,0c0,0,0.1,0,0.1,0c0.2,0,0.3,0,0.5,0c0.1,0,0.2-0.1,0.3-0.1h0.1c1.2-0.2,2.3-0.6,3.4-1.4  c0.4-0.3,1,0.2,0.8,0.6c-0.3,0.8,0.1,1.5,0.9,1.7c0.2,0,0.3,0.2,0.4,0.3c0.1,0,0.3,0,0.4,0c0.3-0.4,0.6-0.8,0.9-1.2  c0.2-0.2,0.6-0.2,0.8,0c0.1,0.1,0.1,0.1,0.1,0.2c0.2-0.1,0.5,0,0.7,0.3c0.5-0.4,0.9-0.7,1.3-1.2C91,68,91.1,68,91.3,68  c0.1-0.1,0.2-0.3,0.3-0.4c0.2-0.2,0.5-0.4,0.8-0.2c0.1,0,0.1,0.1,0.2,0.1c0.1,0,0.1,0,0.2,0c0.3-0.5,0.6-1.1,0.9-1.6  c0.2-0.5,0.3-1,0.5-1.5c0.1-0.4,0.3-0.9,0.4-1.3C94.5,63,94.5,62.8,94.5,62.7z M96,60.2c-0.1,0.2-0.3,0.4-0.4,0.7  c-0.1,0.2-0.3,0.3-0.5,0.3c0.1,0.2,0.2,0.3,0.4,0.5C95.7,61.2,95.9,60.7,96,60.2z M97.8,52.6c0.3-2.2,0.4-4.4,0.3-6.6  c-1.6-0.8-2.9-1.9-4.2-3.1c-0.1-0.1-0.2-0.1-0.3-0.2c-0.6-0.4-1.3-0.8-2-1.2c-0.7-0.3-1.1-0.2-1.8-0.1c-0.4,0.1-0.8-0.2-0.7-0.7  c0.2-0.6,0.2-1.2,0.1-1.8c0-0.1-0.1-0.2-0.1-0.2c-0.1-0.3-0.2-0.7-0.3-1c-0.1-0.1-0.2-0.2-0.4-0.4c-1.2-1-3.5-0.9-5-1l-4.6-0.5  c-0.8-0.1-3.6-0.9-4.2-0.1c-0.3,0.4-1.1,0.3-1-0.3c0-0.6-0.3-1-0.8-1.3c-0.2-0.1-0.4-0.2-0.6-0.3c-0.6-0.2-1.2-0.4-1.7-0.5  c-1-0.3-2-0.6-3.1-0.9c-1.8-0.5-3.7-1-5.5-1.4c-0.6,0-1.2,0-1.7,0.3c-0.1,0.1-0.3,0.3-0.4,0.4c-0.1,0.5-0.6,0.9-1,0.6  c-0.5-0.4-1.1-0.7-1.8-0.9c-3.1-0.8-6.4-1.1-9.6-0.9c-2.1,0.1-4.1,0.5-6.1,1.1c-1.7,0.5-3.4,1.3-5.2,1.3c-0.4,0-0.4-0.5,0-0.6  c0.4,0,0.8-0.1,1.3-0.2c0,0,0,0,0.1-0.1c1.7-1.3,3.4-2.7,5.1-4c0.5-0.4,1-0.8,1.6-0.9c0,0,0-0.1,0-0.1c-0.1-0.3,0.3-0.7,0.6-0.5  c0.9,0.7,1.9,1.1,3.1,1.3c0,0,0,0,0,0c0.7,0,1.4-0.1,2-0.2c1.2-0.1,2.3-0.2,3.5-0.3c2.3-0.2,4.6-0.4,6.9-0.7c0.2,0,0.3,0.2,0.3,0.4  c-0.2,1.8,3.3,1.9,4.5,2.1c1.5,0.2,2.9,0,4.4-0.3c0.1,0,0.2,0,0.2,0c0.4-0.5,1.3-0.3,1.3,0.4c0,0,0,0.1,0,0.1c0,0,0.1,0,0.1,0.1  c0.9,0.2,9.4,2.3,10.3,2.5c1.7,0.3,3.4,0.4,5.1,0.9c1.2,0.4,2.5,1.2,3.8,1.3c0.4,0,0.7-0.1,1.1-0.2c0.5-0.1,0.8,0.2,0.8,0.6  c0.1,0.1,0.1,0.3,0,0.4c-0.3,0.8-0.7,1.7-0.3,2.5c0.2,0.4,0.8,0.8,1.2,1c0.7,0.5,1.4,1,2.2,1.4c0.9,0.6,1.8,1.3,2.5,2.1  c-0.5-3.3-1.4-6.5-2.8-9.6c-0.2-0.5-0.4-1-0.7-1.5c-0.4-0.8-0.9-1.5-1.4-2.2c-0.2,0-0.4-0.1-0.5-0.4c0-0.1-0.1-0.3-0.1-0.4  c-0.4-0.5-0.8-1-1.2-1.5c-1.5-0.4-3.1-0.2-4.4,0.7c-0.1,0.1-0.2,0-0.3,0c-0.1-0.1-0.1-0.1-0.2-0.2c-0.2,0-0.5-0.2-0.5-0.4  c0-0.1-0.1-0.2-0.1-0.3c-0.8-1-1.5-2.2-2.4-3.1c-1.6-1.5-4.3-2.1-6.4-2.8c-2.2-0.7-4.5-1.3-6.8-1.6c-0.8-0.1-7.4-0.5-7,0.8  c0.1,0.2-0.1,0.4-0.3,0.3c-2.3-0.6-4.6-0.4-6.8,0.1c-1,0.2-2,0.5-3,0.9c-1.4,0.4-3.1,0.8-2.2,2.7c0.1,0.3-0.3,0.6-0.5,0.3  c-1.1-2.2-4-0.5-5.5,0.2c-0.5,0.2-1,0.5-1.5,0.8c0,0,0,0-0.1,0c-1.4,1.1-2.8,2.3-4.1,3.5c-1,1.2-2.1,2.4-3.5,3.2  c-0.2,0.1-0.5-0.1-0.4-0.3c0-0.1,0-0.2,0.1-0.3c1.1-1,2.3-2,3.4-3c0.2-0.3,0.5-0.5,0.7-0.8c1.1-1.2,2.3-2.1,3.6-2.8  c0.8-0.6,1.5-1.2,2.3-1.8c0-0.1,0.1-0.1,0.2-0.1c0,0,0,0,0.1,0c1.1-0.8,3.1-1.7,3.3-3c0-0.2,0.3-0.3,0.5-0.1c1,1.4,4.2,0.1,5.6-0.1  c1.7-0.3,3.4-0.5,5.1-1c1-0.3,1.4-0.7,2.1-1.4c0.3-0.2,0.4-0.4,0.8-0.4c0.6,0,1.2,0.4,1.7,0.5c0.9,0.3,1.8,0.3,2.8,0.3  c3.4,0,6.8,0.3,10.1,1.3c0.8,0.3,1.6,0.6,2.4,0.8c0.2,0.1,0.5,0.1,0.7,0.1c0-0.2,0.1-0.4,0.2-0.7c-0.1-0.2,0.1-0.5,0.4-0.4  c0.1,0.1,0.2,0.1,0.3,0.2c0.5,0.1,1,0.2,1.5,0.4c-1.5-1.1-3.1-2-4.8-2.8c-3.7-1.7-8-2.7-12.2-3.2c-0.3,0-0.6,0-0.9-0.1  c-0.2,0.1-0.4,0.3-0.5,0.5c-0.1,0.2-0.3,0.2-0.5,0c-3.3-0.5-6.6,0.8-9.7,1.6c-0.6,0.2-1.8,0.2-2.3,0.6c-0.3,0.2-0.2,0.5-0.5,0.8  c0,0-0.1,0.1-0.1,0.1c0,0.2,0,0.3,0,0.5c0,0.2-0.2,0.3-0.4,0.2c0,0-0.1,0-0.1,0c-0.8-0.2-1.5-0.3-2.2-0.3c-1.3,0.4-2.6,1.2-3.7,2.1  c0,0.1,0.1,0.2,0,0.3c-0.3,0.4-0.4,0.7-0.2,1.2c0,0.1,0,0.3-0.2,0.3c-1.1,0.2-2.2,0.6-3.1,1.3c-1.3,1.2-2.6,2.5-3.8,3.7  c-0.6,0.6-1.1,1.2-1.7,1.8c-0.2,0.2-0.4,0-0.5-0.2c-0.1-0.1-0.1-0.2,0-0.4c0.5-0.5,1.1-1.1,1.6-1.6c0,0,0-0.1,0.1-0.1  c0.1-0.1,0.3-0.3,0.5-0.4c0.5-0.5,0.9-0.9,1.4-1.4c1.1-1.2,2.1-2.7,1.6-3.9c-0.1-0.1,0-0.4,0.2-0.4c1.6-0.2,3.1-0.8,4.4-1.6  c1-0.9,2.1-1.8,2.5-3c-0.9,0.2-1.8,0.5-2.7,0.8c-2,0.7-3.9,1.7-5.6,2.8c-0.4,0.6-1,1-1.5,1.6c-0.1,0.1-0.2,0.2-0.3,0.3  c0.1,0.1,0,0.3-0.1,0.4c-0.2,0.1-0.4,0.3-0.6,0.5c-0.2,0.3-0.4,0.6-0.6,0.9c-1,1.5-1.6,3.1-1.8,4.8c0,0.1,0,0.1-0.1,0.1  c0,0.1,0,0.2,0,0.2c0,0.4-0.5,0.4-0.6,0c0-0.3-0.2-2.5-0.7-2.5c-0.2,0-0.3-0.2-0.3-0.4c0.1-0.2,0.1-0.5,0.1-0.7  c-1.4,1.3-2.4,2.8-3.4,4.3c0,0.1,0,0.2,0,0.3c0,0,0,0.1,0,0.1c0,0,0,0.1,0,0.1c0.1,0.9,0.5,1.7,0.8,2.6c0.1,0.3-0.2,0.5-0.4,0.3  c-0.6-0.5-1-1.1-1.4-1.7c-1,1.9-1.8,3.8-2.6,5.8c-0.6,1.5-1.2,3-1.7,4.6c1-0.6,2.2-1.1,3.3-1.5c0.2-0.1,0.4-0.3,0.6-0.4  c0.2-0.2,0.5,0.1,0.4,0.3c0,0.1,0,0.3-0.2,0.3c-0.2,0.1-0.4,0.1-0.6,0.2c-2,1.5-3.2,3.6-4.8,5.5c-0.2,0.9-0.3,1.8-0.5,2.7  c0.1,0,0.1,0,0.2-0.1c0.2-0.7,1.2-0.4,1.1,0.3c0,0,0,0,0,0c0.4-0.1,0.8,0.1,0.7,0.6c0,0,0,0.1,0,0.1c0,0.2,0.1,0.4,0.1,0.6  c0,0,0.1,0,0.1-0.1c0.1-0.2,0.2-0.4,0.3-0.6c0.3-0.5,0.8-0.3,1,0.1c0.2-0.2,0.6-0.2,0.8,0.1c0.1-0.1,0.2-0.2,0.2-0.3  c0.1-0.1,0.2-0.2,0.4-0.2c0-0.7-0.3-0.9-0.6-1.4c-0.1-0.1,0-0.3,0-0.3c1.6-1.5,1.2-4,2.2-5.9c0.1-0.2,0.4-0.1,0.5,0.1c0,0,0,0,0,0  c0.2,0,0.3,0.1,0.4,0.3c0,0.3,0,0.5,0,0.8c0,0.1,0.1,0.1,0,0.2c0,0.1,0,0.2,0,0.2c0,0,0,0,0,0.1c0,0.1,0,0.1,0,0.1  c-0.3,1.7-0.2,3.5-0.2,5.3c0,0.2,0,0.5,0,0.7c0-0.1,0-0.2,0-0.2c0-0.1,0.1-0.2,0.1-0.2c0.2-0.4,1-0.3,1.1,0.3c0,0.1,0,0.2,0,0.3  c0.2-0.2,0.7-0.3,0.9,0.1c0,0.1,0.1,0.1,0.1,0.2c0.3-0.3,1-0.1,1,0.4c0,0.1,0,0.2,0,0.2c0.1-0.1,0.2-0.2,0.3-0.3  c0.2-0.2,0.4-0.2,0.6-0.1c0.1-0.1,0.1-0.1,0.2-0.2c0.2-0.2,0.5-0.2,0.7,0c0.3-0.1,0.7,0,0.7,0.4c0,0,0,0,0,0c0.2,0,0.3,0.1,0.4,0.2  c0.1,0.2,0.2,0.3,0.3,0.5c0,0,0,0,0,0c0.1-0.1,0.2-0.1,0.3-0.1c0.1,0,0.1,0,0.1,0c-0.2-0.2-0.4-0.3-0.6-0.5c-0.2-0.1-0.2-0.4,0-0.5  c0.3-0.1,0.5-0.4,0.6-0.6c0,0,0,0,0,0c-0.2-0.7-0.5-1.4-0.7-2.1c0-0.2-0.1-0.3-0.1-0.5c-0.5-1.3-0.6-2.7-1.1-4  c-0.1-0.3,0.3-0.6,0.4-0.3c0,0,0.1,0,0.1,0c0.2,0,0.3,0.1,0.4,0.3c0.1,0.6,0.2,1.2,0.3,1.8c0.5,1.8,1.2,3.6,2.8,4.6  c0,0,0.1,0,0.1,0.1c0.1,0.1,0.2,0.1,0.3,0.2c0.1,0,0.1,0.1,0.1,0.2c0,0.1,0,0.1,0,0.2c0.1-0.2,0.3-0.3,0.4-0.5  c0.3-0.4,1-0.1,0.9,0.4c0,0.1,0,0.2,0,0.4c0.2-0.2,0.5-0.5,0.7-0.8c0.2-0.2,0.5-0.2,0.7,0c0.2-0.2,0.3-0.3,0.5-0.5  c0.4-0.4,0.9-0.1,0.9,0.4c0,0.1,0,0.2,0,0.4c0.3-0.3,0.7-0.7,1-0.8c0.3-0.2,0.6,0,0.8,0.2c0.1-0.1,0.2-0.1,0.3-0.2  c0.4-0.2,0.8,0.1,0.8,0.5c0,0,0.1,0,0.1-0.1c0.2-1.5-2.3-2.8-3.7-3.7c-2.4-1.1-4.6-2.4-6.7-3.9c-0.3-0.2,0-0.7,0.3-0.5  c2,1.4,4.1,2.6,6.2,3.7c0.1,0,0.2,0,0.3,0.1c0.1,0.1,0.1,0.1,0.2,0.2c0.7,0.3,1.4,0.6,2.1,0.9c1.3,0.5,2.6,0.9,3.9,1.4  c0.4,0,0.8-0.2,1.1-0.3c0.2-0.3,0.5-0.5,0.8-0.8c0.2-0.1,0.5-0.1,0.5,0.2c-0.1,1,0.6,1.5,1.4,1.9c0,0,0,0,0.1,0c0.2-0.4,1-0.3,1,0.3  c0,0,0.1,0,0.1,0c0,0,0.1,0,0.1,0c0,0,0.1,0,0.1,0c0,0,0,0,0,0c0,0,0,0,0,0c0.1,0,0.1,0,0.2,0c0.1-0.1,0.3-0.2,0.3-0.4  c0.3-0.4,0.9-0.3,1,0.1c0.5-0.3,1-0.5,1.6-0.7c0,0,0-0.1,0-0.1c0.1-0.6-0.3-1.2-0.9-1.8c-0.9-0.4-1.7-0.9-2.6-1.3  c-3.3-1.7-7.9-4.2-11.7-3.1c-0.2,0.1-0.3-0.1-0.4-0.3c-0.1-1.2-2.2-1.6-3.2-1.9c-1.1-0.3-2.3-0.6-3.4-0.8c-0.2,0-0.2-0.2-0.2-0.3  c-0.2-0.1-0.2-0.4,0.1-0.5c2.1-0.4,4.4,1.1,6.4-0.1c0.2-0.1,0.4,0,0.4,0.2c0.4,1.3,1.9,1.6,3.1,1.8c1.2,0.2,2.3,0.5,3.5,0.8  c1.2,0.3,2.5,0.7,3.7,1c1.3,0.4,2.6,0.9,4.1,0.5c0.2-0.1,0.4,0.1,0.3,0.3c-0.4,1.5,5.3,2.9,6.4,3.3c1.8,0.6,3.5,1.3,5.3,1.9  c0-0.1,0.1-0.2,0.1-0.2c0.1-0.2,0.2-0.2,0.4-0.3c0.3-0.2,0.7,0,0.8,0.3c0.1-0.1,0.1-0.1,0.2-0.2c0.3-0.3,0.7-0.2,0.9,0.1  c0.1,0.1,0.2,0.3,0.2,0.4c0,0,0,0.1,0,0.1c0.1,0,0.1,0,0.2,0c0.5-0.2,1.2-0.3,1.8-0.4c0.3-0.1,0.5,0.1,0.6,0.3c0.2,0,0.4,0,0.6,0  c1.5-0.1,2.9-0.2,4.4-0.2c0.6,0,1.8-0.1,2.2,0.6c0,0.1,0.1,0.1,0.1,0.2c0,0,0,0,0,0c0.1,0,0.1,0.1,0.1,0.1c0.1,0.1,0.2,0.3,0.2,0.4  c0,0.2,0,0.3,0,0.5c0.1,0.1,0.2,0.4,0.1,0.6c0,0.2-0.1,0.3-0.1,0.5c0,0.5,0,0.9,0,1.4c0.3-0.3,0.8-0.1,0.9,0.3  c0,0.2,0.1,0.5,0.1,0.7c0,0.1,0,0.2,0.1,0.3c0,0,0,0,0.1,0c0.8,0.4,1.7,0.9,2.5,1.3c1,0.5,1.8,1.2,2.9,0.4c0.1,0,0.1-0.1,0.2-0.1  c0.6-0.5,1.4,0.5,0.9,1c0.1,0,0.1,0,0.2,0c1.1,0.3,2.2,0.7,3.2,1.2c1.1,0.5,2.6,1.3,3.8,0.9c0,0,0.1-0.1,0.1-0.1  c0.1-0.2,0.2-0.4,0.2-0.6c0.2-0.5,0.8-0.5,1-0.1c0.1,0,0.1-0.1,0.2-0.1c0.1-0.6,0.2-1.1,0.3-1.7C97.8,52.8,97.8,52.7,97.8,52.6z   M56.4,41.4c0,0.1,0,0.2-0.1,0.3c0.3,0.1,0.6,0.2,0.9,0.3C56.8,41.8,56.6,41.6,56.4,41.4z M52.2,39.9c-0.8-0.2-1.5-0.5-2.3-0.7  c0.9,0.3,1.9,0.7,2.8,0.9c0.2,0,0.3,0,0.5,0.1C52.9,40.1,52.6,40,52.2,39.9z M43.3,37.6c0,0,0,0.1,0,0.1c0.1,0,0.2,0,0.3,0  C43.5,37.7,43.4,37.7,43.3,37.6z M42,37.8c-0.1,0.1-0.2,0.2-0.3,0.2c0.1,0.1,0.1,0.1,0.2,0.2c0,0,0,0,0,0C41.9,38,42,37.9,42,37.8  C42,37.8,42,37.8,42,37.8z M36.1,36c0.4,0.1,0.8,0.2,1.2,0.3c0,0,0-0.1,0-0.1C36.9,36.1,36.5,36,36.1,36z M25.8,39.9  c0.2-0.2,0.3-0.4,0.5-0.6c-0.2,0.1-0.3,0.1-0.5,0.2C25.9,39.7,25.8,39.8,25.8,39.9C25.7,39.9,25.7,39.9,25.8,39.9  C25.7,39.9,25.7,39.9,25.8,39.9z M46.6,16.9c-0.1,0.1-0.3,0.3-0.5,0.4c0.2-0.1,0.4-0.2,0.5-0.3C46.6,17,46.6,16.9,46.6,16.9z   M41.8,20.6C41.8,20.6,41.8,20.6,41.8,20.6c-0.1,0.1-0.2,0.2-0.3,0.4c0,0,0.1-0.1,0.1-0.1c0.1-0.1,0.2-0.2,0.2-0.2  C41.9,20.6,41.8,20.6,41.8,20.6z M41,21.3c0,0.1-0.1,0.2-0.2,0.3c0,0,0,0,0.1-0.1c0.1-0.1,0.1-0.1,0.2-0.2c0,0,0,0,0,0  C41.1,21.4,41.1,21.3,41,21.3z M78.5,20c-0.2,0-0.4-0.1-0.6-0.1C78.1,20,78.3,20.1,78.5,20C78.5,20.1,78.5,20.1,78.5,20z M71.3,18  c-0.5-0.1-1.1-0.1-1.7-0.1c0.6,0.1,1.1,0.1,1.7,0.2C71.3,18.1,71.3,18.1,71.3,18z M59.9,18.7c-0.1,0-0.1-0.1-0.1-0.1  c-0.3,0.1-0.6,0.2-1,0.2C59.2,18.7,59.5,18.7,59.9,18.7C59.9,18.7,59.9,18.7,59.9,18.7z M52.4,19.9c0.1,0,0.1,0.1,0.1,0.1  c0.3-0.1,0.5-0.1,0.8-0.2c0.2-0.1,0.3-0.1,0.5-0.2C53.4,19.8,52.9,19.9,52.4,19.9z M49,19.8c-0.1,0.2-0.2,0.3-0.3,0.5  c0.1-0.1,0.3-0.3,0.4-0.4C49.1,19.8,49,19.8,49,19.8z M90.9,37.3c0,0.1-0.1,0.2-0.1,0.2c0.1,0.1,0.2,0.2,0.3,0.2  C91,37.6,90.9,37.5,90.9,37.3z M55.4,29.1c0.2,0.1,0.4,0.1,0.6,0.2c0-0.1,0.1-0.2,0.2-0.3C55.9,29.1,55.7,29.1,55.4,29.1z M53,28  C53,27.9,53,27.9,53,28c-0.9,0-1.8,0.1-2.7,0.2C51.1,28.1,52.1,28,53,28z M50.1,29.7c-1.6-0.1-3.2,0-4.8,0.3  c0.8-0.1,1.6-0.2,2.4-0.2c0.9-0.1,1.8-0.1,2.7,0C50.2,29.7,50.2,29.7,50.1,29.7z M43,28.4c0.3-0.2,0.7-0.4,0.9-0.6  C43.6,28,43.3,28.2,43,28.4z M76,51.6c-1.1,7-3.1,14-7.6,19.6c-2.2,2.8-5.1,5.7-8.2,7.4c-3.3,1.8-7,2.5-10.5,3.7  c-0.3,0.1-0.2,0.7,0.1,0.5c3.5-1.2,7.1-1.9,10.4-3.6c3.3-1.7,6.2-4.8,8.5-7.6c4.6-5.6,6.7-12.8,7.8-19.8  C76.6,51.4,76.1,51.3,76,51.6z M59.9,62.3c0.2-0.1,0.2-0.4,0-0.5c-0.6-0.4-1.3-0.8-2-1.2c-0.3-0.2-0.6,0.3-0.3,0.5  c0,0,0.1,0.1,0.1,0.1c0,0.1,0,0.1,0,0.2C58.2,62.1,59.1,63,59.9,62.3z M57.5,57.7c-0.2-0.3,0.1-0.6,0.4-0.4c0,0,0.1,0,0.1,0  c0.7,0,1.8,0.2,1.7,1.2c0,0.1-0.1,0.3-0.3,0.3C58.7,58.6,58,58.3,57.5,57.7z M58.5,57.8c0.2,0.1,0.4,0.2,0.6,0.3  C59,57.9,58.7,57.8,58.5,57.8z M63.5,53.9c0.4,0.2,0.8,0.3,1.3,0.3c0.3,0,0.8-0.1,0.9-0.5c0.1-0.3-0.3-0.5-0.5-0.6  c-0.5-0.1-1.1,0-1.6,0c-0.3,0-0.3,0.4-0.2,0.5C63.4,53.7,63.4,53.8,63.5,53.9z M65.4,58.4c0.3,0.2,0.4,0.6,0.1,0.8  c-0.6,0.5-1.7-0.3-2-0.7c-0.2-0.2,0-0.5,0.2-0.5c0-0.2,0.1-0.3,0.3-0.2C64.4,58,65,58.1,65.4,58.4z M64.9,58.8  c-0.1,0-0.3-0.1-0.4-0.2l-0.3-0.1C64.5,58.7,64.7,58.8,64.9,58.8C65.1,58.9,65.1,58.9,64.9,58.8z M30.4,71.3c1.1,0.1,1.5-1.1,1.6-2  c0-0.3-0.5-0.3-0.5,0c0,0-0.1,0-0.1,0c-0.3,0.2-0.5,0.4-0.8,0.6c-0.2,0.2-0.5,0.3-0.6,0.6C29.8,70.9,30,71.2,30.4,71.3z M25.8,65.5  c0.1-0.2,0.3-0.4,0.5-0.5c0.3-0.2,0.5-0.4,0.8-0.5c0.1-0.1,0.2-0.1,0.2,0c0.2-0.1,0.4,0,0.4,0.2c0,0.6,0,1.2-0.4,1.6  c-0.3,0.3-0.8,0.5-1.2,0.3C25.9,66.3,25.7,65.8,25.8,65.5z M26.7,66c0.2,0,0.4-0.3,0.4-0.4c0-0.1,0-0.1,0.1-0.2c0,0,0,0,0,0  C27,65.5,26.8,65.7,26.7,66C26.7,66,26.7,66,26.7,66z M16.5,58.6c0.3-0.2,0.5-0.6,0.6-0.9c0,0,0,0,0,0c0.1-0.1,0.2-0.2,0.1-0.3  c0,0,0,0,0,0c0,0,0,0,0,0c0.2-0.1,0.3-0.1,0.5-0.2c0.3-0.1,0.2-0.7-0.1-0.5c-0.6,0.2-1.2,0.5-1.8,0.8c-0.3,0.2-0.7,0.5-0.4,0.9  C15.7,58.7,16.2,58.8,16.5,58.6z M20.9,63.4c0.2-0.2,0.4-0.5,0.6-0.7c0.2-0.1,0.3-0.3,0.5-0.4c0.1-0.1,0.1-0.2,0-0.3  c0,0,0.1-0.1,0.1-0.1c0.2-0.3-0.3-0.6-0.5-0.3c0,0,0,0.1-0.1,0.1c0,0-0.1,0-0.1,0c-0.5,0.2-2.9,1-1.8,1.9  C20.1,63.8,20.5,63.7,20.9,63.4z M20.8,66.7c-0.1,0.2,0.2,0.4,0.3,0.3c0.8-0.3,1.4-0.8,1.8-1.5c0.2-0.3-0.3-0.6-0.5-0.3c0,0,0,0,0,0  c0,0-0.1,0-0.2,0C21.5,65.5,21,66,20.8,66.7z M27.9,69.7C27.9,69.7,27.9,69.7,27.9,69.7c0.1-0.4,0.7-0.2,0.6,0.1  c-0.2,0.5-0.4,1-0.8,1.2c-0.4,0.2-0.8,0.3-1.2,0c-0.1-0.1-0.2-0.3-0.1-0.4c0.3-0.4,0.7-0.8,1.3-1C27.7,69.6,27.8,69.7,27.9,69.7z   M27.6,70.3c-0.2,0.1-0.4,0.3-0.5,0.4C27.3,70.7,27.5,70.5,27.6,70.3z M48.5,82.5c-4.4,0.1-9.1,0.3-13.5-0.7c-4.4-1-8.7-3.1-12.8-5  c-2-0.9-4-1.7-5.5-3.4c-1.3-1.6-2.5-3.3-3.8-4.9c-3-3.5-5.3-7.1-6.6-11.6c-0.1-0.3-0.6-0.2-0.5,0.1c1.2,4.3,3.4,7.9,6.2,11.3  c1.5,1.8,2.8,3.7,4.3,5.4c1.4,1.6,3.3,2.4,5.1,3.3c4.1,1.9,8.5,4,12.9,5.2c4.5,1.2,9.5,0.9,14.1,0.8C48.9,83.1,48.9,82.5,48.5,82.5z   M56.6,67.9c0.2,0.3,0.6,0.9,1,0.5c0.4-0.4,0-1-0.2-1.3c-0.3-0.5-0.8-0.9-1.2-1.3c0,0-0.1,0-0.1,0c0,0,0,0,0,0  c-0.1-0.3-0.6,0-0.5,0.3C55.9,66.6,56.2,67.3,56.6,67.9z M61.5,63.7C61.5,63.7,61.5,63.8,61.5,63.7c0.3,0.5,1.3,2.1,2,1.4  c0.4-0.3,0.1-0.7-0.2-1c-0.5-0.4-1.1-0.7-1.6-1C61.4,63.1,61.1,63.5,61.5,63.7C61.4,63.7,61.4,63.7,61.5,63.7z M58.6,73.6  c-0.3,0.3-0.8,0.2-1-0.1c-0.3-0.4-0.4-1-0.6-1.5c0,0,0,0-0.1,0c-0.3-0.1-0.2-0.5,0-0.5c0.1-0.1,0.4-0.1,0.5,0.1c0,0,0,0,0,0.1  C58.3,72,59.3,72.8,58.6,73.6z M57.8,72.4C57.8,72.4,57.8,72.4,57.8,72.4l0,0.1c0,0,0,0.1,0,0.1c0.1,0,0.1,0,0.2,0.1  c0,0,0.1,0.1,0.1,0.1c0.1,0.1,0.1,0.3,0,0.4c0,0,0.1,0,0.1,0C58.5,73,58,72.5,57.8,72.4z M58.7,51.4c0.1,0,0.1,0,0.2,0  c0-0.1,0.2-0.2,0.3-0.2c0.4,0.1,0.9-0.1,1.3,0.2c0.2,0.2,0.4,0.5,0.2,0.8c-0.2,0.3-0.6,0.3-0.9,0.2c-0.2-0.1-0.3-0.3-0.5-0.4  c-0.2-0.1-0.5-0.2-0.8-0.2C58.2,51.9,58.3,51.4,58.7,51.4z M59.8,51.9c0.1,0,0.1,0.1,0.2,0.1c0.1,0,0.3,0.1,0.1,0  C60,51.9,59.9,51.9,59.8,51.9z M37.8,76.1c0.3,0,0.6-0.2,0.8-0.5c0.2-0.5-0.2-1,0-1.5c0.1-0.3-0.2-0.4-0.4-0.3  c-0.1-0.1-0.3,0-0.4,0.2C37.5,74.4,36.7,76,37.8,76.1z M45.2,72.4c-0.5-0.7-0.5-1.5-0.1-2.2c0.1-0.1,0.1-0.1,0.2-0.1  c0.1-0.2,0.4-0.3,0.5-0.1c0.3,0.5,0.6,1,0.5,1.6c-0.1,0.4-0.3,0.8-0.8,0.9C45.4,72.6,45.3,72.5,45.2,72.4z M45.5,71.7  c0,0.1,0.1,0.2,0.1,0.2c0.1-0.1,0.2-0.1,0.2-0.2c0,0-0.1,0-0.1,0C45.5,71.8,45.5,71.8,45.5,71.7z M50,77.6c0.9-0.2,0.4-1.3,0.1-1.9  c0-0.1,0-0.2-0.1-0.2c0,0,0,0,0-0.1c-0.1-0.3-0.7-0.2-0.5,0.1c0,0.1,0.1,0.1,0.1,0.2C49.4,76.4,49.1,77.9,50,77.6z M40.9,68.1  c0.3,0,0.5-0.3,0.5-0.6c0-0.6,0-1.2-0.1-1.8c0-0.4-0.6-0.4-0.6,0c0,0.1,0,0.2,0,0.3c-0.1,0-0.2,0-0.2,0.1c-0.2,0.3-0.3,0.7-0.3,1.1  C40.3,67.5,40.5,68,40.9,68.1z M76.6,49.6v-1.7c0-0.4-0.6-0.4-0.6,0v1.7C76.1,50,76.6,50,76.6,49.6z M50.2,57.4  c0.2,0,0.3,0.1,0.5,0.1c0.3,0,0.5-0.4,0.5-0.7c-0.1-0.4-0.5-0.7-0.8-0.9c-0.3-0.2-0.7-0.5-1-0.6c0,0,0,0-0.1,0  c-0.1,0-0.1-0.1-0.2-0.1c-0.2-0.1-0.4,0.1-0.4,0.3c-0.1,0.1-0.1,0.2,0,0.3c0.2,0.3,0.3,0.6,0.5,0.9c-0.1,0.1-0.2,0.4,0.1,0.5  c0.1,0,0.2,0.1,0.3,0.1C49.8,57.4,50,57.4,50.2,57.4z"></path></svg>